<svg width="559" height="489" viewBox="0 0 559 489" fill="none" xmlns="http://www.w3.org/2000/svg">
<g clip-path="url(#clip0)">
<path d="M547.99 295.148C547.99 306.387 547.24 317.426 545.838 328.264C545.338 332.061 518.664 335.807 517.963 339.553C517.313 343.299 542.635 347.045 541.835 350.742C516.462 462.777 416.122 546.441 296.215 546.441C162.896 546.441 53.7482 442.997 44.9903 312.131C44.64 306.537 172.154 300.843 172.154 295.148C172.154 290.403 44.59 285.708 44.8402 281.063C45.791 263.83 48.4935 247.048 52.7473 230.864C54.1485 225.52 9.25836 220.225 11.0099 214.98C12.6114 210.185 60.9046 205.49 62.7562 200.845C68.5614 186.509 75.6678 172.823 83.9251 159.937C87.5784 154.292 230.006 148.748 234.11 143.403C237.362 139.108 102.141 134.912 105.695 130.866C151.836 77.5708 220.097 43.8552 296.215 43.8552C365.727 43.8552 428.684 71.9765 474.224 117.48C479.529 122.775 537.431 128.319 542.235 134.063C547.039 139.807 498.796 145.801 503.1 151.945C510.156 162.084 516.512 172.823 522.017 183.962C524.97 189.906 152.837 202.143 530.124 202.143C532.877 209.036 535.329 216.079 537.481 223.272C544.337 246.049 547.99 270.174 547.99 295.148Z" fill="#CCE9FF" fill-opacity="0.5"/>
<ellipse cx="330.5" cy="451" rx="206.5" ry="17" fill="black" fill-opacity="0.1"/>
<path d="M354.417 413.328L364.526 426.314C364.526 426.314 350.963 441.399 355.467 440C360.022 438.602 384.944 418.572 384.944 418.572C384.944 418.572 372.883 402.439 373.083 402.339C373.383 402.189 354.417 413.328 354.417 413.328Z" fill="#0B4870"/>
<path d="M339.604 316.027L382.342 405.935L355.168 421.219L310.778 340.652L313.58 314.179L339.604 316.027Z" fill="#0B4870"/>
<path d="M450.203 341.501L482.181 450.989H485.835L461.313 341.101L450.203 341.501Z" fill="#CDD5D7"/>
<path d="M392.501 342.05L368.179 449.141H372.483L405.012 342L392.501 342.05Z" fill="#CDD5D7"/>
<path d="M420.976 339.553L424.679 449.141H429.784L432.036 340.002L420.976 339.553Z" fill="#CDD5D7"/>
<path d="M391.35 385.406L464.315 383.108L464.816 390.651L385.895 393.698L391.35 385.406Z" fill="#CDD5D7"/>
<path d="M419.675 317.176C419.675 317.176 407.814 187.059 423.128 185.86C438.442 184.661 473.123 173.673 479.378 195.85C485.934 219.176 477.076 343.799 468.268 342.6C453.055 340.502 437.04 342.35 421.777 342.999C415.521 343.299 350.313 348.494 359.021 332.81C361.573 328.215 371.732 326.366 376.186 325.118C384.543 322.82 393.151 321.172 401.709 319.723C402.71 319.673 419.625 317.126 419.675 317.176Z" fill="#F7F7F7"/>
<path d="M466.167 198.447C466.217 198.397 466.517 198.797 467.018 199.596C467.268 199.996 467.568 200.495 467.868 201.144C468.219 201.744 468.519 202.493 468.869 203.292C470.321 206.589 471.822 211.684 472.472 218.127C473.173 224.57 473.223 232.213 473.073 240.704C472.923 249.195 472.422 258.486 471.672 268.226C470.871 277.966 469.97 287.256 469.069 295.648C468.219 304.039 467.318 311.681 466.167 317.975C465.016 324.318 463.564 329.313 462.363 332.71C461.112 336.106 460.211 337.855 460.111 337.805C459.961 337.755 460.612 335.857 461.563 332.46C462.514 329.014 463.715 324.019 464.665 317.725C465.666 311.432 466.367 303.889 467.118 295.448C467.868 287.007 468.769 277.766 469.52 268.026C470.27 258.286 470.871 249.045 471.121 240.604C471.371 232.163 471.472 224.57 470.971 218.227C470.471 211.883 469.27 206.889 468.068 203.542C466.968 200.245 466.017 198.497 466.167 198.447Z" fill="#D3D3D3"/>
<path d="M310.828 251.193L307.025 249.145C307.025 249.145 304.573 248.246 300.569 245.849C299.518 245.199 298.617 244.4 297.817 243.501C296.866 242.402 295.615 240.854 295.214 239.855C294.664 238.606 292.962 238.506 292.662 239.655C292.412 240.804 293.763 244.3 296.966 247.447C300.169 250.594 293.413 249.645 290.96 249.345C288.508 249.045 280.851 248.496 280.251 249.145C279.35 250.144 280.351 251.393 282.803 251.643C285.305 251.892 292.662 253.141 292.562 254.39C292.462 255.639 279.901 253.94 279.901 253.94C279.901 253.94 277.248 253.141 277.048 254.64C276.748 257.287 290.11 258.136 291.411 258.186C292.312 258.236 292.262 259.635 291.261 259.535C290.26 259.435 278.749 257.537 278.449 260.234C278.199 262.282 289.459 261.033 291.761 262.731C294.063 264.43 283.053 262.831 282.903 264.829C282.853 265.578 282.903 266.128 289.259 266.178C295.765 266.178 313.23 263.381 313.23 263.381L310.728 251.043" fill="#FFBA98"/>
<path d="M396.755 198.947C396.755 198.947 363.925 242.952 356.419 244.95C348.912 246.898 305.873 249.495 305.873 249.495L302.02 268.076C302.02 268.076 357.119 270.973 369.23 262.032C388.297 247.997 408.315 215.68 408.315 215.68C408.816 205.04 404.712 199.696 396.755 198.947Z" fill="#FFBE55"/>
<path d="M307.525 429.411L309.627 445.744C309.627 445.744 290.26 451.838 294.864 452.937C299.468 454.036 331.196 449.49 331.196 449.49C331.196 449.49 329.045 429.511 329.295 429.511C329.495 429.461 307.525 429.411 307.525 429.411Z" fill="#0E538C"/>
<path d="M440.644 281.262C440.644 281.262 458.911 320.272 422.878 333.659L403.661 291.901L440.644 281.262Z" fill="#0E538C"/>
<path d="M415.572 291.602C415.572 291.602 311.478 263.081 299.768 287.006C288.057 310.982 301.97 435.754 301.97 435.754L334.549 432.358C334.549 432.358 329.144 322.82 334.549 318.974C339.954 315.128 414.971 334.058 422.828 333.709C442.045 332.81 455.607 297.096 415.572 291.602Z" fill="#0E538C"/>
<path d="M417.774 187.159C404.111 187.458 393.002 198.247 392.351 211.883C391.851 223.222 392.951 238.756 389.849 252.442C388.247 259.485 379.039 287.856 379.039 287.856L388.297 289.404C402.56 291.802 417.223 291.052 431.186 287.306L441.695 284.459C441.695 284.459 447.751 252.941 451.204 223.322C454.056 198.597 449.352 188.957 434.288 186.859L417.774 187.159Z" fill="#FFBE55"/>
<path d="M410.567 188.957C411.017 186.559 410.267 176.47 410.267 176.47C410.267 176.47 401.058 175.321 400.708 166.18C400.358 157.04 401.359 135.961 401.359 135.961L418.324 128.119L436.54 142.504L438.192 152.594L433.988 164.582L432.086 187.458L410.567 188.957Z" fill="#FFE3CA"/>
<path d="M410.267 176.42C410.267 176.42 416.423 176.62 422.478 172.574C422.478 172.574 419.575 179.217 410.417 178.668L410.267 176.42Z" fill="#FCD2B1"/>
<path d="M390.099 282.312L385.795 282.062C385.795 282.062 383.193 282.312 378.538 281.762C377.337 281.612 376.136 281.313 375.035 280.763C373.684 280.164 371.932 279.265 371.132 278.515C370.131 277.566 368.479 278.216 368.73 279.365C368.98 280.513 371.682 283.111 375.936 284.659C380.19 286.158 373.634 288.156 371.282 288.905C368.93 289.654 361.723 292.351 361.473 293.2C361.073 294.499 362.474 295.198 364.826 294.399C367.178 293.6 374.385 291.602 374.835 292.851C375.285 294.05 363.175 297.746 363.175 297.746C363.175 297.746 360.422 298.145 360.873 299.544C361.723 302.091 374.184 297.246 375.386 296.747C376.186 296.397 376.737 297.696 375.836 298.045C374.885 298.395 363.675 301.492 364.476 304.089C365.126 306.087 374.785 300.193 377.588 300.793C380.39 301.392 369.73 304.539 370.381 306.387C370.631 307.086 370.932 307.586 376.737 304.938C382.692 302.241 397.305 292.351 397.305 292.351L389.848 282.212" fill="#FFE3CA"/>
<path opacity="0.05" d="M403.21 290.753C403.21 290.753 423.679 284.909 436.69 272.821C447.05 263.181 446.899 254.24 446.899 254.24L451.804 216.778L403.21 290.753Z" fill="black"/>
<path d="M431.686 190.056C431.686 190.056 427.782 244.8 422.478 250.494C417.173 256.188 382.342 281.512 382.342 281.512L389.148 299.244C389.148 299.244 437.141 272.072 442.546 258.036C449.051 241.054 450.253 214.681 450.453 203.392C450.553 198.647 448.551 193.952 444.848 191.005C440.794 187.808 436.44 187.608 431.686 190.056Z" fill="#FFBE55"/>
<path d="M458.31 337.655C458.11 338.254 444.047 336.756 426.582 335.807C409.116 334.808 394.853 334.758 394.853 334.109C394.803 333.559 409.166 332.66 426.882 333.659C444.548 334.658 458.51 337.105 458.31 337.655Z" fill="#D3D3D3"/>
<g opacity="0.05">
<path opacity="0.05" d="M430.285 207.388C430.435 207.388 430.485 208.637 430.485 210.935C430.485 213.232 430.435 216.529 430.135 220.575C429.835 224.621 429.334 229.516 428.083 234.81C426.882 240.105 424.83 245.849 421.377 251.193C417.874 256.488 413.37 260.634 409.116 263.98C404.862 267.327 400.809 270.024 397.456 272.322C390.699 276.867 386.896 280.064 386.696 279.864C386.596 279.764 387.447 278.815 389.148 277.267C390.85 275.718 393.402 273.62 396.655 271.223C399.908 268.775 403.861 265.978 408.015 262.632C412.119 259.285 416.423 255.239 419.776 250.144C423.078 245.05 425.13 239.555 426.381 234.411C427.683 229.266 428.333 224.471 428.784 220.475C429.634 212.383 429.985 207.338 430.285 207.388Z" fill="black"/>
</g>
<path d="M418.675 190.305L419.425 182.164L432.687 179.716L436.691 188.407L418.675 190.305Z" fill="#FFBE55"/>
<path d="M410.267 181.165L415.522 182.164V190.305L408.866 188.957L410.517 179.716" fill="#FFBE55"/>
<path d="M524.469 276.817H189.169V287.756H524.469V276.817Z" fill="#2A94F4"/>
<path d="M215.392 287.756L189.169 452.337L202.281 452.587L247.271 287.756H215.392Z" fill="#2A94F4"/>
<path d="M500.047 285.958L515.361 455.784H503.1L470.12 293L468.369 280.863L500.047 285.958Z" fill="#2A94F4"/>
<path d="M469.37 287.756L470.571 295.348L500.798 294.199L500.197 287.756H469.37Z" fill="#0E538C"/>
<path d="M215.393 287.756L214.142 295.498L245.42 294.649L247.271 287.756H215.393Z" fill="#0E538C"/>
<path d="M239.364 215.879L260.283 276.817H354.868L354.167 273.67L315.883 272.521L298.267 215.879H239.364Z" fill="#F7F7F7"/>
<path d="M281.301 244.4C281.902 246.898 280.851 249.345 278.899 249.845C276.947 250.344 274.845 248.746 274.245 246.248C273.644 243.751 274.695 241.303 276.647 240.804C278.599 240.304 280.651 241.903 281.301 244.4Z" fill="#D3D3D3"/>
<path d="M463.515 258.186C460.762 248.646 459.461 235.31 458.71 225.42C458.56 223.472 458.46 221.474 459.161 219.626C459.861 217.777 461.563 216.229 463.515 216.229C465.166 216.279 466.617 217.428 467.418 218.826C468.269 220.225 468.569 221.873 468.87 223.472C470.671 232.662 472.473 241.803 474.274 250.994C475.976 247.747 478.278 244.75 480.93 242.252C482.131 241.104 483.883 240.005 485.334 240.804C486.635 241.503 486.786 243.301 486.736 244.8C486.585 249.295 485.985 253.791 485.034 258.186" fill="#FFBE55"/>
<path d="M459.661 257.237C459.661 257.237 454.957 275.918 474.024 276.767C491.59 277.566 487.386 257.237 487.386 257.237H459.661Z" fill="#0E538C"/>
<path d="M422.478 144.452C422.478 144.452 422.628 144.502 422.878 144.652C423.129 144.802 423.529 145.052 423.979 145.451C424.83 146.201 425.981 147.599 426.331 149.697C426.482 150.746 426.482 151.895 426.081 153.094C425.681 154.242 425.03 155.441 423.979 156.39C423.479 156.84 422.878 157.239 422.178 157.589C421.527 157.889 420.776 158.138 420.026 158.238C418.524 158.488 416.873 158.188 415.472 157.439C414.07 156.64 412.919 155.441 412.319 154.043C411.969 153.343 411.768 152.644 411.668 151.895C411.568 151.195 411.568 150.446 411.668 149.747C411.869 148.348 412.519 147.15 413.27 146.201C414.07 145.252 415.021 144.552 415.972 144.153C417.924 143.304 419.726 143.503 420.827 143.803C421.377 143.953 421.827 144.153 422.078 144.303C422.328 144.352 422.478 144.402 422.478 144.452C422.478 144.502 421.928 144.153 420.776 143.903C419.675 143.653 417.974 143.503 416.122 144.352C415.222 144.752 414.271 145.401 413.57 146.35C412.869 147.249 412.269 148.448 412.069 149.747C411.969 150.396 411.969 151.096 412.069 151.745C412.169 152.444 412.369 153.094 412.669 153.743C413.27 155.042 414.321 156.19 415.672 156.94C417.023 157.639 418.524 157.939 419.976 157.739C420.676 157.639 421.377 157.439 421.978 157.139C422.628 156.84 423.179 156.49 423.679 156.04C424.68 155.191 425.331 154.043 425.731 152.944C426.131 151.845 426.131 150.696 426.031 149.697C425.731 147.699 424.68 146.3 423.879 145.551C423.029 144.752 422.428 144.452 422.478 144.452Z" fill="#0B4870"/>
<path d="M402.009 142.954C402.009 142.954 402.16 142.954 402.46 142.954C402.76 142.954 403.21 143.004 403.761 143.154C404.862 143.453 406.513 144.203 407.765 145.901C408.365 146.75 408.866 147.799 409.066 149.048C409.266 150.246 409.166 151.645 408.615 152.944C408.365 153.593 408.015 154.242 407.564 154.792C407.114 155.391 406.563 155.891 405.913 156.29C404.662 157.189 403.06 157.639 401.459 157.589C399.858 157.539 398.306 156.94 397.105 155.991C396.505 155.541 396.004 154.992 395.604 154.342C395.203 153.743 394.853 153.094 394.653 152.444C394.202 151.096 394.202 149.747 394.503 148.548C394.753 147.349 395.353 146.301 396.004 145.501C397.355 143.903 399.057 143.254 400.158 143.004C400.708 142.904 401.159 142.854 401.509 142.904C401.859 142.954 402.009 142.954 402.009 142.954C402.009 143.004 401.359 142.954 400.258 143.204C399.157 143.453 397.555 144.103 396.304 145.701C395.704 146.5 395.153 147.499 394.903 148.648C394.653 149.797 394.653 151.096 395.103 152.344C395.303 152.994 395.604 153.593 396.004 154.142C396.404 154.692 396.855 155.241 397.455 155.691C398.556 156.59 400.058 157.139 401.559 157.189C403.06 157.239 404.562 156.79 405.763 155.991C406.363 155.591 406.864 155.092 407.314 154.542C407.765 153.993 408.115 153.393 408.315 152.794C408.815 151.595 408.916 150.296 408.765 149.098C408.615 147.949 408.115 146.9 407.564 146.051C406.413 144.402 404.862 143.603 403.761 143.304C402.66 143.004 402.009 143.004 402.009 142.954Z" fill="#0B4870"/>
<path d="M408.766 150.996C408.766 150.896 409.466 150.796 410.317 150.846C411.168 150.896 411.868 150.996 411.868 151.096C411.868 151.195 411.168 151.295 410.317 151.245C409.466 151.245 408.766 151.146 408.766 150.996Z" fill="#0B4870"/>
<path d="M425.931 151.595C425.931 151.495 427.633 151.445 429.685 151.495C431.736 151.545 433.438 151.745 433.438 151.845C433.438 151.945 431.736 151.995 429.685 151.945C427.583 151.895 425.931 151.745 425.931 151.595Z" fill="#0B4870"/>
<path d="M433.388 166.08C438.292 160.736 438.742 152.944 438.842 145.701C438.892 142.205 438.692 138.558 436.941 135.561C435.189 132.614 432.136 130.716 428.984 129.368C424.129 127.32 418.774 126.321 413.57 127.27C408.415 128.219 403.511 131.266 400.958 135.861C400.958 135.861 424.83 135.412 426.381 136.311C427.933 137.26 432.887 140.706 432.487 144.902C432.086 149.147 430.885 155.391 430.885 155.391L434.739 154.792C434.739 154.792 434.438 148.998 436.09 149.197C437.691 149.447 433.388 166.08 433.388 166.08Z" fill="#0B4870"/>
<path d="M434.488 156.241C434.688 156.89 435.389 157.339 436.09 157.339C436.79 157.339 437.441 156.99 437.991 156.54C439.142 155.641 440.043 154.392 440.243 152.944C440.444 151.495 439.793 149.947 438.542 149.198C437.291 148.448 435.439 148.798 434.688 150.047L434.488 156.241Z" fill="#FFE3CA"/>
</g>
<defs>
<clipPath id="clip0">
<rect width="559" height="489" fill="white"/>
</clipPath>
</defs>
</svg>
