<svg width="76" height="76" viewBox="0 0 76 76" fill="none" xmlns="http://www.w3.org/2000/svg">
<g clip-path="url(#clip0)">
<path d="M35.8073 56.2415C35.2356 55.822 34.4312 55.9445 34.0112 56.5164L33.8525 56.7324C33.4328 57.3039 33.555 58.107 34.1259 58.5276C34.3552 58.6966 34.6224 58.7783 34.8871 58.7783C35.2809 58.7783 35.6697 58.5978 35.9214 58.2567L36.0825 58.0377C36.5024 57.4658 36.3792 56.6616 35.8073 56.2415Z" fill="#8A8A8A"/>
<path d="M36.1427 68.4656L32.838 62.4566L35.9234 58.2543C36.3436 57.6824 36.2203 56.8781 35.6482 56.458C35.0763 56.0378 34.272 56.1612 33.8521 56.7334L30.281 61.5969C29.9849 62.0001 29.9498 62.5383 30.1907 62.9767L33.891 69.704V69.7039C34.1251 70.1292 34.5646 70.3698 35.0181 70.3698C35.2275 70.3696 35.4398 70.3184 35.6362 70.2105C36.2578 69.8686 36.4847 69.0874 36.1427 68.4656Z" fill="#8A8A8A"/>
<path d="M45.7195 61.597L42.163 56.7532C41.868 56.3516 41.3682 56.1564 40.8793 56.2532C40.3905 56.3493 40.0014 56.7195 39.8806 57.2026C39.7878 57.5737 39.8651 57.9665 40.0915 58.2748L43.1618 62.4566L39.8797 68.4248C39.7755 68.6144 39.7207 68.8282 39.7207 69.0447C39.7207 69.6312 40.1179 70.1433 40.686 70.2892C40.7924 70.3167 40.8997 70.3299 41.0057 70.3299C41.4657 70.3299 41.9017 70.0817 42.1316 69.6642L45.8096 62.977C46.0508 62.5384 46.0155 62.0002 45.7195 61.597Z" fill="#8A8A8A"/>
<path d="M47.7556 41.404C47.333 41.1821 46.822 41.2124 46.4288 41.4834C45.6645 42.01 44.9553 42.5678 44.3209 43.1412C40.8628 46.2673 37.5775 45.8443 37.4488 45.8258C37.3713 45.8137 37.2925 45.808 37.2145 45.8106C35.8479 45.8456 33.3838 44.5968 30.7771 42.5495C30.3784 42.2365 29.9696 41.9381 29.5614 41.6626C29.1677 41.3966 28.659 41.3697 28.2395 41.5928C27.8199 41.8158 27.5576 42.2522 27.5576 42.7275V47.1355C27.5576 47.5253 27.735 47.8937 28.039 48.1378C28.0749 48.1667 28.1123 48.1934 28.1509 48.2181L37.2622 54.3064C37.2637 54.3073 37.265 54.3085 37.2665 54.3095L37.2905 54.3256C37.505 54.4675 37.7522 54.5392 38.0002 54.5392C38.2089 54.5392 38.4176 54.4885 38.6084 54.3866C38.6486 54.365 38.6872 54.3414 38.7243 54.3162C38.7286 54.3134 38.7329 54.3106 38.7374 54.3076C38.7424 54.3043 38.7475 54.3009 38.7525 54.2975L47.8422 48.2236C47.8788 48.2004 47.9144 48.1755 47.9487 48.1488C48.2605 47.9053 48.4428 47.5317 48.4428 47.136V42.5417C48.4428 42.064 48.1783 41.6262 47.7556 41.404ZM45.8728 46.4482L38.0001 51.7089L30.1275 46.4481V45.2794C32.0444 46.6725 34.8643 48.3812 37.1629 48.3811C37.1676 48.3811 37.173 48.3811 37.1779 48.3811C37.9496 48.4664 41.8851 48.6984 45.8731 45.2V46.4482H45.8728Z" fill="#8A8A8A"/>
<path d="M39.2677 53.0432C39.1829 52.5336 38.801 52.1244 38.2984 52.0045C37.7955 51.8853 37.2703 52.0775 36.9645 52.494L34.0111 56.5168C33.591 57.0889 33.7142 57.8931 34.2864 58.3131C34.5155 58.4814 34.7818 58.5624 35.0458 58.5624C35.441 58.5624 35.8308 58.3806 36.0828 58.0376L39.0209 54.036C39.188 53.8175 39.2854 53.5455 39.2854 53.2549C39.2852 53.1842 39.2793 53.113 39.2677 53.0432Z" fill="#8A8A8A"/>
<path d="M57.5762 11.6186C57.5507 11.4173 56.9487 7.0731 52.8596 5.35939C52.9783 4.59642 52.9659 3.61584 52.4815 2.66183C51.8305 1.37962 50.5457 0.544068 48.6628 0.178021C48.5821 0.162286 48.5001 0.154419 48.4177 0.154419H31.1712C24.1682 0.154419 18.4707 5.85176 18.4707 12.8551V19.6225C18.4707 21.3856 19.0717 23.105 20.1627 24.4635C20.7037 25.1371 21.3698 26.3135 21.4703 28.092C21.5095 28.7864 22.0908 29.323 22.7895 29.3037C23.4848 29.2842 24.0382 28.7147 24.0382 28.0193V19.1962C24.9107 15.5878 27.8885 14.8855 28.4004 14.7907H33.979C34.6353 14.7907 35.2805 14.6905 35.8973 14.4928C36.958 14.1525 38.6409 13.5264 39.8661 13.0611C40.6858 12.7495 41.5933 12.7381 42.4211 13.029L48.3934 15.1256C51.3791 16.227 51.912 18.8481 51.978 19.2598V29.849C51.978 30.5215 52.4965 31.0795 53.1672 31.1295C53.1998 31.1319 53.2319 31.1332 53.2639 31.1332C53.8942 31.1331 54.4384 30.6713 54.5338 30.0385C54.5389 30.0054 55.0519 26.6912 56.7064 24.0378C57.282 23.114 57.5864 22.0609 57.5864 20.9921V11.7808C57.5864 11.7266 57.583 11.6725 57.5762 11.6186ZM55.0164 20.9915C55.0164 21.5655 54.8544 22.1349 54.5478 22.6413V19.172C54.5478 19.1255 54.5452 19.0793 54.5402 19.0332C54.52 18.8466 53.989 14.443 49.271 12.7099C49.2652 12.7078 49.2594 12.7057 49.2536 12.7036L43.2723 10.6038C42.5979 10.3671 41.8924 10.2489 41.1873 10.2489C40.4291 10.2489 39.6713 10.3856 38.9533 10.6588C37.238 11.3104 35.9096 11.79 35.1124 12.0456C34.7497 12.1618 34.3684 12.2209 33.9789 12.2209H28.2965C28.2415 12.2209 28.1863 12.2245 28.1315 12.2315C27.914 12.2597 22.7889 12.9885 21.4991 18.7694C21.4786 18.8613 21.4683 18.9551 21.4683 19.0492V21.6938C21.1885 21.0472 21.0403 20.3409 21.0403 19.6226V12.8553C21.0403 7.26934 25.585 2.72462 31.1709 2.72462H48.288C48.9966 2.87558 49.8579 3.18537 50.1846 3.81564C50.5846 4.58707 50.1289 5.64929 50.1285 5.65018C49.9642 5.99975 49.9661 6.40454 50.1331 6.75263C50.3002 7.10071 50.6152 7.35514 50.9908 7.44554C54.262 8.233 54.9293 11.3705 55.0162 11.878V20.9915H55.0164Z" fill="#8A8A8A"/>
<path d="M54.5403 19.0332C54.5202 18.8466 53.9892 14.443 49.2711 12.7099C49.2653 12.7078 49.2595 12.7057 49.2537 12.7037L43.2724 10.6039C41.8727 10.1125 40.339 10.1321 38.9533 10.6585C37.238 11.3101 35.9096 11.7897 35.1124 12.0455C34.7497 12.1617 34.3684 12.2206 33.9789 12.2206H28.2965C28.2415 12.2206 28.1863 12.2242 28.1315 12.2312C27.914 12.2594 22.7889 12.9882 21.4991 18.7691C21.4787 18.861 21.4683 18.9548 21.4683 19.0489V30.0951C21.4683 30.1046 21.4684 30.1141 21.4686 30.1236C21.477 30.5073 21.7485 39.569 28.0096 43.7132L28.042 43.7361C28.0688 43.7551 28.0957 43.7741 28.1238 43.7929C28.4808 44.034 28.8392 44.2957 29.1898 44.5709C31.0139 46.0031 34.4512 48.3813 37.1629 48.3813C37.1679 48.3813 37.1727 48.3813 37.1779 48.3813C37.3251 48.3974 37.588 48.4191 37.9446 48.4191C39.4813 48.4191 42.76 48.0164 46.0441 45.0477C46.5952 44.5496 47.2149 44.0625 47.8868 43.5996L47.9828 43.5324C48.0141 43.5103 48.0455 43.488 48.0778 43.4663C50.1663 42.0636 53.7835 38.4441 54.5429 29.9633C54.5463 29.9253 54.5481 29.8868 54.5481 29.8485V19.172C54.5479 19.1257 54.5452 19.0795 54.5403 19.0332ZM51.9779 29.7905C51.2777 37.4442 48.0167 40.4113 46.6448 41.3327C46.5961 41.3655 46.548 41.3993 46.4999 41.4332L46.4287 41.4834C45.6644 42.0099 44.9551 42.5677 44.3207 43.1411C40.8756 46.2556 37.6009 45.8471 37.4403 45.8246C37.3657 45.8134 37.2899 45.8087 37.2144 45.8108C35.8477 45.8458 33.3837 44.597 30.7769 42.5497C30.3782 42.2365 29.9694 41.9382 29.5618 41.6631L29.5302 41.6409C29.4993 41.6189 29.4686 41.5971 29.4324 41.573C24.3799 38.2289 24.0493 30.4031 24.0382 30.0765V19.196C24.9138 15.5744 27.91 14.8802 28.3984 14.7905H33.979C34.6353 14.7905 35.2805 14.6903 35.8973 14.4926C36.958 14.1524 38.641 13.5263 39.8661 13.0609C40.6858 12.7494 41.5933 12.7379 42.4211 13.0289L48.3934 15.1254C51.3791 16.2268 51.912 18.8479 51.978 19.2597V29.7905H51.9779Z" fill="#8A8A8A"/>
<path d="M39.1491 52.6802C38.9489 52.2797 38.5546 52.0124 38.1086 51.9744C37.6633 51.9376 37.229 52.1333 36.964 52.4944L33.886 56.6865C33.4664 57.2583 33.589 58.062 34.1603 58.4822C34.3895 58.6508 34.6562 58.7323 34.9206 58.7323C35.3148 58.7323 35.7041 58.5514 35.956 58.2095L39.0341 54.0328C39.1969 53.8119 39.2848 53.5296 39.2848 53.2552C39.285 53.0559 39.2382 52.8588 39.1491 52.6802Z" fill="#8A8A8A"/>
<path d="M39.2318 73.3692C38.7491 72.8644 37.9516 72.8375 37.4362 73.3091L37.1424 73.5778C36.7026 73.9799 36.5971 74.6318 36.8877 75.1523L36.8968 75.1685C37.093 75.5201 37.443 75.7594 37.8419 75.8148C37.9009 75.8229 37.96 75.8269 38.0188 75.8269C38.3571 75.8269 38.6847 75.6932 38.9274 75.4505L39.2119 75.1656C39.7058 74.6718 39.7147 73.8738 39.2318 73.3692Z" fill="#8A8A8A"/>
<path d="M38.858 73.5778L38.5643 73.3091C38.0489 72.8377 37.2512 72.8646 36.7685 73.3692C36.2856 73.8742 36.2945 74.6724 36.7885 75.1661L37.0735 75.4509C37.3162 75.6936 37.6437 75.8272 37.982 75.8272C38.0424 75.8272 38.1031 75.8231 38.1638 75.8143C38.564 75.7572 38.914 75.5148 39.1086 75.1603L39.1177 75.1441C39.4024 74.6246 39.2952 73.9775 38.858 73.5778Z" fill="#8A8A8A"/>
<path d="M38.8797 73.5977L38.8781 73.5963C38.6796 73.4107 38.4229 73.2884 38.1402 73.2574C37.7615 73.2161 37.3926 73.3444 37.1244 73.5942L37.1206 73.5977C36.8608 73.8347 36.7095 74.1679 36.702 74.5194C36.6944 74.8712 36.8312 75.2104 37.0805 75.4583L37.094 75.4718C37.3447 75.721 37.6723 75.8455 38 75.8455C38.329 75.8455 38.6578 75.72 38.9085 75.4694L38.922 75.4559C39.1702 75.2076 39.3061 74.8687 39.298 74.5178C39.2903 74.1667 39.139 73.8344 38.8797 73.5977Z" fill="#8A8A8A"/>
<path d="M38.417 52.0109C37.8849 51.8405 37.3009 52.0381 36.9769 52.4938C36.6144 53.0041 36.6742 53.6996 37.1158 54.1432C37.3643 54.3929 37.6941 54.5209 38.0265 54.5209C38.2846 54.5209 38.5441 54.4437 38.7679 54.286C39.1099 54.0454 39.3134 53.6536 39.3134 53.2353V53.2321C39.3134 52.673 38.9498 52.1809 38.417 52.0109Z" fill="#8A8A8A"/>
<path d="M39.0445 52.4833L39.0335 52.4685C38.7038 52.0223 38.1249 51.8385 37.5981 52.012C37.0713 52.1855 36.7153 52.6778 36.7153 53.2323V53.2543C36.7153 53.7274 36.9809 54.1586 37.3977 54.3824C37.5865 54.4838 37.7949 54.5338 38.003 54.5338C38.254 54.5338 38.5048 54.4611 38.7203 54.3183C39.0141 54.1239 39.2152 53.8172 39.2765 53.4703C39.3378 53.1235 39.2539 52.7665 39.0445 52.4833Z" fill="#8A8A8A"/>
<path d="M53.2857 48.4467C53.1525 48.0947 52.8718 47.8189 52.5177 47.6922L47.5909 45.926C47.5509 45.9118 47.5095 45.899 47.4683 45.8889C47.1166 45.8009 46.744 45.8655 46.4427 46.0671L37.3141 52.167C37.3117 52.1686 37.309 52.1702 37.3065 52.172L38.0233 53.2378L37.2905 52.1828C37.0227 52.3599 36.8309 52.6314 36.7531 52.9428C36.7104 53.1138 36.7034 53.2924 36.7323 53.4662C36.7654 53.6648 36.8447 53.8531 36.9641 54.0156L43.6475 63.118C43.8903 63.449 44.2757 63.6425 44.683 63.6425C44.7109 63.6425 44.7389 63.6415 44.767 63.6396C45.2047 63.6108 45.5976 63.3611 45.809 62.9765L53.2097 49.5209C53.3912 49.1911 53.419 48.7983 53.2857 48.4467ZM44.5274 59.9742L39.8301 53.5765L47.3324 48.5633L50.2319 49.6028L44.5274 59.9742Z" fill="#8A8A8A"/>
<path d="M39.2659 53.033C39.2055 52.6881 39.007 52.3827 38.7161 52.1875L29.5571 46.0673C29.2655 45.8722 28.9062 45.8054 28.5637 45.8814C28.5112 45.893 28.4595 45.9082 28.4089 45.9263L23.4821 47.6924C23.1279 47.8193 22.8472 48.0951 22.7141 48.4469C22.5809 48.7988 22.6085 49.1913 22.7899 49.5211L30.1906 62.9767C30.402 63.3612 30.7949 63.611 31.2326 63.6398C31.2605 63.6416 31.2886 63.6425 31.3165 63.6425C31.7238 63.6425 32.109 63.4489 32.3523 63.1177L35.9234 58.2542C35.9262 58.2505 35.929 58.2465 35.9319 58.2425L39.0358 54.0148C39.2431 53.7325 39.3262 53.378 39.2659 53.033ZM33.8521 56.7327C33.849 56.7368 33.846 56.741 33.8429 56.7452L31.4719 59.9744L25.7674 49.6029L28.667 48.5636L36.1692 53.5768L33.8521 56.7327Z" fill="#8A8A8A"/>
<path d="M75.9366 70.3825L74.279 60.3729C73.7566 57.2184 71.5644 54.5829 68.5576 53.4955L52.5213 47.6936C52.0268 47.5149 51.4742 47.655 51.1248 48.0472C50.7753 48.4395 50.6998 49.0051 50.9343 49.4755L54.2825 56.1899L50.9971 56.2405C50.5511 56.2475 50.1403 56.485 49.9125 56.8686C49.6845 57.2521 49.6717 57.7262 49.8786 58.1215L51.2262 60.6944L37.4358 73.3097C37.4217 73.3226 37.4079 73.3357 37.3944 73.3492L37.1097 73.6339C36.7064 74.0373 36.6172 74.6584 36.8911 75.1589L36.9012 75.1772C37.1266 75.5891 37.5589 75.8454 38.0285 75.8454H71.304C72.6864 75.8454 73.9918 75.2409 74.8855 74.1867C75.7794 73.1324 76.1625 71.7457 75.9366 70.3825ZM72.9258 72.5246C72.5209 73.002 71.9298 73.2757 71.3042 73.2757H41.2802L53.6913 61.9226C54.1217 61.5291 54.2331 60.8951 53.9623 60.3784L53.1239 58.7778L56.3637 58.7279C56.8053 58.7212 57.2122 58.488 57.4418 58.1108C57.6712 57.7334 57.6909 57.2649 57.4939 56.8696L54.6681 51.2028L67.684 55.9117C69.8178 56.6836 71.3736 58.5539 71.7443 60.7925L73.4019 70.8021C73.4019 70.8023 73.4019 70.8023 73.4019 70.8023C73.504 71.4196 73.3306 72.0472 72.9258 72.5246Z" fill="#8A8A8A"/>
<path d="M38.8904 73.6081L38.8754 73.5946C38.3669 73.1342 37.5858 73.1546 37.1019 73.6412L37.0885 73.6547C36.7226 74.0229 36.6141 74.575 36.8133 75.0542C37.0127 75.5335 37.4809 75.8457 37.9998 75.8457H38.028C38.5593 75.8457 39.0359 75.5185 39.2268 75.0229C39.4181 74.5269 39.2844 73.9647 38.8904 73.6081Z" fill="#8A8A8A"/>
<path d="M38.8503 73.5709C38.5586 73.3084 38.163 73.1933 37.7756 73.2594C37.3886 73.3248 37.0529 73.564 36.864 73.908L36.8551 73.9242C36.5842 74.4181 36.6666 75.0308 37.0584 75.4358L37.063 75.4405C37.3147 75.7007 37.6502 75.8319 37.9865 75.8319C38.296 75.8319 38.6064 75.7206 38.8522 75.496L38.8657 75.4839C38.9824 75.3776 39.0786 75.2502 39.1493 75.1089C39.408 74.5919 39.28 73.9575 38.8503 73.5709Z" fill="#8A8A8A"/>
<path d="M38.9059 73.6495L38.9005 73.644C38.8971 73.6406 38.8936 73.637 38.8903 73.6338L38.6053 73.349C38.5919 73.3355 38.5781 73.3223 38.5642 73.3097L24.7739 60.6944L26.1215 58.1216C26.3286 57.7264 26.3157 57.2522 26.0878 56.8686C25.8598 56.4852 25.4492 56.2475 25.0032 56.2406L21.7175 56.1899L25.0657 49.4755C25.3002 49.0052 25.2245 48.4396 24.8752 48.0472C24.526 47.6549 23.9726 47.5146 23.4787 47.6936L7.44255 53.4955C4.4358 54.5828 2.24337 57.2183 1.72102 60.3729L0.0634127 70.3825C-0.162361 71.7464 0.220905 73.1328 1.1148 74.1868C2.00884 75.2409 3.31435 75.8455 4.6963 75.8455H38.0001C38.5205 75.8455 38.9894 75.5315 39.1878 75.0506C39.3862 74.5697 39.2749 74.0163 38.9059 73.6495ZM4.69645 73.2757C4.07064 73.2757 3.47956 73.002 3.07492 72.5246C2.67028 72.0474 2.4969 71.4197 2.59903 70.8022L4.25663 60.7925C4.62728 58.5537 6.18306 56.6836 8.31685 55.9118L21.3326 51.2029L18.507 56.8693C18.3098 57.2646 18.3294 57.7331 18.5591 58.1106C18.7884 58.4879 19.1956 58.7209 19.6372 58.7276L22.877 58.7776L22.0386 60.3783C21.768 60.8948 21.8793 61.5289 22.3095 61.9225L34.7205 73.2757H4.69645Z" fill="#8A8A8A"/>
<path d="M42.3734 57.825C42.4662 57.4539 42.3888 57.061 42.1625 56.7527L39.0355 52.4942C38.7068 52.0465 38.1273 51.8685 37.5998 52.0416C37.3149 52.135 37.0803 52.3235 36.9241 52.5644L33.8543 56.7297C33.8103 56.7891 33.7713 56.8529 33.7382 56.9191C33.5278 57.3399 33.5642 57.8419 33.8329 58.228L35.1402 60.1053L33.7475 68.8835C33.7028 69.1654 33.7533 69.4539 33.8908 69.7041L36.8741 75.1281C37.0998 75.5388 37.5315 75.7939 38 75.7939C38.4686 75.7939 38.9001 75.5388 39.1259 75.1281L42.1314 69.6638C42.2356 69.4741 42.2904 69.2611 42.2904 69.0447V69.0439C42.2904 68.9766 42.2849 68.9092 42.2745 68.8425L40.8883 60.1055L42.1815 58.2488C42.2702 58.1203 42.3357 57.9764 42.3734 57.825ZM38 71.8427L36.3545 68.8513L37.7594 59.9971C37.8115 59.6691 37.7344 59.3339 37.5447 59.0615L36.4679 57.5151L38.0037 55.4313L39.5474 57.5338L38.4836 59.0615C38.2939 59.3337 38.217 59.6691 38.2689 59.9971L39.6674 68.8109L38 71.8427Z" fill="#8A8A8A"/>
</g>
<defs>
<clipPath id="clip0">
<rect width="76" height="76" fill="white"/>
</clipPath>
</defs>
</svg>
