<svg width="80" height="80" viewBox="0 0 80 80" fill="none" xmlns="http://www.w3.org/2000/svg">
<path d="M39.2766 56.8108C39.0473 56.8107 38.8239 56.7376 38.6388 56.6021L29.6366 50.0227C29.4809 49.9084 29.3587 49.7544 29.2826 49.5768C29.2066 49.3993 29.1795 49.2045 29.2042 49.013L29.7934 44.3957C29.8297 44.1112 29.9774 43.8529 30.2042 43.6774C30.431 43.5019 30.7181 43.4237 31.0026 43.46C31.287 43.4962 31.5454 43.644 31.7208 43.8708C31.8963 44.0976 31.9745 44.3847 31.9382 44.6692L31.4291 48.654L39.2788 54.3913L47.135 48.654L46.6226 44.654C46.5862 44.3696 46.6642 44.0824 46.8396 43.8555C47.015 43.6286 47.2733 43.4807 47.5577 43.4443C47.8421 43.4079 48.1294 43.486 48.3562 43.6613C48.5831 43.8367 48.731 44.095 48.7674 44.3794L49.361 49.0097C49.3857 49.2013 49.3586 49.396 49.2825 49.5736C49.2065 49.7512 49.0842 49.9051 48.9285 50.0194L39.922 56.6C39.7351 56.7377 39.5088 56.8117 39.2766 56.8108Z" fill="#8A8A8A"/>
<path d="M24.2809 36.2714C24.2571 36.2714 24.2333 36.2714 24.2106 36.2714C23.2798 36.178 22.3651 35.964 21.4895 35.6346C20.5515 35.3558 19.7015 34.8392 19.022 34.1349C18.3425 33.4306 17.8567 32.5626 17.6117 31.6152C17.3004 30.2418 17.4961 28.8021 18.1626 27.5616C18.8292 26.3211 19.9217 25.3634 21.2387 24.8649C21.4534 24.7886 21.673 24.7268 21.896 24.68C22.0356 24.6463 22.1806 24.6407 22.3224 24.6636C22.4642 24.6865 22.6 24.7375 22.7219 24.8135C22.8438 24.8894 22.9493 24.989 23.0323 25.1062C23.1153 25.2234 23.1741 25.356 23.2052 25.4962C23.2364 25.6364 23.2393 25.7815 23.2138 25.9228C23.1883 26.0642 23.1349 26.199 23.0567 26.3195C22.9785 26.44 22.8771 26.5437 22.7583 26.6245C22.6396 26.7053 22.506 26.7617 22.3652 26.7903C22.2265 26.82 22.0897 26.8579 21.9555 26.9038C21.1434 27.2381 20.4748 27.8476 20.067 28.6254C19.6592 29.4032 19.5382 30.2998 19.7252 31.1579C19.8862 31.7268 20.1887 32.2457 20.6047 32.666C21.0206 33.0863 21.5363 33.3942 22.1036 33.5611C22.1425 33.5719 22.1825 33.5849 22.2193 33.5989C22.9066 33.8597 23.6239 34.0333 24.3544 34.1157C24.6411 34.1247 24.9125 34.2473 25.1089 34.4564C25.3052 34.6656 25.4105 34.9441 25.4014 35.2308C25.3924 35.5176 25.2698 35.7889 25.0607 35.9853C24.8516 36.1817 24.573 36.2869 24.2863 36.2779L24.2809 36.2714Z" fill="#8A8A8A"/>
<path d="M54.2705 36.2714C53.9837 36.2804 53.7052 36.1752 53.496 35.9788C53.2869 35.7825 53.1644 35.5111 53.1553 35.2243C53.1463 34.9376 53.2515 34.6591 53.4479 34.4499C53.6442 34.2408 53.9156 34.1182 54.2024 34.1092C54.9329 34.027 55.6502 33.8533 56.3375 33.5925C56.3742 33.5784 56.4153 33.5654 56.4542 33.5546C57.0205 33.3871 57.535 33.0788 57.9498 32.6585C58.3645 32.2383 58.6661 31.7197 58.8261 31.1514C59.0129 30.3027 58.8976 29.4155 58.5001 28.6429C58.1026 27.8702 57.4478 27.2605 56.6488 26.9189C56.5797 26.8952 56.4964 26.866 56.3656 26.8314C56.2284 26.7948 56.0997 26.7316 55.9869 26.6453C55.8742 26.559 55.7795 26.4514 55.7083 26.3285C55.6371 26.2056 55.5908 26.0699 55.5721 25.9292C55.5534 25.7884 55.5626 25.6453 55.5991 25.5081C55.6357 25.3709 55.6989 25.2423 55.7852 25.1295C55.8715 25.0167 55.9791 24.922 56.102 24.8508C56.2249 24.7797 56.3605 24.7334 56.5013 24.7147C56.6421 24.6959 56.7851 24.7051 56.9224 24.7416C57.1991 24.8162 57.3602 24.8779 57.3602 24.8779C60.2499 25.7935 61.4834 29.0941 60.9375 31.613C60.6928 32.5607 60.2072 33.4291 59.5276 34.1336C58.8481 34.8381 57.9979 35.3548 57.0596 35.6335C56.1845 35.9629 55.2701 36.177 54.3396 36.2703C54.3191 36.2714 54.2953 36.2714 54.2705 36.2714Z" fill="#8A8A8A"/>
<path d="M69.2248 76.3557H9.32864C9.04192 76.3557 8.76694 76.2418 8.5642 76.039C8.36146 75.8363 8.24756 75.5613 8.24756 75.2746V67.7287C8.24756 58.7665 14.4854 50.7557 22.76 49.0843L26.2367 48.5189C26.5199 48.4731 26.8096 48.5415 27.0423 48.7093C27.2749 48.8771 27.4314 49.1304 27.4773 49.4135C27.5232 49.6967 27.4547 49.9864 27.2869 50.2191C27.1191 50.4517 26.8658 50.6082 26.5827 50.6541L23.1459 51.2119C15.9027 52.6714 10.4097 59.7751 10.4097 67.7287V74.1935H68.1394V67.7287C68.1394 59.8076 62.6086 52.7211 55.2746 51.2433L51.9503 50.6508C51.8105 50.6259 51.677 50.5737 51.5574 50.4972C51.4378 50.4207 51.3344 50.3214 51.2532 50.2049C51.172 50.0885 51.1145 49.9572 51.0841 49.8185C51.0536 49.6798 51.0507 49.5365 51.0757 49.3968C51.1006 49.257 51.1528 49.1235 51.2293 49.0039C51.3058 48.8843 51.4051 48.781 51.5216 48.6997C51.638 48.6185 51.7693 48.5611 51.908 48.5306C52.0466 48.5001 52.1899 48.4973 52.3297 48.5222L55.6811 49.12C64.0281 50.8 70.3048 58.7989 70.3048 67.7287V75.2746C70.3048 75.5611 70.1911 75.836 69.9886 76.0387C69.7861 76.2414 69.5114 76.3554 69.2248 76.3557Z" fill="#8A8A8A"/>
<path d="M39.2638 49.0811C36.9767 49.0854 34.7349 48.4435 32.7967 47.2292C28.2562 44.4184 22.8335 39.4778 22.8335 31.9708V28.547C22.8335 28.2603 22.9474 27.9853 23.1501 27.7826C23.3529 27.5798 23.6279 27.4659 23.9146 27.4659C24.2013 27.4659 24.4763 27.5798 24.679 27.7826C24.8818 27.9853 24.9957 28.2603 24.9957 28.547V31.9686C24.9957 38.4811 29.8605 42.8627 33.9427 45.3935C35.5408 46.3895 37.3861 46.9175 39.2692 46.9175C41.1522 46.9175 42.9976 46.3895 44.5957 45.3935C48.6854 42.8573 53.5578 38.4746 53.5578 31.9665V28.547C53.5578 28.2603 53.6717 27.9853 53.8745 27.7826C54.0772 27.5798 54.3522 27.4659 54.6389 27.4659C54.9256 27.4659 55.2006 27.5798 55.4033 27.7826C55.6061 27.9853 55.72 28.2603 55.72 28.547V31.9686C55.72 39.4681 50.293 44.4076 45.7394 47.2313C43.7968 48.4425 41.553 49.0834 39.2638 49.0811Z" fill="#8A8A8A"/>
<path d="M44.5137 60.1081C44.3101 60.1082 44.1107 60.0505 43.9386 59.9416L38.7029 56.64C38.5536 56.5459 38.4296 56.4167 38.3418 56.2637C38.2539 56.1106 38.2048 55.9384 38.1989 55.762C38.1929 55.5856 38.2302 55.4105 38.3075 55.2518C38.3848 55.0932 38.4998 54.9559 38.6424 54.8519L47.6478 48.2897C47.8429 48.1451 48.0819 48.0721 48.3245 48.0833C49.6604 48.1502 50.9913 48.2946 52.3105 48.5157C52.4984 48.5445 52.6754 48.6224 52.8236 48.7415C52.9718 48.8606 53.086 49.0167 53.1546 49.194C53.2232 49.3713 53.2439 49.5635 53.2145 49.7513C53.1851 49.9392 53.1067 50.1159 52.9872 50.2638L45.3548 59.7081C45.2533 59.8333 45.1251 59.9341 44.9795 60.0033C44.834 60.0726 44.6749 60.1084 44.5137 60.1081ZM41.2013 55.6584L44.278 57.6043L50.1029 50.3957C49.6121 50.3384 49.117 50.2876 48.6121 50.2638L41.2013 55.6584Z" fill="#8A8A8A"/>
<path d="M34.0398 60.1081C33.8784 60.1081 33.7192 60.072 33.5736 60.0024C33.4281 59.9328 33.3 59.8315 33.1987 59.706L25.5684 50.2703C25.4489 50.1224 25.3705 49.9457 25.3411 49.7578C25.3117 49.57 25.3324 49.3777 25.401 49.2004C25.4697 49.0232 25.5839 48.8671 25.7321 48.748C25.8803 48.6289 26.0572 48.551 26.2452 48.5222C27.564 48.3012 28.8945 48.1568 30.23 48.0898C30.4726 48.0792 30.7114 48.152 30.9068 48.2962L39.9133 54.8584C40.0559 54.9624 40.1708 55.0997 40.2481 55.2583C40.3255 55.417 40.3627 55.5921 40.3568 55.7685C40.3508 55.9449 40.3017 56.1171 40.2139 56.2702C40.126 56.4232 40.002 56.5524 39.8527 56.6465L34.616 59.9438C34.4432 60.0518 34.2435 60.1087 34.0398 60.1081ZM28.4506 50.3914L34.2754 57.6L37.3522 55.6541L29.9457 50.2616C29.4365 50.2898 28.9414 50.3362 28.4506 50.3935V50.3914Z" fill="#8A8A8A"/>
<path d="M20.855 76.3557C20.5683 76.3557 20.2933 76.2418 20.0906 76.0391C19.8878 75.8363 19.7739 75.5614 19.7739 75.2746V65.0692C19.7739 64.7825 19.8878 64.5075 20.0906 64.3048C20.2933 64.1021 20.5683 63.9882 20.855 63.9882C21.1417 63.9882 21.4167 64.1021 21.6194 64.3048C21.8222 64.5075 21.9361 64.7825 21.9361 65.0692V75.2746C21.9361 75.5614 21.8222 75.8363 21.6194 76.0391C21.4167 76.2418 21.1417 76.3557 20.855 76.3557Z" fill="#8A8A8A"/>
<path d="M57.6973 76.3557C57.4106 76.3557 57.1356 76.2418 56.9329 76.0391C56.7301 75.8363 56.6162 75.5614 56.6162 75.2746V65.0692C56.6162 64.7825 56.7301 64.5075 56.9329 64.3048C57.1356 64.1021 57.4106 63.9882 57.6973 63.9882C57.984 63.9882 58.259 64.1021 58.4617 64.3048C58.6645 64.5075 58.7784 64.7825 58.7784 65.0692V75.2746C58.7784 75.5614 58.6645 75.8363 58.4617 76.0391C58.259 76.2418 57.984 76.3557 57.6973 76.3557Z" fill="#8A8A8A"/>
<path d="M23.9674 34.0962C23.7414 34.0958 23.5211 34.0246 23.3377 33.8925C23.1542 33.7605 23.0168 33.5742 22.9447 33.36C21.0498 27.4071 20.076 21.1996 20.0571 14.9524C20.136 12.4332 21.1068 10.0237 22.7966 8.15351C24.4347 6.40089 26.3163 4.89286 28.3836 3.67567C30.2924 2.42285 32.4014 1.5055 34.6193 0.963242C37.0742 0.531699 39.5917 0.610082 42.015 1.19351C43.9885 1.57887 45.7503 2.67956 46.962 4.28432C47.9667 3.61079 49.144 3.24074 50.3533 3.21838C52.0736 3.00975 53.8164 3.33619 55.3446 4.15327C56.8727 4.97035 58.112 6.23839 58.8939 7.78486C58.9025 7.79892 58.9101 7.81297 58.9177 7.82703C60.3161 10.3268 60.6993 13.2687 59.9879 16.0432C59.7837 16.6445 59.5443 17.2332 59.2712 17.8065C58.9025 18.5242 58.6306 19.2876 58.4625 20.0768C58.4463 20.4466 58.3989 20.8144 58.3209 21.1762C58.2655 21.4213 58.2293 21.6703 58.2128 21.9211C58.0209 25.3063 57.215 28.6285 55.8344 31.7254C55.575 32.3654 55.3512 32.9146 55.2571 33.2692C55.197 33.5069 55.0565 33.7164 54.8594 33.8622C54.6624 34.008 54.4209 34.0812 54.176 34.0692C53.9328 34.0614 53.6993 33.9718 53.5133 33.8149C53.3273 33.6579 53.1997 33.4428 53.1512 33.2043C52.7461 30.1017 52.5111 26.9792 52.4474 23.8508V23.8032C52.1989 21.254 51.0067 18.8896 49.1049 17.1739C47.203 15.4583 44.7287 14.5152 42.1674 14.5297C41.8247 14.5524 41.4647 14.5297 41.1144 14.5395H40.9728C38.4746 14.4207 35.9721 14.6477 33.536 15.2141C32.5739 15.4011 27.9588 16.5114 26.7252 21.0681C26.3728 22.1395 25.509 29.0313 25.042 33.1362C25.0143 33.3807 24.9041 33.6084 24.7296 33.7817C24.5551 33.9551 24.3266 34.0637 24.082 34.0897C24.0439 34.094 24.0057 34.0962 23.9674 34.0962ZM42.1685 12.3665C45.2713 12.3561 48.2661 13.5049 50.5659 15.5878C52.8658 17.6706 54.3048 20.5373 54.6009 23.6259C54.6009 23.6692 54.6128 23.8216 54.6117 23.8649C54.5923 24.3686 54.6874 26.3124 54.8279 28.2876C55.5508 26.2142 55.9646 24.0457 56.056 21.8519C56.0749 21.4909 56.1219 21.132 56.1966 20.7784C56.2554 20.5204 56.2916 20.2578 56.3047 19.9935C56.3045 19.9443 56.3081 19.8951 56.3155 19.8465C56.4995 18.8258 56.8332 17.8378 57.3058 16.9146C57.5418 16.4224 57.7493 15.9171 57.9274 15.4011C58.4673 13.1717 58.1372 10.8204 57.0042 8.82594C56.4185 7.64039 55.4748 6.6691 54.3066 6.04959C53.1384 5.43008 51.8049 5.19375 50.495 5.37405C49.4258 5.43351 48.1804 5.75892 47.8323 6.49621C47.7477 6.67509 47.6157 6.82733 47.4507 6.93637C47.2856 7.0454 47.0937 7.10705 46.896 7.11459C46.6992 7.12036 46.5044 7.07325 46.332 6.97819C46.1595 6.88312 46.0157 6.74357 45.9155 6.57405C45.4652 5.76291 44.8508 5.05453 44.1114 4.49407C43.3721 3.93361 42.5241 3.53338 41.6215 3.31892C39.4744 2.79241 37.2422 2.7111 35.0625 3.08C33.091 3.57303 31.2171 4.39579 29.5198 5.51351C27.6404 6.61741 25.9275 7.98277 24.4323 9.56865C23.0855 11.0397 22.3018 12.9392 22.2193 14.9319C22.2675 19.1168 22.7157 23.2874 23.5577 27.387C23.8035 25.0561 24.1701 22.7394 24.656 20.4465C25.2355 18.5583 26.3316 16.8698 27.8204 15.5718C29.3092 14.2739 31.1313 13.4182 33.0809 13.1016C35.6661 12.5008 38.3214 12.2571 40.9728 12.3773H41.1025C41.4442 12.3719 41.8377 12.3762 42.1685 12.3676V12.3665Z" fill="#8A8A8A"/>
</svg>
