<svg width="41" height="55" viewBox="0 0 41 55" fill="none" xmlns="http://www.w3.org/2000/svg">
<path d="M2.5625 55H38.4375C39.8503 55 41 53.8433 41 52.4219V16.3281C41 16.2989 40.9863 16.2748 40.9846 16.2473C40.9812 16.2078 40.971 16.1734 40.9624 16.1356C40.9356 16.0162 40.8831 15.9042 40.8087 15.8073C40.7967 15.7919 40.7984 15.773 40.7865 15.7575L27.1198 0.28875C27.1147 0.283594 27.1078 0.283594 27.1027 0.278437C26.9985 0.168799 26.8669 0.0892702 26.7218 0.048125C26.6893 0.0378125 26.6603 0.034375 26.6261 0.0292188C26.5765 0.020625 26.5304 0 26.4792 0H2.5625C1.14971 0 0 1.15672 0 2.57812V52.4219C0 53.8433 1.14971 55 2.5625 55ZM27.3333 3.11953L38.2445 15.4688H28.1875C27.8117 15.4688 27.3333 14.7469 27.3333 14.1797V3.11953ZM1.70833 2.57812C1.70833 2.3502 1.79833 2.13162 1.95851 1.97046C2.1187 1.80929 2.33596 1.71875 2.5625 1.71875H25.625V14.1797C25.625 15.5702 26.744 17.1875 28.1875 17.1875H39.2917V52.4219C39.2917 52.6498 39.2017 52.8684 39.0415 53.0295C38.8813 53.1907 38.664 53.2812 38.4375 53.2812H2.5625C2.08417 53.2812 1.70833 52.9031 1.70833 52.4219V2.57812Z" fill="#A3A3A3"/>
<path d="M9.39567 24.0625H31.604C31.8305 24.0625 32.0478 23.972 32.208 23.8108C32.3682 23.6496 32.4582 23.431 32.4582 23.2031C32.4582 22.9752 32.3682 22.7566 32.208 22.5955C32.0478 22.4343 31.8305 22.3438 31.604 22.3438H9.39567C9.16913 22.3438 8.95187 22.4343 8.79168 22.5955C8.6315 22.7566 8.5415 22.9752 8.5415 23.2031C8.5415 23.431 8.6315 23.6496 8.79168 23.8108C8.95187 23.972 9.16913 24.0625 9.39567 24.0625Z" fill="#A3A3A3"/>
<path d="M9.39567 30.9375H31.604C31.8305 30.9375 32.0478 30.847 32.208 30.6858C32.3682 30.5246 32.4582 30.306 32.4582 30.0781C32.4582 29.8502 32.3682 29.6316 32.208 29.4705C32.0478 29.3093 31.8305 29.2188 31.604 29.2188H9.39567C9.16913 29.2188 8.95187 29.3093 8.79168 29.4705C8.6315 29.6316 8.5415 29.8502 8.5415 30.0781C8.5415 30.306 8.6315 30.5246 8.79168 30.6858C8.95187 30.847 9.16913 30.9375 9.39567 30.9375Z" fill="#A3A3A3"/>
<path d="M9.39567 17.1875H19.6457C19.8722 17.1875 20.0895 17.097 20.2497 16.9358C20.4098 16.7746 20.4998 16.556 20.4998 16.3281C20.4998 16.1002 20.4098 15.8816 20.2497 15.7205C20.0895 15.5593 19.8722 15.4688 19.6457 15.4688H9.39567C9.16913 15.4688 8.95187 15.5593 8.79168 15.7205C8.6315 15.8816 8.5415 16.1002 8.5415 16.3281C8.5415 16.556 8.6315 16.7746 8.79168 16.9358C8.95187 17.097 9.16913 17.1875 9.39567 17.1875Z" fill="#A3A3A3"/>
<path d="M9.39567 37.8125H31.604C31.8305 37.8125 32.0478 37.722 32.208 37.5608C32.3682 37.3996 32.4582 37.181 32.4582 36.9531C32.4582 36.7252 32.3682 36.5066 32.208 36.3455C32.0478 36.1843 31.8305 36.0938 31.604 36.0938H9.39567C9.16913 36.0938 8.95187 36.1843 8.79168 36.3455C8.6315 36.5066 8.5415 36.7252 8.5415 36.9531C8.5415 37.181 8.6315 37.3996 8.79168 37.5608C8.95187 37.722 9.16913 37.8125 9.39567 37.8125Z" fill="#A3A3A3"/>
<path d="M9.39567 44.6875H31.604C31.8305 44.6875 32.0478 44.597 32.208 44.4358C32.3682 44.2746 32.4582 44.056 32.4582 43.8281C32.4582 43.6002 32.3682 43.3816 32.208 43.2205C32.0478 43.0593 31.8305 42.9688 31.604 42.9688H9.39567C9.16913 42.9688 8.95187 43.0593 8.79168 43.2205C8.6315 43.3816 8.5415 43.6002 8.5415 43.8281C8.5415 44.056 8.6315 44.2746 8.79168 44.4358C8.95187 44.597 9.16913 44.6875 9.39567 44.6875Z" fill="#A3A3A3"/>
</svg>
