<svg width="366" height="441" viewBox="0 0 366 441" fill="none" xmlns="http://www.w3.org/2000/svg">
<path d="M276.998 55.5595L285.125 60.3245C285.082 59.9346 285.037 59.5883 285.037 59.2416V56.8592C285.037 52.6139 287.977 50.8813 291.609 53.004C293.079 53.8703 294.418 55.2132 295.542 56.816C296.148 51.4879 300.252 49.4952 305.269 52.4409C310.715 55.603 315.125 63.3135 315.125 69.6378V73.2332C315.125 74.836 314.822 76.222 314.301 77.3483L321.045 81.2904C323.033 82.4599 324.678 85.3189 324.678 87.6579C324.678 89.9971 323.033 90.9501 321.045 89.7806L276.998 64.0932C274.966 62.9237 273.323 60.0648 273.323 57.6823C273.323 55.343 274.966 54.39 276.998 55.5595Z" fill="#FFD439"/>
<path d="M242.2 79.5144L248.338 83.1098C248.295 82.8067 248.295 82.5467 248.295 82.2867V80.4674C248.295 77.2618 250.499 75.9624 253.223 77.5652C254.347 78.2148 255.384 79.2544 256.205 80.4674C256.637 76.4389 259.75 74.9228 263.554 77.1319C267.66 79.5576 270.989 85.3622 270.989 90.1271V92.813C270.989 94.0692 270.729 95.1088 270.34 95.9317L275.441 98.9208C276.954 99.7871 278.206 101.953 278.206 103.729C278.206 105.505 276.954 106.241 275.441 105.332L242.2 85.9253C240.687 85.059 239.433 82.8933 239.433 81.1172C239.433 79.3411 240.687 78.6481 242.2 79.5144Z" fill="#FFD439"/>
<path d="M8.60205 283.367C8.60205 286.139 10.6769 289.605 13.2273 291.078L141.827 366.104C144.377 367.62 148.484 367.62 150.991 366.104L327.011 263.441C329.517 261.925 331.593 258.503 331.593 255.73C331.593 252.958 329.517 249.493 327.011 248.02L198.368 172.95C195.817 171.478 191.711 171.478 189.204 172.95L13.2273 275.656C10.6769 277.129 8.60205 280.596 8.60205 283.367Z" fill="#C4C5C5" fill-opacity="0.996078"/>
<path d="M146.409 357.181V367.232C144.767 367.232 143.081 366.883 141.827 366.148L13.2273 291.078C10.6769 289.606 8.60205 286.139 8.60205 283.368C8.60205 280.768 10.4176 277.563 12.7518 275.96C10.6769 277.433 10.8498 279.641 13.2273 281.028L141.827 356.097C143.081 356.835 144.767 357.181 146.409 357.181Z" fill="#B2B3B3" fill-opacity="0.996078"/>
<path d="M4.32267 275.83C1.94518 274.444 0 270.892 0 267.946V112.782C0 109.836 2.07486 106.241 4.58203 104.768L180.558 2.06231C183.109 0.589527 187.086 0.502895 189.463 1.88907C191.84 3.27519 193.786 6.78394 193.786 9.77286V164.893C193.786 167.882 191.711 171.478 189.204 172.95L13.2274 275.657C10.677 277.129 6.70013 277.216 4.32267 275.83Z" fill="#D9DADA" fill-opacity="0.996078"/>
<path d="M12.6654 275.916C10.1151 277.129 6.52724 277.129 4.32267 275.83C1.94518 274.444 0 270.892 0 267.946V112.782C0 111.309 0.518708 109.663 1.34002 108.234L9.94214 113.259C9.12083 114.731 8.60213 116.334 8.60213 117.807V272.971C8.60213 275.7 10.3744 276.956 12.6654 275.916Z" fill="#C4C5C5" fill-opacity="0.996078"/>
<path d="M8.60205 117.807V272.971C8.60205 275.916 10.6769 277.129 13.2273 275.656L189.204 172.95C191.711 171.477 193.786 167.882 193.786 164.893V9.7726C193.786 6.78368 191.711 5.61413 189.204 7.08691L13.2273 109.793C10.6769 111.266 8.60205 114.861 8.60205 117.807Z" fill="#B2B3B3" fill-opacity="0.996078"/>
<path d="M13.2272 281.028L141.827 356.054C144.377 357.57 148.484 357.57 150.991 356.054L327.011 253.348C329.516 251.875 329.516 249.493 327.011 248.02L198.368 172.95C195.817 171.478 191.711 171.478 189.204 172.95L13.2272 275.656C10.6769 277.129 10.6769 279.512 13.2272 281.028Z" fill="#D9DADA" fill-opacity="0.996078"/>
<path d="M15.6913 118.414L185.357 19.3895C186.869 18.5231 188.123 19.2162 188.123 20.9921V155.32C188.123 157.096 186.869 159.262 185.357 160.129L15.6913 259.152C14.1352 260.019 12.9248 259.283 12.9248 257.507V123.222C12.9248 121.446 14.1352 119.28 15.6913 118.414Z" fill="white" fill-opacity="0.996078"/>
<path d="M15.6913 118.414L185.357 19.3895C186.869 18.5231 188.123 19.2162 188.123 20.9921V155.32C188.123 157.096 186.869 159.262 185.357 160.129L15.6913 259.152C14.1352 260.019 12.9248 259.283 12.9248 257.507V123.222C12.9248 121.446 14.1352 119.28 15.6913 118.414Z" fill="#F6F0FC" fill-opacity="0.996078"/>
<path d="M100.157 109.923C104.652 107.281 108.327 109.404 108.327 114.688C108.327 119.973 104.652 126.384 100.157 128.983C95.6177 131.625 91.9868 129.503 91.9868 124.218C91.9868 118.933 95.6177 112.523 100.157 109.923Z" fill="#FFE998"/>
<path d="M116.28 138.123C116.28 129.46 110.271 125.604 102.836 129.936L98.2112 132.622C90.7761 136.954 84.7676 147.523 84.7676 156.143V158.482L116.28 140.116V138.123Z" fill="#FFE998"/>
<path d="M132.188 142.368C131.928 141.675 131.15 141.502 130.286 142.021L75.2579 174.12C74.6959 174.423 74.1771 174.986 73.7881 175.636C73.4423 176.286 73.2261 177.022 73.2261 177.672V184.213C73.2261 185.339 73.8745 185.902 74.7391 185.642L74.9121 185.599C75.0417 185.556 75.128 185.469 75.2579 185.426L130.286 153.327C131.409 152.678 132.317 151.075 132.317 149.732V143.191C132.317 142.931 132.274 142.628 132.188 142.368Z" fill="#FFE998"/>
<path d="M80.2291 174.9C81.3097 174.293 82.1743 174.813 82.1743 176.069C82.1743 177.282 81.3097 178.798 80.2291 179.448C79.1483 180.054 78.2837 179.534 78.2837 178.322C78.2837 177.065 79.1483 175.549 80.2291 174.9Z" fill="#FEFEFE" fill-opacity="0.996078"/>
<path d="M86.6268 171.175C87.6642 170.568 88.5288 171.088 88.5288 172.301C88.5288 173.557 87.6642 175.073 86.6268 175.723C85.546 176.329 84.6816 175.809 84.6816 174.553C84.6816 173.34 85.546 171.824 86.6268 171.175Z" fill="#FEFEFE" fill-opacity="0.996078"/>
<path d="M93.0243 167.449C94.0619 166.843 94.9262 167.319 94.9262 168.576C94.9262 169.832 94.0619 171.348 93.0243 171.954C91.9437 172.604 91.0791 172.084 91.0791 170.828C91.0791 169.615 91.9437 168.099 93.0243 167.449Z" fill="#FEFEFE" fill-opacity="0.996078"/>
<path d="M99.422 163.724C100.459 163.117 101.324 163.594 101.324 164.85C101.324 166.106 100.459 167.622 99.422 168.229C98.3412 168.878 97.4766 168.359 97.4766 167.103C97.4766 165.846 98.3412 164.33 99.422 163.724Z" fill="#FEFEFE" fill-opacity="0.996078"/>
<path d="M105.819 159.998C106.857 159.348 107.721 159.868 107.721 161.124C107.721 162.381 106.857 163.897 105.819 164.503C104.738 165.11 103.874 164.633 103.874 163.377C103.874 162.121 104.738 160.605 105.819 159.998Z" fill="#FEFEFE" fill-opacity="0.996078"/>
<path d="M112.217 156.273C113.254 155.623 114.119 156.143 114.119 157.399C114.119 158.612 113.254 160.128 112.217 160.778C111.136 161.385 110.271 160.908 110.271 159.652C110.271 158.395 111.136 156.879 112.217 156.273Z" fill="#FEFEFE" fill-opacity="0.996078"/>
<path d="M118.614 152.548C119.652 151.898 120.516 152.418 120.516 153.674C120.516 154.887 119.652 156.403 118.614 157.053C117.534 157.659 116.669 157.14 116.669 155.927C116.669 154.67 117.534 153.154 118.614 152.548Z" fill="#FEFEFE" fill-opacity="0.996078"/>
<path d="M124.968 148.779C126.049 148.173 126.914 148.692 126.914 149.905C126.914 151.161 126.049 152.678 124.968 153.327C123.931 153.934 123.066 153.414 123.066 152.158C123.066 150.945 123.931 149.429 124.968 148.779Z" fill="#FEFEFE" fill-opacity="0.996078"/>
<path d="M28.1404 276.999L191.495 181.657C192.748 180.921 194.823 180.921 196.076 181.657L204.419 186.552C205.716 187.289 205.716 188.458 204.419 189.238L41.0652 284.537C39.7684 285.272 37.7369 285.272 36.4833 284.537L28.1404 279.686C26.8868 278.949 26.8868 277.736 28.1404 276.999Z" fill="#B2B3B3" fill-opacity="0.996078"/>
<path d="M49.6677 289.562L213.022 194.219C214.275 193.483 216.35 193.483 217.604 194.219L269 224.238C270.254 224.975 270.254 226.144 269 226.881L105.819 322.093C104.566 322.828 102.491 322.828 101.237 322.093L49.6677 292.248C48.4141 291.51 48.4141 290.297 49.6677 289.562Z" fill="#B2B3B3" fill-opacity="0.996078"/>
<path d="M196.077 237.104L201.221 234.115C201.437 233.985 201.437 233.812 201.178 233.638L195.256 230.216C195.039 230.086 194.65 230.043 194.434 230.173L189.333 233.162C189.117 233.292 189.117 233.508 189.377 233.638L195.299 237.104C195.515 237.234 195.861 237.234 196.077 237.104ZM186.005 225.278L180.904 228.224C180.688 228.354 180.688 228.57 180.904 228.7L186.826 232.166C187.086 232.295 187.432 232.295 187.648 232.166L192.748 229.22C192.965 229.09 192.965 228.874 192.748 228.744L186.826 225.278C186.567 225.148 186.221 225.148 186.005 225.278ZM169.492 234.895L160.847 239.963C160.588 240.093 160.631 240.309 160.847 240.439L166.769 243.861C166.985 244.035 167.374 244.035 167.59 243.905L176.236 238.837C176.452 238.707 176.452 238.49 176.192 238.36L170.314 234.938C170.054 234.765 169.709 234.765 169.492 234.895ZM178.527 229.61L173.426 232.599C173.21 232.729 173.21 232.945 173.426 233.075L179.348 236.541C179.607 236.671 179.953 236.671 180.169 236.541L185.27 233.552C185.486 233.422 185.486 233.205 185.27 233.075L179.348 229.653C179.132 229.48 178.743 229.48 178.527 229.61ZM158.47 241.349L153.369 244.294C153.153 244.425 153.153 244.641 153.369 244.771L159.291 248.237C159.507 248.366 159.896 248.366 160.112 248.28L165.213 245.291C165.429 245.161 165.429 244.944 165.213 244.814L159.291 241.349C159.032 241.219 158.686 241.219 158.47 241.349ZM150.991 245.681L145.891 248.67C145.674 248.8 145.674 249.016 145.891 249.146L151.813 252.612C152.072 252.741 152.418 252.741 152.634 252.612L157.735 249.623C157.951 249.493 157.951 249.276 157.735 249.146L151.813 245.724C151.553 245.594 151.207 245.551 150.991 245.681ZM174.247 259.716L179.348 256.727C179.564 256.597 179.564 256.424 179.348 256.25L173.426 252.828C173.21 252.698 172.821 252.655 172.605 252.785L167.504 255.774C167.288 255.904 167.288 256.12 167.504 256.25L173.426 259.716C173.685 259.846 174.031 259.846 174.247 259.716ZM166.769 264.091L171.913 261.102C172.129 260.972 172.086 260.755 171.87 260.625L165.948 257.16C165.732 257.03 165.343 257.03 165.126 257.16L160.026 260.149C159.81 260.279 159.81 260.496 160.069 260.625L165.948 264.091C166.207 264.221 166.553 264.221 166.769 264.091ZM159.291 268.466L164.435 265.477C164.651 265.347 164.608 265.13 164.392 265L158.47 261.535C158.253 261.405 157.864 261.405 157.648 261.535L152.547 264.524C152.331 264.654 152.331 264.827 152.591 265L158.47 268.423C158.729 268.552 159.075 268.596 159.291 268.466ZM151.813 272.798L156.957 269.809C157.173 269.722 157.13 269.505 156.913 269.332L150.991 265.91C150.775 265.78 150.386 265.78 150.17 265.867L145.069 268.856C144.853 268.986 144.853 269.202 145.113 269.332L150.991 272.798C151.251 272.928 151.596 272.928 151.813 272.798ZM188.642 241.479L193.743 238.49C193.959 238.36 193.959 238.144 193.699 238.013L187.777 234.548C187.561 234.418 187.215 234.418 186.999 234.548L181.855 237.537C181.639 237.667 181.639 237.884 181.898 238.013L187.82 241.479C188.037 241.609 188.426 241.609 188.642 241.479ZM181.726 255.384L193.137 248.713C193.354 248.583 193.354 248.366 193.094 248.237L178.743 239.833C178.527 239.703 178.138 239.703 177.922 239.833L172.043 243.255C171.827 243.385 171.827 243.601 172.043 243.732L179.651 248.193C179.91 248.323 179.91 248.54 179.694 248.67L174.982 251.442C174.766 251.529 174.766 251.745 174.982 251.875L180.904 255.34C181.164 255.471 181.509 255.471 181.726 255.384ZM143.513 250.056L138.412 253.045C138.196 253.175 138.196 253.391 138.412 253.521L144.334 256.987C144.594 257.117 144.94 257.117 145.156 256.987L150.256 253.998C150.473 253.868 150.473 253.651 150.256 253.521L144.334 250.056C144.118 249.926 143.729 249.926 143.513 250.056ZM136.035 254.431L130.934 257.42C130.718 257.55 130.718 257.723 130.934 257.896L136.856 261.318C137.115 261.448 137.461 261.492 137.677 261.362L142.778 258.373C143.038 258.243 142.994 258.026 142.778 257.896L136.856 254.431C136.64 254.301 136.251 254.301 136.035 254.431ZM98.6868 303.337C98.9031 303.465 99.292 303.465 99.5083 303.337L104.609 300.348C104.825 300.262 104.825 300.045 104.609 299.87L98.6868 296.45C98.4274 296.318 98.0816 296.275 97.8657 296.407L92.7647 299.395C92.5056 299.524 92.5488 299.742 92.7647 299.87L98.6868 303.337ZM76.2522 289.302L71.1083 292.291C70.8921 292.42 70.9353 292.637 71.1515 292.766L77.0736 296.232C77.2896 296.364 77.6786 296.364 77.8948 296.232L82.9955 293.243C83.2117 293.115 83.2117 292.94 82.9523 292.766L77.0736 289.345C76.8142 289.216 76.4684 289.171 76.2522 289.302ZM88.2692 299.567C88.4854 299.699 88.8744 299.699 89.0906 299.567L94.1913 296.578C94.4076 296.45 94.4076 296.232 94.1913 296.104L88.2692 292.637C88.0098 292.508 87.664 292.508 87.4478 292.637L82.3471 295.626C82.1312 295.755 82.1312 295.972 82.3471 296.104L88.2692 299.567ZM111.871 305.979L117.015 302.991C117.231 302.859 117.188 302.645 116.972 302.513L111.05 299.092C110.834 298.918 110.445 298.918 110.229 299.049L105.128 302.038C104.912 302.167 104.912 302.384 105.171 302.513L111.05 305.979C111.309 306.108 111.655 306.108 111.871 305.979ZM103.615 310.31C103.831 310.484 104.177 310.484 104.393 310.355L109.537 307.364C109.753 307.235 109.71 307.018 109.494 306.889L103.572 303.422C103.355 303.294 102.966 303.294 102.75 303.422L97.6495 306.411C97.4333 306.543 97.4333 306.757 97.6927 306.889L103.615 310.31ZM83.7305 284.969L78.5863 287.958C78.3704 288.047 78.4136 288.261 78.6295 288.436L84.5517 291.856C84.7679 291.988 85.1569 292.031 85.3731 291.902L90.4738 288.91C90.69 288.782 90.69 288.564 90.4306 288.436L84.5517 284.969C84.2922 284.84 83.9465 284.84 83.7305 284.969ZM121.078 263.138L115.978 266.127C115.761 266.257 115.761 266.473 116.021 266.603L121.9 270.069C122.159 270.198 122.505 270.198 122.721 270.069L127.865 267.08C128.081 266.95 128.038 266.733 127.822 266.603L121.9 263.138C121.683 263.008 121.295 263.008 121.078 263.138ZM91.2085 280.596L86.0647 283.585C85.8484 283.714 85.8919 283.931 86.1078 284.06L92.03 287.526C92.2462 287.655 92.6352 287.655 92.8514 287.526L97.9521 284.537C98.1683 284.406 98.1683 284.191 97.9089 284.06L91.9868 280.596C91.7706 280.464 91.4248 280.464 91.2085 280.596ZM128.557 258.763L123.456 261.752C123.24 261.882 123.24 262.098 123.499 262.228L129.378 265.693C129.637 265.824 129.983 265.824 130.199 265.693L135.343 262.705C135.559 262.618 135.516 262.401 135.3 262.228L129.378 258.806C129.162 258.676 128.773 258.633 128.557 258.763ZM113.6 267.513L108.499 270.502C108.283 270.632 108.283 270.848 108.543 270.978L114.465 274.4C114.681 274.574 115.027 274.574 115.243 274.444L120.387 271.455C120.603 271.325 120.56 271.108 120.344 270.978L114.421 267.513C114.205 267.383 113.816 267.383 113.6 267.513ZM106.122 271.888L101.021 274.833C100.805 274.963 100.805 275.18 101.064 275.31L106.987 278.774C107.203 278.906 107.548 278.906 107.765 278.774L112.908 275.83C113.125 275.7 113.125 275.483 112.865 275.353L106.943 271.888C106.727 271.758 106.338 271.758 106.122 271.888ZM98.6437 276.22L93.543 279.209C93.3267 279.338 93.3267 279.555 93.5861 279.687L99.5083 283.15C99.7242 283.282 100.113 283.282 100.329 283.15L105.43 280.161C105.646 280.033 105.646 279.815 105.387 279.687L99.4651 276.263C99.2489 276.09 98.9031 276.09 98.6437 276.22ZM136.856 281.548L142 278.56C142.216 278.428 142.216 278.212 141.957 278.082L136.035 274.617C135.819 274.487 135.43 274.487 135.213 274.617L130.113 277.606C129.897 277.736 129.897 277.952 130.156 278.082L136.078 281.506C136.294 281.677 136.64 281.677 136.856 281.548ZM202.518 215.618L197.417 218.607C197.201 218.737 197.201 218.954 197.46 219.084L203.339 222.506C203.598 222.679 203.944 222.679 204.16 222.549L209.304 219.56C209.52 219.43 209.477 219.214 209.261 219.084L203.339 215.618C203.123 215.488 202.734 215.488 202.518 215.618ZM193.483 220.903L188.382 223.892C188.166 224.022 188.166 224.239 188.382 224.368L194.305 227.791C194.521 227.964 194.91 227.964 195.126 227.834L200.227 224.845C200.443 224.715 200.443 224.499 200.227 224.368L194.305 220.903C194.045 220.773 193.699 220.773 193.483 220.903ZM209.996 211.243L204.895 214.232C204.679 214.362 204.679 214.579 204.938 214.709L210.817 218.174C211.077 218.304 211.422 218.304 211.639 218.174L216.782 215.185C216.999 215.055 216.955 214.839 216.739 214.709L210.817 211.287C210.601 211.113 210.212 211.113 209.996 211.243ZM171.308 251.572L176.409 248.583C176.625 248.453 176.625 248.237 176.409 248.106L170.487 244.685C170.271 244.554 169.881 244.511 169.665 244.641L164.564 247.63C164.348 247.76 164.348 247.977 164.564 248.106L170.487 251.572C170.746 251.702 171.092 251.702 171.308 251.572ZM218.295 206.912C218.079 206.782 217.69 206.782 217.474 206.868L212.373 209.857C212.157 209.987 212.157 210.203 212.373 210.334L218.295 213.799C218.555 213.929 218.901 213.929 219.117 213.799L224.218 210.853C224.434 210.723 224.434 210.507 224.218 210.377L218.295 206.912ZM144.334 277.173L149.479 274.184C149.694 274.054 149.651 273.837 149.435 273.707L143.513 270.285C143.297 270.112 142.908 270.112 142.692 270.242L137.591 273.231C137.375 273.361 137.375 273.577 137.634 273.707L143.556 277.173C143.772 277.303 144.118 277.303 144.334 277.173ZM236.018 223.675L241.119 220.687C241.335 220.556 241.335 220.34 241.119 220.21L235.197 216.788C234.938 216.615 234.592 216.615 234.376 216.745L229.275 219.733C229.059 219.863 229.059 220.08 229.275 220.21L235.197 223.675C235.457 223.805 235.802 223.805 236.018 223.675ZM220.111 223.112L225.212 220.123C225.428 219.993 225.428 219.777 225.169 219.647L219.246 216.181C219.03 216.052 218.684 216.052 218.468 216.181L213.324 219.17C213.108 219.3 213.152 219.517 213.367 219.647L219.29 223.112C219.506 223.242 219.895 223.242 220.111 223.112ZM226.725 211.85C226.508 211.72 226.163 211.676 225.947 211.806L220.803 214.795C220.586 214.925 220.63 215.142 220.846 215.272L226.768 218.737C226.984 218.867 227.373 218.867 227.589 218.737L232.69 215.748C232.906 215.618 232.906 215.445 232.647 215.272L226.725 211.85ZM228.324 210.897L242.676 219.3C242.891 219.43 243.28 219.43 243.497 219.3L248.597 216.312C248.814 216.225 248.814 216.008 248.597 215.835L234.203 207.475C233.987 207.345 233.641 207.345 233.382 207.475L228.281 210.42C228.065 210.55 228.065 210.767 228.324 210.897ZM210.99 220.556L205.846 223.546C205.63 223.675 205.673 223.849 205.889 224.022L211.812 227.444C212.028 227.574 212.417 227.617 212.633 227.487L217.733 224.499C217.95 224.368 217.95 224.152 217.69 224.022L211.812 220.556C211.552 220.427 211.206 220.427 210.99 220.556ZM154.709 253.391L149.608 256.38C149.392 256.51 149.392 256.684 149.651 256.857L155.53 260.279C155.79 260.409 156.135 260.452 156.351 260.322L161.496 257.333C161.711 257.203 161.668 256.987 161.452 256.857L155.53 253.391C155.314 253.261 154.925 253.261 154.709 253.391ZM227.719 228.007C227.978 228.18 228.324 228.18 228.54 228.051L233.641 225.061C233.857 224.932 233.857 224.715 233.641 224.585L227.719 221.12C227.503 220.99 227.114 220.99 226.897 221.12L221.797 224.108C221.581 224.239 221.581 224.455 221.797 224.585L227.719 228.007ZM162.187 249.016L157.086 252.005C156.87 252.135 156.87 252.352 157.086 252.482L163.008 255.947C163.268 256.077 163.613 256.077 163.83 255.947L168.93 252.958C169.19 252.828 169.147 252.612 168.93 252.482L163.008 249.016C162.792 248.886 162.403 248.886 162.187 249.016ZM106.165 298.961C106.381 299.092 106.77 299.135 106.987 299.004L112.087 296.015C112.303 295.886 112.303 295.669 112.044 295.54L106.165 292.074C105.906 291.945 105.56 291.945 105.344 292.074L100.2 295.062C99.9836 295.194 100.027 295.366 100.243 295.54L106.165 298.961ZM94.9261 288.261L89.7822 291.25C89.566 291.381 89.6092 291.599 89.8254 291.728L95.7475 295.194C95.9637 295.323 96.3527 295.323 96.5687 295.194L101.67 292.205C101.886 292.074 101.886 291.902 101.626 291.728L95.7475 288.304C95.4881 288.175 95.1423 288.132 94.9261 288.261ZM114.465 294.631L119.566 291.642C119.782 291.51 119.782 291.293 119.522 291.164L113.643 287.698C113.384 287.569 113.038 287.569 112.822 287.698L107.678 290.686C107.462 290.818 107.505 291.035 107.721 291.164L113.643 294.631C113.859 294.759 114.249 294.759 114.465 294.631ZM121.943 290.255L127.044 287.266C127.26 287.137 127.26 286.92 127 286.788L121.078 283.367C120.862 283.236 120.517 283.193 120.3 283.325L115.156 286.313C114.94 286.442 114.983 286.659 115.2 286.788L121.121 290.255C121.338 290.383 121.727 290.383 121.943 290.255ZM129.421 285.922L134.522 282.933C134.738 282.804 134.738 282.587 134.479 282.458L128.557 278.992C128.34 278.863 127.995 278.863 127.779 278.992L122.634 281.937C122.419 282.069 122.419 282.283 122.678 282.415L128.6 285.879C128.816 286.01 129.205 286.01 129.421 285.922ZM102.404 283.931L97.2605 286.92C97.0443 287.006 97.0875 287.223 97.3037 287.394L103.226 290.818C103.442 290.947 103.831 290.99 104.047 290.861L109.148 287.872C109.364 287.743 109.364 287.526 109.104 287.394L103.226 283.931C102.966 283.799 102.621 283.799 102.404 283.931ZM109.883 279.555L104.739 282.544C104.523 282.675 104.566 282.89 104.782 283.021L110.704 286.485C110.92 286.617 111.309 286.617 111.525 286.485L116.626 283.496C116.842 283.367 116.842 283.15 116.583 283.021L110.704 279.555C110.445 279.426 110.099 279.426 109.883 279.555ZM139.752 262.098L134.651 265.087C134.436 265.217 134.436 265.433 134.695 265.564L140.617 269.029C140.833 269.159 141.179 269.159 141.395 269.029L146.539 266.04C146.755 265.91 146.712 265.693 146.496 265.564L140.574 262.142C140.358 261.968 139.968 261.968 139.752 262.098ZM132.274 266.473L127.173 269.462C126.957 269.592 126.957 269.809 127.217 269.939L133.139 273.361C133.355 273.534 133.701 273.534 133.917 273.404L139.061 270.415C139.277 270.285 139.277 270.069 139.017 269.939L133.096 266.473C132.879 266.343 132.49 266.343 132.274 266.473ZM147.23 257.723L142.13 260.712C141.914 260.842 141.914 261.058 142.173 261.189L148.052 264.654C148.311 264.784 148.657 264.784 148.873 264.654L154.017 261.665C154.233 261.578 154.19 261.362 153.974 261.189L148.052 257.766C147.836 257.637 147.447 257.593 147.23 257.723ZM117.361 275.18L112.217 278.169C112.001 278.299 112.044 278.517 112.26 278.645L118.182 282.112C118.398 282.241 118.787 282.241 119.004 282.112L124.104 279.123C124.321 278.992 124.321 278.774 124.061 278.645L118.139 275.223C117.923 275.05 117.577 275.05 117.361 275.18ZM124.796 270.848L119.695 273.794C119.479 273.924 119.479 274.14 119.738 274.27L125.66 277.736C125.877 277.866 126.266 277.866 126.482 277.736L131.583 274.79C131.799 274.66 131.799 274.444 131.539 274.314L125.617 270.848C125.401 270.718 125.055 270.718 124.796 270.848ZM119.349 301.603L124.493 298.658C124.709 298.529 124.666 298.312 124.45 298.183L118.528 294.716C118.312 294.588 117.923 294.588 117.707 294.716L112.606 297.662C112.39 297.791 112.39 298.008 112.649 298.137L118.528 301.603C118.787 301.735 119.133 301.735 119.349 301.603ZM75.474 297.142L69.5953 293.678C69.3359 293.547 68.9901 293.547 68.7739 293.678L63.63 296.667C63.4138 296.796 63.457 297.013 63.6732 297.142L69.5953 300.608C69.8113 300.737 70.2005 300.737 70.4165 300.608L75.5175 297.619C75.7334 297.488 75.7334 297.273 75.474 297.142ZM86.713 300.477L80.7909 297.013C80.5318 296.881 80.1857 296.881 79.9698 297.013L72.1025 301.603C71.8863 301.735 71.8863 301.95 72.1457 302.081L78.0246 305.502C78.2837 305.676 78.6295 305.676 78.8458 305.545L86.713 300.954C86.9293 300.826 86.9293 300.608 86.713 300.477ZM66.4398 290.472L60.5177 287.006C60.2582 286.877 59.9125 286.877 59.6962 287.006L53.3851 290.686C53.1692 290.818 53.2124 291.035 53.4283 291.164L59.3504 294.588C59.5667 294.759 59.9556 294.759 60.1719 294.631L66.4398 290.947C66.6557 290.818 66.6557 290.601 66.4398 290.472ZM71.2379 287.655C71.4973 287.786 71.8431 287.786 72.0593 287.655L77.16 284.709C77.376 284.58 77.376 284.363 77.16 284.234L71.2379 280.768C71.0217 280.639 70.6327 280.639 70.4165 280.725L65.3158 283.714C65.0998 283.842 65.0998 284.06 65.3158 284.191L71.2379 287.655ZM97.1307 304.246L91.2085 300.78C90.9494 300.651 90.6036 300.651 90.3874 300.78L80.5318 306.543C80.3156 306.672 80.3588 306.846 80.575 307.018L86.4968 310.441C86.713 310.57 87.102 310.613 87.3182 310.484L97.1307 304.724C97.3469 304.592 97.3469 304.375 97.1307 304.246ZM102.015 311.265L96.0933 307.798C95.8771 307.667 95.4881 307.667 95.2719 307.798L89.004 311.437C88.788 311.568 88.788 311.783 89.004 311.914L94.9261 315.378C95.1855 315.509 95.5313 315.509 95.7475 315.378L102.059 311.74C102.275 311.611 102.275 311.394 102.015 311.265ZM126.828 255.211C127.044 255.34 127.433 255.384 127.649 255.254L132.75 252.265C132.966 252.135 132.966 251.918 132.706 251.789L126.828 248.323C126.568 248.193 126.222 248.193 126.006 248.323L120.862 251.312C120.646 251.442 120.689 251.615 120.906 251.789L126.828 255.211ZM111.871 263.961C112.087 264.091 112.476 264.091 112.692 263.961L117.793 260.972C118.009 260.842 118.009 260.625 117.793 260.496L111.871 257.073C111.612 256.9 111.266 256.9 111.05 257.03L105.949 260.019C105.733 260.149 105.733 260.365 105.949 260.496L111.871 263.961ZM78.7162 283.282C78.9756 283.41 79.3214 283.453 79.5373 283.325L84.6383 280.336C84.8543 280.204 84.8543 279.99 84.6383 279.858L78.7162 276.393C78.4568 276.263 78.111 276.263 77.8948 276.393L72.7941 279.38C72.5778 279.512 72.5778 279.729 72.7941 279.858L78.7162 283.282ZM119.349 259.586C119.566 259.716 119.955 259.716 120.171 259.586L125.271 256.597C125.487 256.51 125.487 256.293 125.271 256.12L119.349 252.698C119.09 252.568 118.744 252.525 118.528 252.655L113.427 255.644C113.211 255.774 113.211 255.99 113.427 256.12L119.349 259.586ZM104.393 268.292C104.652 268.466 104.998 268.466 105.214 268.336L110.315 265.347C110.531 265.217 110.531 265 110.315 264.87L104.393 261.405C104.134 261.275 103.788 261.275 103.572 261.405L98.4709 264.394C98.2547 264.524 98.2547 264.74 98.4709 264.87L104.393 268.292ZM106.122 311.825C105.906 311.697 105.517 311.654 105.301 311.783L97.4333 316.376C97.2173 316.505 97.2605 316.722 97.4765 316.851L103.399 320.317C103.615 320.446 104.004 320.446 104.22 320.317L112.087 315.727C112.303 315.595 112.26 315.378 112.044 315.249L106.122 311.825ZM93.6725 274.574C93.8887 274.704 94.2777 274.704 94.4939 274.574L99.5947 271.585C99.8109 271.455 99.8109 271.282 99.5947 271.108L93.6725 267.686C93.4131 267.556 93.0673 267.513 92.8514 267.643L87.7504 270.632C87.4913 270.762 87.5345 270.978 87.7504 271.108L93.6725 274.574ZM86.1945 278.949C86.4104 279.077 86.7994 279.077 87.0156 278.949L92.1163 275.96C92.3326 275.83 92.3326 275.613 92.1163 275.483L86.1945 272.018C85.9351 271.888 85.5893 271.888 85.3731 272.018L80.2724 275.007C80.0562 275.137 80.0562 275.353 80.2724 275.483L86.1945 278.949ZM244.621 230.996C244.361 230.866 244.015 230.866 243.799 230.953L231.22 238.317C231.004 238.447 231.004 238.663 231.22 238.793L237.142 242.259C237.402 242.388 237.748 242.388 237.964 242.259L250.543 234.938C250.759 234.808 250.759 234.592 250.543 234.461L244.621 230.996ZM228.108 240.656C227.849 240.483 227.503 240.483 227.287 240.613L222.143 243.601C221.927 243.732 221.97 243.948 222.186 244.078L228.108 247.544C228.324 247.673 228.713 247.673 228.929 247.544L234.03 244.554C234.246 244.425 234.246 244.208 233.987 244.078L228.108 240.656ZM126.828 297.273L131.928 294.284C132.188 294.153 132.144 293.936 131.928 293.807L126.006 290.34C125.79 290.212 125.401 290.212 125.185 290.34L120.084 293.329C119.868 293.461 119.868 293.678 120.084 293.807L126.006 297.228C126.266 297.402 126.611 297.402 126.828 297.273ZM213.152 249.363C212.892 249.233 212.546 249.233 212.33 249.363L207.229 252.308C207.013 252.438 207.013 252.655 207.229 252.785L213.152 256.25C213.367 256.38 213.757 256.38 213.973 256.25L219.074 253.305C219.29 253.175 219.29 252.958 219.074 252.828L213.152 249.363ZM252.099 226.621C251.84 226.491 251.494 226.491 251.278 226.621L246.177 229.61C245.961 229.74 245.961 229.956 246.177 230.086L252.099 233.508C252.315 233.638 252.704 233.682 252.92 233.552L258.021 230.563C258.237 230.433 258.237 230.216 258.021 230.086L252.099 226.621ZM265.499 225.711L251.105 217.351C250.889 217.178 250.499 217.178 250.283 217.308L245.183 220.296C244.966 220.427 244.966 220.643 245.226 220.773L259.577 229.177C259.793 229.307 260.182 229.307 260.398 229.177L265.499 226.188C265.715 226.058 265.715 225.841 265.499 225.711ZM185.227 265.65C184.968 265.52 184.622 265.52 184.406 265.65L178.094 269.332C177.878 269.462 177.878 269.679 178.138 269.809L184.06 273.231C184.276 273.361 184.622 273.404 184.838 273.274L191.149 269.592C191.365 269.462 191.365 269.245 191.106 269.116L185.227 265.65ZM204.074 254.647C203.858 254.518 203.512 254.518 203.296 254.604L195.429 259.196C195.169 259.326 195.212 259.543 195.429 259.672L201.35 263.138C201.567 263.268 201.956 263.268 202.172 263.181L210.039 258.546C210.255 258.459 210.255 258.243 209.996 258.113L204.074 254.647ZM167.893 275.743C167.677 275.613 167.288 275.613 167.072 275.743L124.969 300.305C124.753 300.434 124.796 300.651 125.012 300.78L130.934 304.246C131.15 304.375 131.539 304.375 131.755 304.246L173.858 279.687C174.075 279.555 174.031 279.338 173.815 279.209L167.893 275.743ZM123.456 301.689C123.196 301.561 122.851 301.561 122.634 301.689L116.323 305.373C116.107 305.502 116.107 305.719 116.367 305.848L122.289 309.314C122.505 309.443 122.851 309.443 123.067 309.314L129.378 305.633C129.594 305.502 129.594 305.284 129.335 305.156L123.456 301.689ZM176.538 270.718C176.322 270.589 175.933 270.589 175.717 270.675L169.449 274.357C169.233 274.487 169.233 274.704 169.449 274.833L175.371 278.299C175.631 278.428 175.977 278.428 176.192 278.299L182.504 274.66C182.72 274.53 182.72 274.314 182.46 274.184L176.538 270.718ZM114.767 306.757C114.551 306.629 114.205 306.629 113.989 306.757L107.678 310.398C107.462 310.527 107.462 310.744 107.721 310.873L113.6 314.34C113.859 314.468 114.205 314.468 114.421 314.382L120.733 310.701C120.949 310.57 120.949 310.355 120.689 310.224L114.767 306.757ZM193.872 260.625C193.613 260.496 193.267 260.452 193.051 260.582L186.74 264.264C186.524 264.394 186.567 264.611 186.783 264.74L192.705 268.206C192.921 268.336 193.31 268.336 193.526 268.206L199.794 264.524C200.011 264.394 200.011 264.177 199.794 264.047L193.872 260.625ZM220.63 244.988C220.37 244.858 220.025 244.858 219.808 244.988L214.665 247.977C214.448 248.106 214.492 248.323 214.708 248.453L220.63 251.875C220.846 252.048 221.235 252.048 221.451 251.918L226.552 248.93C226.768 248.8 226.768 248.583 226.509 248.453L220.63 244.988ZM237.013 232.989L242.114 230C242.329 229.87 242.329 229.653 242.07 229.523L236.148 226.058C235.932 225.928 235.586 225.928 235.37 226.058L230.226 229.047C230.01 229.133 230.01 229.35 230.269 229.523L236.191 232.945C236.408 233.075 236.797 233.119 237.013 232.989ZM203.555 232.772L208.699 229.783C208.915 229.653 208.872 229.437 208.656 229.307L202.734 225.841C202.518 225.711 202.129 225.711 201.912 225.841L196.812 228.83C196.596 228.917 196.596 229.133 196.855 229.307L202.777 232.729C202.993 232.859 203.339 232.902 203.555 232.772ZM186.654 262.358L201.567 253.651C201.783 253.521 201.783 253.305 201.567 253.175L195.645 249.709C195.429 249.579 195.039 249.579 194.823 249.709L179.867 258.416C179.651 258.546 179.694 258.763 179.91 258.893L185.832 262.358C186.048 262.488 186.437 262.488 186.654 262.358ZM228.713 237.32C228.929 237.451 229.318 237.451 229.535 237.32L234.635 234.332C234.851 234.201 234.851 234.028 234.592 233.855L228.67 230.433C228.454 230.303 228.108 230.26 227.892 230.39L222.748 233.379C222.532 233.508 222.575 233.725 222.791 233.855L228.713 237.32ZM221.062 232.426L226.206 229.437C226.422 229.307 226.379 229.09 226.163 228.96L220.241 225.495C220.025 225.365 219.635 225.365 219.419 225.495L214.318 228.44C214.103 228.57 214.103 228.787 214.362 228.917L220.241 232.382C220.5 232.512 220.846 232.512 221.062 232.426ZM179.175 266.733L184.276 263.744C184.492 263.614 184.492 263.398 184.233 263.268L178.354 259.802C178.094 259.672 177.749 259.672 177.533 259.802L172.389 262.791C172.173 262.921 172.216 263.138 172.432 263.268L178.354 266.69C178.57 266.863 178.959 266.863 179.175 266.733ZM212.201 246.98C212.417 247.11 212.763 247.11 212.979 246.98L218.123 243.991C218.339 243.861 218.295 243.645 218.079 243.515L212.157 240.05C211.941 239.92 211.552 239.92 211.336 240.05L206.235 243.038C206.019 243.168 206.019 243.385 206.278 243.515L212.201 246.98ZM141.784 288.521L146.885 285.533C147.101 285.447 147.101 285.229 146.885 285.058L140.963 281.634C140.703 281.506 140.358 281.46 140.141 281.591L135.041 284.58C134.825 284.709 134.825 284.926 135.041 285.058L140.963 288.521C141.222 288.653 141.568 288.653 141.784 288.521ZM149.262 284.191L154.363 281.202C154.579 281.071 154.579 280.853 154.363 280.725L148.441 277.259C148.181 277.129 147.836 277.129 147.62 277.259L142.519 280.247C142.303 280.336 142.303 280.55 142.519 280.725L148.441 284.145C148.657 284.277 149.046 284.32 149.262 284.191ZM134.306 292.897L139.407 289.909C139.623 289.777 139.623 289.562 139.407 289.431L133.485 285.967C133.268 285.836 132.879 285.836 132.663 285.967L127.562 288.956C127.346 289.085 127.346 289.302 127.562 289.431L133.485 292.897C133.744 293.026 134.09 293.026 134.306 292.897ZM164.219 275.44L169.32 272.451C169.536 272.321 169.536 272.104 169.276 271.975L163.398 268.552C163.138 268.379 162.792 268.379 162.576 268.509L157.432 271.498C157.216 271.628 157.259 271.845 157.475 271.975L163.398 275.44C163.613 275.57 164.003 275.57 164.219 275.44ZM156.741 279.815L161.841 276.826C162.057 276.696 162.057 276.479 161.841 276.35L155.919 272.884C155.66 272.754 155.314 272.754 155.098 272.884L149.997 275.873C149.738 276.003 149.781 276.22 149.997 276.35L155.919 279.815C156.135 279.944 156.524 279.944 156.741 279.815ZM171.697 271.108L176.798 268.119C177.014 267.989 177.014 267.773 176.754 267.643L170.876 264.177C170.616 264.047 170.271 264.047 170.054 264.177L164.91 267.123C164.694 267.253 164.737 267.47 164.954 267.599L170.876 271.065C171.092 271.195 171.481 271.195 171.697 271.108ZM205.889 206.565C206.105 206.695 206.495 206.695 206.711 206.565L211.812 203.576C212.028 203.446 212.028 203.229 211.768 203.1L210.212 202.19C209.996 202.06 209.607 202.06 209.391 202.19L204.29 205.135C204.074 205.266 204.074 205.482 204.29 205.612L205.889 206.565ZM169.103 230.563C169.32 230.693 169.709 230.693 169.925 230.563L175.026 227.574C175.241 227.444 175.241 227.227 175.026 227.098L169.103 223.632C168.844 223.502 168.498 223.502 168.282 223.632L163.181 226.621C162.965 226.751 162.965 226.967 163.181 227.098L169.103 230.563ZM184.06 221.813C184.276 221.943 184.665 221.986 184.881 221.856L189.982 218.867C190.198 218.737 190.198 218.521 189.939 218.391L184.06 214.925C183.801 214.795 183.455 214.795 183.239 214.925L178.094 217.914C177.878 218.001 177.922 218.217 178.138 218.391L184.06 221.813ZM159.983 235.891C160.199 236.021 160.588 236.021 160.804 235.891L165.905 232.902C166.121 232.772 166.121 232.555 165.861 232.426L159.983 228.96C159.723 228.83 159.377 228.83 159.161 228.96L154.017 231.949C153.801 232.079 153.844 232.295 154.06 232.426L159.983 235.891ZM176.582 226.188C176.798 226.318 177.187 226.318 177.403 226.188L182.504 223.199C182.72 223.112 182.72 222.896 182.46 222.722L176.582 219.3C176.322 219.17 175.977 219.127 175.76 219.257L170.616 222.246C170.4 222.376 170.443 222.593 170.66 222.722L176.582 226.188ZM145.026 244.598C145.242 244.728 145.631 244.728 145.847 244.598L150.948 241.652C151.164 241.522 151.164 241.306 150.948 241.176L145.026 237.71C144.767 237.58 144.421 237.58 144.205 237.667L139.104 240.656C138.888 240.786 138.888 241.002 139.104 241.132L145.026 244.598ZM152.504 240.223C152.72 240.353 153.109 240.396 153.326 240.266L158.426 237.277C158.643 237.147 158.643 236.931 158.383 236.801L152.504 233.335C152.245 233.205 151.899 233.205 151.683 233.335L146.539 236.324C146.323 236.454 146.366 236.671 146.582 236.801L152.504 240.223ZM190.933 215.272C191.149 215.402 191.538 215.402 191.754 215.272L196.855 212.326C197.071 212.196 197.071 211.98 196.855 211.85L195.256 210.897C195.039 210.767 194.65 210.767 194.434 210.897L189.333 213.886C189.117 214.015 189.117 214.232 189.377 214.362L190.933 215.272ZM213.367 202.19C213.584 202.32 213.973 202.32 214.189 202.19L219.29 199.201C219.506 199.114 219.506 198.898 219.246 198.724L217.69 197.815C217.431 197.685 217.085 197.685 216.869 197.815L211.768 200.804C211.552 200.934 211.552 201.15 211.768 201.28L213.367 202.19ZM225.774 209.424C226.033 209.554 226.379 209.597 226.595 209.467L231.696 206.478C231.912 206.348 231.912 206.132 231.696 206.002L225.774 202.536C225.558 202.407 225.169 202.407 224.952 202.536L219.852 205.525C219.635 205.655 219.635 205.872 219.852 206.002L225.774 209.424ZM244.448 228.614L249.592 225.625C249.808 225.495 249.808 225.278 249.548 225.148L243.627 221.683C243.41 221.553 243.021 221.553 242.805 221.683L237.704 224.672C237.488 224.802 237.488 225.018 237.748 225.148L243.67 228.614C243.886 228.744 244.232 228.744 244.448 228.614ZM198.411 210.897C198.627 211.07 199.016 211.07 199.233 210.94L204.333 207.951C204.549 207.821 204.549 207.605 204.29 207.475L202.734 206.565C202.518 206.435 202.129 206.392 201.912 206.522L196.812 209.51C196.596 209.64 196.596 209.857 196.855 209.987L198.411 210.897ZM137.548 248.973C137.764 249.103 138.153 249.103 138.369 248.973L143.47 245.984C143.686 245.854 143.686 245.638 143.47 245.507L137.548 242.085C137.288 241.912 136.943 241.912 136.726 242.042L131.626 245.031C131.41 245.161 131.41 245.378 131.626 245.507L137.548 248.973Z" fill="#C5C6C6" fill-opacity="0.996078"/>
<path d="M170.703 294.328L221.191 264.871C222.704 263.961 225.168 263.961 226.681 264.871L255.643 281.763C257.156 282.63 257.156 284.06 255.643 284.969L205.154 314.426C203.642 315.292 201.178 315.292 199.621 314.426L170.703 297.531C169.19 296.621 169.19 295.194 170.703 294.328Z" fill="#EBECEC" fill-opacity="0.996078"/>
<path d="M263.511 152.635H263.468L254.865 147.61C254.347 147.35 253.612 147.566 252.747 148.259C244.707 154.454 233.944 156.403 225.125 153.544C224.563 153.024 224.044 152.461 223.526 151.855L223.353 151.682C223.05 151.335 222.748 151.118 222.445 150.945L222.316 150.858L213.67 145.833C212.719 145.357 211.812 145.833 211.206 147.35C202.863 168.272 185.141 189.454 173.296 194.783C172.388 195.173 171.567 195.779 170.962 196.515C170.098 197.512 169.579 198.681 169.622 199.937L171.351 246.937C171.351 260.539 177.014 274.877 188.599 281.852L197.503 287.048L197.676 287.137C202.085 289.691 207.359 291.207 213.497 291.207C214.708 291.207 215.961 291.121 217.301 290.99C219.463 290.775 222.488 289.216 224.044 287.612C249.894 260.582 262.473 224.022 262.473 203.793L264.202 154.627C264.245 153.588 263.986 152.938 263.511 152.678V152.635Z" fill="#FFDB59"/>
<path d="M264.202 154.627L262.473 203.793C262.473 224.022 249.894 260.582 224.044 287.612C222.488 289.217 219.462 290.775 217.301 290.99C215.961 291.121 214.707 291.207 213.497 291.207C207.359 291.207 202.085 289.691 197.676 287.137L197.503 287.049L197.2 286.834C185.616 279.858 179.953 265.52 179.953 251.962L178.267 204.962C178.224 203.706 178.743 202.537 179.564 201.54C180.212 200.804 181.034 200.197 181.898 199.764C193.742 194.479 211.509 173.254 219.851 152.332C220.413 150.859 221.321 150.382 222.315 150.859L222.445 150.945C222.747 151.119 223.05 151.335 223.353 151.682L223.526 151.855C232.344 162.251 249.764 162.251 261.349 153.285C262.214 152.591 262.948 152.375 263.467 152.635L263.51 152.678C263.986 152.938 264.245 153.588 264.202 154.627Z" fill="#FFC700"/>
<path d="M197.676 287.137L197.503 287.049L188.599 281.852C177.014 274.834 171.351 260.496 171.351 246.937L169.622 199.938C169.622 199.028 169.881 198.118 170.357 197.338L178.959 202.363C178.484 203.143 178.224 204.053 178.267 204.962L179.953 251.962C179.953 265.52 185.616 279.858 197.201 286.834L197.503 287.049L197.676 287.137Z" fill="#D8A800"/>
<path d="M228.108 243.905L214.319 251.919L216.48 226.751C214.837 225.842 213.757 223.676 213.757 220.557C213.757 215.012 217.128 208.601 221.235 206.175C225.342 203.793 228.67 206.349 228.67 211.893C228.67 215.012 227.633 218.391 225.99 221.207L228.108 243.905Z" fill="#FFD12E"/>
<path d="M228.108 243.905L215.615 236.627L214.318 251.918L228.108 243.905Z" fill="#FFDB59"/>
<path d="M221.235 206.175C218.555 207.735 216.177 211.07 214.88 214.709L225.99 221.207C227.632 218.391 228.67 215.012 228.67 211.893C228.67 206.349 225.341 203.793 221.235 206.175Z" fill="#FFDB59"/>
<path d="M48.8896 390.232V394.434C48.8896 399.327 52.0884 404.267 58.5293 408.036C68.2119 413.668 82.4338 415.052 94.3641 412.195L105.43 418.647L113.946 416.7L119.738 420.077L120.041 427.182L123.197 429.001L131.021 429.693L136.683 432.856V436.883L143.772 440.999H161.755L168.239 437.232V433.031L110.618 403.617C113.254 400.757 114.594 397.64 114.594 394.476V390.232C113.73 386.159 110.358 384.037 104.998 380.92C92.1596 373.423 71.3675 373.423 58.5293 380.92C52.7368 384.254 49.4517 385.813 48.8896 390.232ZM66.5262 385.336C70.1574 383.213 76.0792 383.213 79.7104 385.336C83.3413 387.458 83.3413 390.881 79.7104 393.004C76.0792 395.126 70.1574 395.126 66.5262 393.004C62.8953 390.881 62.8953 387.458 66.5262 385.336Z" fill="#D8A800"/>
<path d="M58.5292 403.789C68.2118 409.464 82.4337 410.851 94.364 407.948L105.43 414.403L113.946 412.453L119.738 415.833L120.041 422.938L123.196 424.757L131.02 425.449L137.159 428.915L136.683 432.639L143.772 436.755H161.755L168.239 433.031L110.617 399.371C117.404 392.137 115.545 382.825 104.998 376.673C92.1594 369.179 71.3673 369.179 58.5292 376.673C45.6908 384.166 45.6908 396.296 58.5292 403.789ZM66.5261 381.092C70.1572 379.012 76.0791 379.012 79.7103 381.092C83.3412 383.214 83.3412 386.68 79.7103 388.803C76.0791 390.925 70.1572 390.925 66.5261 388.803C62.8952 386.68 62.8952 383.214 66.5261 381.092Z" fill="#FFC700"/>
<path d="M81.7416 405.74C73.6152 405.74 66.007 403.921 60.3443 400.629C55.3735 397.726 52.5205 393.913 52.5205 390.232C52.5205 386.548 55.3735 382.739 60.3443 379.878C66.007 376.544 73.6152 374.725 81.7416 374.725C89.9115 374.725 97.5193 376.544 103.182 379.878C108.153 382.739 110.963 386.548 110.963 390.232C110.963 393.913 108.153 397.726 103.182 400.629C97.5193 403.921 89.9115 405.74 81.7416 405.74ZM81.7416 376.198C73.8743 376.198 66.5259 377.974 61.0794 381.134C56.5836 383.777 53.99 387.069 53.99 390.232C53.99 393.392 56.5836 396.73 61.0794 399.327C66.5259 402.49 73.8743 404.267 81.7416 404.267C89.6523 404.267 97.0008 402.49 102.447 399.327C106.943 396.73 109.537 393.392 109.537 390.232C109.537 387.069 106.943 383.777 102.447 381.134C97.0008 377.974 89.6523 376.198 81.7416 376.198Z" fill="#D8A800"/>
<path d="M69.9409 408.122V412.367C77.765 414.1 86.5833 414.057 94.3639 412.195V407.948C86.5833 409.813 77.765 409.898 69.9409 408.122Z" fill="#D8A800"/>
<path d="M161.754 436.755H143.772V441H161.754V436.755Z" fill="#D8A800"/>
<path d="M168.239 433.031V437.232L161.755 440.999V436.755L164.608 435.11V436.972L166.164 436.02V434.198L168.239 433.031Z" fill="#E6B300"/>
<path d="M166.164 434.198L164.607 435.11V436.972L166.164 436.02V434.198Z" fill="#FFDB59"/>
<path d="M166.164 434.198V436.02L107.073 401.538L108.629 400.629L166.164 434.198Z" fill="#D8A800"/>
<path d="M108.629 400.629V402.491L107.073 401.538L108.629 400.629Z" fill="#FFDB59"/>
<path d="M365.44 275.83C366.175 247.89 363.969 241.219 356.622 236.107L353.767 252.265C353.767 252.265 357.139 271.325 356.793 277.692C356.447 283.236 355.93 290.255 354.634 294.759C354.374 295.54 353.853 296.232 353.164 296.667C351.262 297.834 350.527 299.049 349.1 300.565C348.019 301.735 347.069 301.992 347.198 302.384C347.415 302.859 348.193 303.64 349.532 303.208C350.224 302.991 351.088 302.47 352.212 301.735C352.212 301.735 351.434 304.072 349.489 306.5C346.852 309.746 346.723 311.74 352.04 311.783C355.366 311.825 358.003 309.746 360.512 302.341C361.247 300.216 362.371 296.839 362.845 294.024C364.098 286.702 365.354 280.293 365.44 275.83Z" fill="#F6CBB9" fill-opacity="0.996078"/>
<path d="M350.438 233.985C353.942 233.465 358.738 234.201 361.807 239.789C364.876 245.334 365.657 254.95 366 264.48C366 264.48 359.863 269.635 352.515 267.08L350.438 233.985Z" fill="#FFDB59"/>
<path d="M360.771 387.504C361.332 387.718 361.461 388.759 361.549 390.924C361.635 392.529 361.938 395.343 360.079 395.907C358.22 396.47 355.497 396.167 354.288 394.651C352.775 392.743 351.779 391.099 349.617 388.759C347.804 386.766 345.77 384.904 345.035 382.087C344.343 379.533 344.906 378.406 346.634 377.671C349.014 376.672 352.732 379.964 354.588 380.528C356.147 380.963 360.208 387.286 360.771 387.504Z" fill="#313130" fill-opacity="0.996078"/>
<path d="M360.772 385.51V388.153C360.772 388.153 358.092 390.232 354.245 388.324C354.113 388.067 353.553 384.558 353.553 384.558L360.772 385.51Z" fill="#F6CBB9" fill-opacity="0.996078"/>
<path d="M339.807 402.576C339.807 402.576 340.54 404.873 340.928 406.866C341.232 408.425 341.709 411.068 341.146 412.28C340.628 413.45 338.466 414.228 335.137 414.185C333.02 414.185 329.648 415.658 327.357 416.96C324.978 418.301 320.053 418.822 317.587 418.518C314.604 418.172 311.578 416.439 311.103 415.226C310.586 413.971 311.232 412.712 318.194 409.681C318.236 409.681 327.875 406.517 331.247 402.751L339.807 402.576Z" fill="#313130" fill-opacity="0.996078"/>
<path d="M339.808 399.762C339.808 399.762 339.762 401.71 339.808 402.794C339.808 403.921 338.509 405.565 335.137 405.437C332.76 405.351 331.119 404.745 331.247 402.751V399.934L339.808 399.762Z" fill="#F6CBB9" fill-opacity="0.996078"/>
<path d="M362.456 350.769C361.246 342.191 359.387 337.123 359.387 337.123C359.387 337.123 360.34 325.342 360.772 314.208C361.246 302.167 360.729 287.005 360.943 283.974C360.943 283.974 322.472 276.133 321.823 290.037C321.131 303.986 323.336 339.463 323.768 345.572C324.245 351.678 325.281 357.095 326.536 367.014C327.746 376.804 331.247 399.934 331.247 399.934C335.611 402.316 339.807 399.762 339.807 399.762C339.807 399.762 342.487 371.908 342.227 364.849C341.881 356.229 339.547 349.427 339.547 349.427C339.547 349.427 340.282 337.947 340.928 327.942C341.578 317.935 342.27 313.17 342.398 308.794L343.219 308.405C343.219 308.405 344.086 325.645 344.518 331.752C344.993 337.861 345.945 343.753 347.715 355.102C349.228 364.978 353.767 385.813 353.767 385.813C358.135 388.239 360.772 385.51 360.772 385.51C360.772 385.51 363.623 359.303 362.456 350.769Z" fill="#676766" fill-opacity="0.996078"/>
<path d="M342.398 308.794C342.398 308.794 351.737 304.16 356.404 299.959C356.404 299.959 352.083 306.151 346.377 308.882C346.377 308.882 344.343 330.279 344.389 329.847L343.219 308.794H342.398Z" fill="#4D4D4D" fill-opacity="0.996078"/>
<path d="M334.099 229.567L336.392 242.259L347.716 241.392L345.339 227.054L334.099 229.567Z" fill="#F6CBB9" fill-opacity="0.996078"/>
<path d="M359.648 240.483C358.524 237.017 354.199 233.292 349.878 234.115C341.924 235.588 335.657 237.191 330.944 238.88C326.968 240.31 323.379 243.775 323.033 256.943C323.033 256.943 321.737 287.612 321.694 293.547C331.636 297.531 341.967 297.402 347.716 296.147C359.605 293.547 361.029 288.522 361.029 288.522C361.029 288.522 361.204 266.473 360.815 256.943C360.512 248.843 360.426 242.822 359.648 240.483Z" fill="#FFC700"/>
<path d="M325.369 214.146C325.369 214.146 322.515 218.78 322.861 219.214C323.207 219.69 325.412 220.037 325.412 220.037L325.369 214.146Z" fill="#FBD9CA" fill-opacity="0.996078"/>
<path d="M333.321 201.367C327.357 202.796 325.67 205.482 325.324 215.185C324.978 225.278 326.059 228.44 327.4 229.74C328.307 230.649 333.235 230.693 335.7 229.956C338.769 229.003 345.728 226.361 348.928 221.206C352.644 215.142 353.465 206.998 349.272 203.792C343.351 199.244 335.786 200.804 333.321 201.367Z" fill="#FBD9CA" fill-opacity="0.996078"/>
<path d="M325.412 203.879C327.14 206.911 330.943 208.384 330.943 208.384C332.11 209.684 331.464 214.838 333.495 215.662C333.495 215.662 334.358 211.936 337.47 212.326C340.628 212.716 341.145 216.744 339.201 219.257C337.299 221.726 335.44 220.816 335.44 220.816C335.44 220.816 335.657 226.144 338.077 229.133C338.077 229.133 340.756 229.956 345.599 228.787C348.582 228.05 352.775 224.152 354.459 220.08C358.049 211.503 358.134 203.836 352.732 201.67C352.04 197.771 348.971 196.082 345.467 195.345C337.948 193.786 333.063 198.551 327.271 198.118C323.942 197.901 323.336 200.327 325.412 203.879Z" fill="#313130" fill-opacity="0.996078"/>
<path d="M352.86 202.97L356.404 200.76C355.801 199.764 354.502 199.461 353.51 200.067C352.557 200.673 352.254 201.973 352.86 202.97Z" fill="#202D34" fill-opacity="0.996078"/>
<path d="M283.092 261.665C284.951 262.531 306.868 278.906 310.283 276.999C313.697 275.093 331.247 254.344 331.247 254.344C336.347 245.854 331.247 238.836 331.247 238.836C331.247 238.836 325.627 239.876 322.687 244.381C319.749 248.886 307.039 265 307.039 265C303.884 263.398 300.773 261.795 297.661 260.149C295.067 258.806 292.516 257.463 290.007 256.034C289.361 255.644 288.54 255.297 288.019 254.777C286.767 253.565 286.984 250.532 287.027 248.929C287.027 248.15 287.027 247.37 287.113 246.634C287.242 245.724 287.416 243.428 285.729 244.165C285.425 244.294 285.168 244.554 284.951 244.814C284.693 245.161 284.476 245.551 284.347 245.941C284.044 246.937 284.13 248.02 283.869 249.016C283.827 249.146 283.741 249.319 283.655 249.406C283.523 249.536 283.309 249.579 283.134 249.579C280.715 249.493 278.424 246.07 277.3 244.251C276.824 243.472 276.349 242.562 275.484 242.172C274.145 241.522 272.588 242.432 271.724 243.601C270.643 245.161 270.297 247.153 270.513 249.016C270.816 251.615 271.81 253.998 273.669 255.774C276.522 258.416 279.591 260.105 283.092 261.665Z" fill="#F6CBB9" fill-opacity="0.996078"/>
<path d="M333.02 238.144C330.64 238.447 326.622 238.62 322.644 243.125C318.062 248.41 312.01 256.987 312.01 256.987C312.01 256.987 313.654 265.347 322.601 267.08C322.601 267.08 330.901 258.503 333.192 253.781C335.526 249.016 335.872 241.349 333.02 238.144Z" fill="#FFDB59"/>
</svg>
