<svg width="89" height="89" viewBox="0 0 89 89" fill="none" xmlns="http://www.w3.org/2000/svg">
<path d="M8.60119 51.5395H32.8488C33.5689 51.5395 34.1526 50.9559 34.1526 50.2357C34.1526 49.5155 33.5689 48.9319 32.8488 48.9319H8.60119C7.88113 48.9319 7.29736 49.5155 7.29736 50.2357C7.29736 50.9559 7.88113 51.5395 8.60119 51.5395Z" fill="black"/>
<path d="M8.60119 57.3096H32.8488C33.5689 57.3096 34.1526 56.726 34.1526 56.0057C34.1526 55.2855 33.5689 54.7019 32.8488 54.7019H8.60119C7.88113 54.7019 7.29736 55.2855 7.29736 56.0057C7.29736 56.726 7.88113 57.3096 8.60119 57.3096Z" fill="black"/>
<path d="M17 33C16.8333 31.8333 16.5 29.3 16.5 28.5C17.5 27.8333 19.6 26.5 20 26.5H22L25 28L25.5 32.5L24.5 35.5L28 39.5V42.5L27 44.5L13.5 44V39L16 36L17 33Z" fill="#FFC700"/>
<path d="M8.60119 33.9059C7.88113 33.9059 7.29736 34.4895 7.29736 35.2097V41.9568C7.29736 43.9967 8.95688 45.6564 10.9969 45.6564H30.453C32.4929 45.6564 34.1526 43.9967 34.1526 41.9568V23.0033C34.1526 20.9634 32.4929 19.3037 30.453 19.3037H10.9969C8.95705 19.3037 7.29736 20.9634 7.29736 23.0033V29.1144C7.29736 29.8347 7.88113 30.4183 8.60119 30.4183C9.32126 30.4183 9.90502 29.8347 9.90502 29.1144V23.0033C9.90502 22.4011 10.3947 21.9114 10.9969 21.9114H30.453C31.0551 21.9114 31.545 22.4011 31.545 23.0033V41.9568C31.545 42.559 31.0551 43.0487 30.453 43.0487H29.5524V41.8228C29.5524 38.8666 28.0933 36.1661 25.7219 34.5422C26.4065 33.548 26.7806 32.3629 26.7806 31.1154C26.7806 27.7763 24.0641 25.0599 20.7251 25.0599C17.3861 25.0599 14.6696 27.7763 14.6696 31.1154C14.6696 32.3629 15.0435 33.5478 15.7283 34.5422C13.3567 36.1661 11.8978 38.8666 11.8978 41.8228V43.0487H10.9971C10.3951 43.0487 9.9052 42.559 9.9052 41.9568V35.2097C9.90502 34.4897 9.32126 33.9059 8.60119 33.9059ZM20.7251 27.6677C22.6262 27.6677 24.1729 29.2144 24.1729 31.1155C24.1729 32.1894 23.6858 33.1824 22.8366 33.8414C22.8321 33.8449 22.8277 33.8484 22.8232 33.8517C22.2172 34.3174 21.4917 34.5634 20.7251 34.5634C19.9588 34.5634 19.234 34.3178 18.6282 33.8527C18.6231 33.8487 18.6181 33.8449 18.613 33.8409C17.764 33.1817 17.2772 32.1889 17.2772 31.1154C17.2771 29.2144 18.8239 27.6677 20.7251 27.6677ZM14.5053 41.8228C14.5053 39.5331 15.7474 37.4612 17.7202 36.3749C18.6306 36.8979 19.6551 37.1711 20.7251 37.1711C21.7951 37.1711 22.8196 36.8978 23.73 36.3749C25.7028 37.4612 26.9449 39.5331 26.9449 41.8228V43.0487H14.5053V41.8228Z" fill="black"/>
<path d="M55.5 33.4998L56.5 28.9998L57.5 26.5L63 20.5L69.5 18.4998C71.3333 18.6664 75.1 18.8998 75.5 18.4998C75.9 18.0998 80.6667 21.3331 83 22.9998L86 27.4998L88 32.4998L87.5 38.9998L83 45.9998L75.5 50.4998H67.5L66 51.4998V52.9998L63.5 53.9998L61 52.9998L59 54.4998H55L54 55.9998V59.9998C53.5 60.4998 52.4 61.4998 52 61.4998C51.5 61.4998 49.5 60.9998 49 60.9998C48.6 60.9998 47.8333 61.6664 47.5 61.9998L47 66.9998L45 68.4998L41 67.9998L40 69.4998V73.9998L37.5 75.4998H32L30.5 74.4998V68.4998L48 50.4998L53 44.9998L52 41.4998L53.5 39.9998L56.5 38.9998L55.5 33.4998Z" fill="#FFC700"/>
<circle cx="76.5" cy="30.5" r="3.5" fill="white"/>
<path d="M83.2365 21.6683V17.0494C83.2365 14.2688 80.9743 12.0063 78.1937 12.0063H5.04287C2.26223 12.0063 0 14.2686 0 17.0494V63.1042C0 65.8848 2.26223 68.147 5.04287 68.147H25.3416C26.0617 68.147 26.6454 67.5634 26.6454 66.8432C26.6454 66.123 26.0617 65.5394 25.3416 65.5394H5.04287C3.7001 65.5394 2.60766 64.4469 2.60766 63.1042V17.0494C2.60766 15.7064 3.7001 14.614 5.04287 14.614H78.1937C79.5365 14.614 80.6289 15.7064 80.6289 17.0494V19.7348C73.9383 15.6863 65.1345 16.5731 59.3864 22.3212C55.2297 26.4778 53.4974 32.3927 54.6531 38.0644C53.6692 38.1068 52.6979 38.5026 51.9483 39.2521V39.2522C50.3818 40.8191 50.3597 43.3544 51.882 44.9481L30.3918 66.4383C29.6761 67.154 29.2792 68.1058 29.2741 69.1181L29.2533 73.3942C29.2435 75.3857 30.8537 76.994 32.8352 76.994H32.8531L37.1291 76.9729C38.1412 76.968 39.093 76.571 39.8089 75.8553L40.5013 75.163C41.136 74.5283 41.4795 73.6497 41.4439 72.7528L41.3459 70.2853C41.3311 69.9169 41.6383 69.6188 42.0068 69.6426L44.3057 69.7977C45.2353 69.8592 46.1464 69.5185 46.8049 68.8596C47.3358 68.3005 47.6854 68.0643 48.013 67.4847C48.3083 66.9618 48.4519 66.3686 48.4281 65.769L48.3301 63.3015C48.3153 62.9331 48.624 62.6334 48.991 62.6588L51.2899 62.8138C52.2189 62.8736 53.1304 62.5346 53.7891 61.8758L54.4807 61.1842C55.1154 60.5495 55.4589 59.6709 55.4232 58.7741L55.3252 56.3065C55.3104 55.9364 55.6214 55.6379 55.9861 55.6638L58.2849 55.8189C59.215 55.8808 60.1255 55.5395 60.7841 54.8808L61.3164 54.3485C62.8958 55.613 65.2392 55.5442 66.7398 54.0436C67.4206 53.3626 67.8308 52.4837 67.9165 51.5364C72.239 52.4818 76.8191 51.7382 80.6292 49.4435V63.1045C80.6292 64.4473 79.5368 65.5397 78.194 65.5397H52.8295C52.1094 65.5397 51.5257 66.1233 51.5257 66.8436C51.5257 67.5638 52.1094 68.1474 52.8295 68.1474H78.1937C80.9743 68.1474 83.2365 65.8851 83.2365 63.1045V47.514C90.9201 40.6157 90.922 28.5676 83.2365 21.6683ZM58.4598 53.2166L56.1612 53.0615C54.2427 52.9365 52.6429 54.4945 52.7191 56.4098L52.8171 58.8773C52.8241 59.0496 52.758 59.2184 52.6362 59.3401L51.9446 60.0316C51.8182 60.1582 51.6451 60.2239 51.4648 60.2116L49.1659 60.0565C47.2465 59.9294 45.648 61.4932 45.724 63.4047L45.822 65.8723C45.829 66.0473 45.7608 66.2154 45.641 66.335L44.9604 67.0155C44.834 67.142 44.6604 67.2083 44.4806 67.1954L42.1817 67.0403C40.2616 66.9153 38.6636 68.4746 38.7398 70.3886L38.8378 72.8561C38.8448 73.0284 38.7787 73.1972 38.6568 73.3189L37.9646 74.011C37.7377 74.2377 37.4365 74.3633 37.1157 74.3649L32.8398 74.3859H32.835C32.2962 74.3859 31.8578 73.9489 31.8604 73.4065L31.8813 69.1305C31.8828 68.8099 32.0085 68.5084 32.2352 68.2818L53.7246 46.7924L59.4538 52.5216L58.9392 53.0362C58.8132 53.1631 58.6383 53.23 58.4598 53.2166ZM64.8955 52.1993C64.323 52.7717 63.3917 52.7717 62.8193 52.1993L53.7921 43.1719C53.2198 42.5996 53.2198 41.6685 53.7921 41.0958C54.3642 40.5237 55.2953 40.5237 55.8678 41.0957C55.8705 41.0985 55.8733 41.1011 55.8761 41.1038L64.8955 50.1234C65.4679 50.6957 65.4679 51.627 64.8955 52.1993ZM67.0216 48.5917C66.8166 48.3403 57.6597 39.2006 57.6418 39.1836C55.9293 33.939 57.3218 28.0734 61.2302 24.1652C66.663 18.7324 75.2967 18.4172 81.0967 23.264C88.1515 29.155 88.1624 40.0025 81.1052 45.9108C81.1018 45.9138 81.0983 45.9165 81.0948 45.9195C77.2075 49.1664 71.8371 50.1808 67.0216 48.5917Z" fill="black"/>
<path d="M79.857 26.3903C77.7203 24.2536 74.238 24.2453 72.0921 26.3903C69.8805 28.6018 69.9484 32.2282 72.2967 34.3496C74.4595 36.3027 77.7928 36.2195 79.857 34.1553C79.857 34.1553 79.857 34.1553 79.857 34.1551C82.0026 32.0097 82.003 28.5361 79.857 26.3903ZM73.9901 32.3641C73.9898 32.3638 73.9894 32.3636 73.9893 32.3633C73.982 32.3563 73.9747 32.3492 73.9674 32.3421C73.9656 32.3403 73.9641 32.3388 73.9623 32.3372C73.9536 32.3287 73.9449 32.32 73.9362 32.3115C72.8097 31.1846 72.8094 29.3613 73.9362 28.2345C75.06 27.1106 76.8893 27.1102 78.0134 28.2345C79.1401 29.3612 79.1401 31.1846 78.0134 32.3113C76.9069 33.4173 75.118 33.4352 73.9901 32.3641Z" fill="black"/>
</svg>
