<svg width="284" height="160" viewBox="0 0 284 160" fill="none" xmlns="http://www.w3.org/2000/svg">
<g clip-path="url(#clip0)">
<path opacity="0.1" d="M150.831 160C102.036 160 62.4799 153.593 62.4799 145.689C62.4799 137.785 102.036 131.378 150.831 131.378C199.625 131.378 239.181 137.785 239.181 145.689C239.181 153.593 199.625 160 150.831 160Z" fill="#2A94F4"/>
<path d="M115.568 0H218.118V140.059H115.568V0Z" fill="#FFC700"/>
<path d="M98.4826 145.689H201.033V24.5183L185.872 5.62939H98.4826V145.689Z" fill="#F7F7F7"/>
<path d="M185.872 5.62939V24.5183H201.033L185.872 5.62939Z" fill="#F2F2F2"/>
<path d="M127.903 37.8369H183.668V40.0147H127.903V37.8369Z" fill="#FFC700"/>
<path d="M115.863 37.8369H125.034V40.0147H115.863V37.8369Z" fill="#FFC700"/>
<path d="M164.986 62.3257H183.668V64.5034H164.986V62.3257Z" fill="#FFC700"/>
<path d="M115.848 62.3257H162.797V64.5034H115.848V62.3257Z" fill="#FFC700"/>
<path d="M164.986 50.0889H183.668V52.2667H164.986V50.0889Z" fill="#FFC700"/>
<path d="M140.802 50.0889H160.844V52.2667H140.802V50.0889Z" fill="#FFC700"/>
<path d="M115.863 50.0889H138.82V52.2667H115.863V50.0889Z" fill="#FFC700"/>
<path d="M171.625 88.9902H115.86V86.8125H171.625V88.9902Z" fill="#FFC700"/>
<path d="M183.651 88.9902H174.48V86.8125H183.651V88.9902Z" fill="#FFC700"/>
<path d="M171.625 101.227H115.86V99.0488H171.625V101.227Z" fill="#FFC700"/>
<path d="M183.651 101.227H174.48V99.0488H183.651V101.227Z" fill="#FFC700"/>
<path d="M134.539 76.7388H115.857V74.561H134.539V76.7388Z" fill="#FFC700"/>
<path d="M158.718 76.7388H138.676V74.561H158.718V76.7388Z" fill="#FFC700"/>
<path d="M183.652 76.7388H160.695V74.561H183.652V76.7388Z" fill="#FFC700"/>
<path d="M182.884 124.355L183.668 122.785C183.638 122.77 181.582 121.748 179.245 120.355C179.556 119.97 179.822 119.541 180.059 119.081C182.041 115.215 180.429 113.289 179.645 112.652C177.722 111.067 174.113 111.259 171.775 113.096C171.154 113.585 170.858 114.267 170.932 114.993C171.036 115.955 171.716 117.57 176.317 120.593C175.104 121.304 173.743 121.526 172.589 121.57C169.009 121.689 165.74 120.118 165.223 119.259L163.67 116.652L163.596 119.689C163.581 120.326 163.329 121.185 163.048 121.274C163.004 121.289 162.102 121.541 159.543 118.281L158.167 119.363C160.46 122.281 162.19 123.422 163.61 122.948C164.365 122.696 164.794 122.044 165.045 121.407C166.776 122.533 169.749 123.437 172.663 123.348C174.763 123.274 176.553 122.681 177.944 121.63C180.488 123.155 182.78 124.296 182.884 124.355ZM176.302 113.318C177.174 113.318 177.988 113.541 178.535 114C179.852 115.081 179.068 117.141 178.491 118.267C178.269 118.696 178.018 119.081 177.737 119.407C173.195 116.504 172.722 115.156 172.678 114.8C172.663 114.726 172.663 114.622 172.855 114.459C173.817 113.718 175.118 113.318 176.302 113.318Z" fill="#FFC700"/>
<path d="M111.677 33.8516C111.677 33.8516 115.848 29.0961 114.517 25.985C113.186 22.8739 108.896 23.3183 108.305 22.1331C107.713 20.9479 100.45 20.6961 99.8882 23.659C99.3261 26.622 95.0809 33.4072 101.264 35.6887C107.447 37.9702 111.677 33.8516 111.677 33.8516Z" fill="#0B4870"/>
<path d="M105.952 47.6445C105.952 47.6445 104.725 62.7556 106.189 66.8297C107.654 70.9037 112.535 86.1037 112.535 86.1037L115.404 84.726C115.404 84.726 113.038 72.0889 111.558 64.8889C110.079 57.6741 109.014 45.8074 107.003 41.2593L105.952 47.6445Z" fill="#F3C3A3"/>
<path d="M103.586 76.0442C103.586 76.0442 105.198 95.6442 105.198 99.0516C105.198 102.459 105.198 138.77 105.198 138.77H100.909C100.909 138.77 96.3232 107.348 96.1753 103.052C96.0274 98.7553 92.2851 80.6664 92.2851 80.6664C92.2851 80.6664 88.957 64.296 103.586 76.0442Z" fill="#FFC700"/>
<path d="M92.7729 78.2666C92.7729 78.2666 91.2346 100.844 90.3471 104.77C89.4596 108.696 76.4429 138.77 76.4429 138.77H72.3013C72.3013 138.77 79.7415 108.622 81.5165 105.289C83.2915 101.955 80.8361 74.9629 80.8361 74.9629L92.7729 78.2666Z" fill="#FFC700"/>
<path d="M102.669 37.2888C102.669 37.2888 86.0431 23.8962 79.4312 82.8888H104.592C104.592 82.8888 102.166 77.3184 103.216 69.9258C105.198 55.9851 111.869 38.3406 102.669 37.2888Z" fill="#2A94F4"/>
<path d="M66.7246 52.6367L63.8255 56.7997L126.217 103.496L132.074 95.0664L66.7246 52.6367Z" fill="#0B4870"/>
<path d="M126.054 103.377L132.356 107.777C134.116 109.007 136.542 108.577 137.769 106.814L139.189 104.77C140.417 103.007 139.988 100.577 138.228 99.3477L131.927 94.9478L126.054 103.377Z" fill="#0E538C"/>
<path d="M148.686 106.133L156.599 118L150.461 113.718C150.15 113.066 149.558 112.029 148.538 111.318C146.955 110.207 145.357 109.763 144.973 110.311C144.588 110.859 145.565 112.207 147.147 113.318C148.168 114.029 149.336 114.237 150.061 114.296L156.2 118.578L142.355 115.259C142.355 115.259 135.462 107.822 137.4 105.022C139.322 102.222 148.686 106.133 148.686 106.133Z" fill="#FFC700"/>
<path d="M94.3853 47.7629L87.3741 44.3999C87.3741 44.3999 78.3512 58.7406 77.2122 64.874C76.0733 71.0073 93.8232 80.7703 93.8232 80.7703L94.9326 79.6888C94.9326 79.6888 84.608 67.8369 81.8568 65.5555L94.3853 47.7629Z" fill="#F3C3A3"/>
<path d="M94.9325 79.6888C94.9325 79.6888 95.465 79.3925 96.9442 79.6888C98.4233 79.9851 100.198 81.9555 100.198 81.9555C100.198 81.9555 101.204 82.6221 97.5358 81.7629C97.5358 81.7629 101.485 84.9925 102.964 86.1036C104.444 87.2147 98.7784 88.6962 93.8232 80.7703L94.9325 79.6888Z" fill="#F3C3A3"/>
<path d="M92.3148 52.0296L85.2888 47.1703C85.2888 47.1703 89.7263 35.7629 98.5716 35.9851C100.066 36.0296 102.299 39.8222 92.3148 52.0296Z" fill="#2A94F4"/>
<path d="M110.434 54.4888L104.251 55.5703L105.227 38.2666C105.227 38.2666 108.097 39.674 108.777 42.9185C109.487 46.1925 110.434 54.4888 110.434 54.4888Z" fill="#2A94F4"/>
<path d="M103.911 40.7555C103.911 40.7555 99.8733 40.0592 100.317 37.6888L102.891 32.3555L106.249 34.3851L103.911 40.7555Z" fill="#E0AD91"/>
<path d="M112.668 30.044C112.535 34.8441 108.304 38.6663 105.405 38.3107C101.441 37.8218 100.406 34.5774 100.642 32.4885C100.642 32.4885 99.7993 31.4366 99.888 29.9848C100.021 27.8366 101.382 28.0144 101.382 29.3478C101.382 31.5996 101.767 29.244 102.062 27.4959C102.358 25.7477 103.956 31.3626 106.751 30.6366C112.52 29.17 112.801 25.2589 112.668 30.044Z" fill="#F3C3A3"/>
<path d="M105.183 138.77C105.183 138.77 105.597 140.459 107.402 140.74C110.39 141.214 113.422 141.422 113.807 143.318C114.206 145.214 113.807 144.8 113.807 144.8H104.429C104.429 144.8 102.95 143.763 101.766 144.8H99.5033C99.5033 144.8 99.9915 141.081 100.095 140.489C100.199 139.881 100.879 138.77 100.879 138.77H105.183Z" fill="#0B4870"/>
<path d="M76.532 138.77C76.532 138.77 75.7924 140.148 78.7507 140.74C81.7091 141.348 84.7709 141.422 85.1555 143.318C85.5549 145.214 85.1555 144.8 85.1555 144.8H75.7776C75.7776 144.8 74.2985 143.763 73.1151 144.8H70.852C70.852 144.8 71.3401 141.081 71.4437 140.489C71.5472 139.881 72.2276 138.77 72.2276 138.77H76.532Z" fill="#0B4870"/>
</g>
<defs>
<clipPath id="clip0">
<rect width="284" height="160" fill="white" transform="matrix(-1 0 0 1 284 0)"/>
</clipPath>
</defs>
</svg>
