<svg width="78" height="78" viewBox="0 0 78 78" fill="none" xmlns="http://www.w3.org/2000/svg">
<g clip-path="url(#clip0)">
<path d="M71.3567 17.2089C70.8857 16.5113 69.9389 16.3277 69.2416 16.7986C68.5443 17.2694 68.3607 18.2164 68.8315 18.9136C78.4304 33.1322 76.5779 52.2714 64.4267 64.4226C57.6362 71.2132 48.6074 74.9529 39.0037 74.9529C29.4 74.9529 20.3714 71.2134 13.5806 64.4227C6.78995 57.6321 3.05033 48.6035 3.05033 38.9998C3.05033 29.3961 6.79011 20.3673 13.5806 13.5768C25.9514 1.20606 45.3088 -0.496091 59.6083 9.52946C60.2971 10.0125 61.2472 9.84558 61.7303 9.15667C62.2133 8.46777 62.0463 7.51774 61.3574 7.03465C53.9421 1.83571 44.8596 -0.616139 35.7836 0.131877C26.6008 0.888273 17.9505 4.89785 11.4261 11.4222C4.06007 18.7884 0.00341797 28.5823 0.00341797 38.9998C0.00341797 49.4173 4.06007 59.2112 11.4261 66.5774C18.7923 73.9434 28.5862 78.0001 39.0036 78.0001C49.421 78.0001 59.2149 73.9434 66.581 66.5774C79.7618 53.3964 81.7703 32.634 71.3567 17.2089Z" fill="black"/>
<path d="M46 9.5L37 9L31.5 10L24 13L16 19L11 27.5L8.5 36L9.5 46L13 55.5L19.5 62L28.5 67.5L38 69.5L47.5 68L56.5 64L63 58L67.5 50L69 40L68 29.5L63 21L56.5 14L46 9.5Z" fill="#FFC700"/>
<path d="M39.0023 7.23584C21.4876 7.23584 7.23828 21.4852 7.23828 38.9999C7.23828 56.5146 21.4876 70.7639 39.0023 70.7639C56.517 70.7639 70.7664 56.5146 70.7664 38.9999C70.7664 21.4852 56.517 7.23584 39.0023 7.23584ZM39.0023 67.717C23.1677 67.717 10.2852 54.8347 10.2852 38.9999C10.2852 23.1651 23.1677 10.2828 39.0023 10.2828C54.837 10.2828 67.7195 23.1651 67.7195 38.9999C67.7195 54.8347 54.837 67.717 39.0023 67.717Z" fill="black"/>
<path d="M48.6979 46.5404L43.6923 41.5349C44.1018 40.7805 44.3346 39.9168 44.3346 38.9997C44.3346 36.589 42.7258 34.5477 40.526 33.8905V22.8511C40.526 22.0097 39.8439 21.3276 39.0025 21.3276C38.1611 21.3276 37.479 22.0097 37.479 22.8511V33.8905C35.2792 34.5477 33.6704 36.5888 33.6704 38.9997C33.6704 41.9398 36.0624 44.3318 39.0025 44.3318C39.9196 44.3318 40.7833 44.099 41.5377 43.6895L46.5433 48.695C46.8408 48.9925 47.2307 49.1412 47.6205 49.1412C48.0105 49.1412 48.4002 48.9924 48.6978 48.695C49.2928 48.0998 49.2928 47.1353 48.6979 46.5404ZM36.7175 38.9997C36.7175 37.7397 37.7426 36.7145 39.0027 36.7145C40.2627 36.7145 41.2878 37.7397 41.2878 38.9997C41.2878 40.2598 40.2629 41.2849 39.0027 41.2849C37.7426 41.2849 36.7175 40.2598 36.7175 38.9997Z" fill="black"/>
<path d="M39.0024 17.9969C39.8438 17.9969 40.5259 17.3148 40.5259 16.4735V14.9307C40.5259 14.0893 39.8438 13.4072 39.0024 13.4072C38.161 13.4072 37.479 14.0893 37.479 14.9307V16.4735C37.479 17.3148 38.161 17.9969 39.0024 17.9969Z" fill="black"/>
<path d="M28.2868 17.3934C27.8661 16.6646 26.9342 16.415 26.2058 16.8358C25.4772 17.2566 25.2275 18.1881 25.6483 18.9168L26.4197 20.253C26.7019 20.7417 27.2139 21.0149 27.7404 21.0149C27.9988 21.0149 28.261 20.9491 28.5007 20.8106C29.2294 20.3898 29.4791 19.4582 29.0583 18.7296L28.2868 17.3934Z" fill="black"/>
<path d="M20.2559 26.4172L18.9197 25.6457C18.1912 25.2251 17.2593 25.4747 16.8387 26.2033C16.4179 26.932 16.6676 27.8636 17.3963 28.2843L18.7325 29.0558C18.9724 29.1943 19.2343 29.2601 19.4928 29.2601C20.0192 29.2601 20.5313 28.9869 20.8135 28.4981C21.2343 27.7697 20.9846 26.838 20.2559 26.4172Z" fill="black"/>
<path d="M17.9995 38.9998C17.9995 38.1584 17.3174 37.4763 16.476 37.4763H14.9331C14.0917 37.4763 13.4097 38.1584 13.4097 38.9998C13.4097 39.8412 14.0917 40.5232 14.9331 40.5232H16.476C17.3173 40.5232 17.9995 39.841 17.9995 38.9998Z" fill="black"/>
<path d="M18.7325 48.9435L17.3963 49.715C16.6676 50.1356 16.4179 51.0673 16.8387 51.796C17.1208 52.2847 17.6329 52.5579 18.1594 52.5579C18.4177 52.5579 18.6798 52.4921 18.9197 52.3536L20.2559 51.5821C20.9846 51.1615 21.2343 50.2298 20.8135 49.5011C20.3929 48.7723 19.461 48.5226 18.7325 48.9435Z" fill="black"/>
<path d="M28.5012 57.1887C27.7728 56.7681 26.841 57.0176 26.4202 57.7463L25.6487 59.0825C25.2279 59.8112 25.4778 60.7429 26.2063 61.1635C26.4462 61.302 26.7081 61.3678 26.9666 61.3678C27.4931 61.3678 28.0052 61.0946 28.2873 60.6059L29.0588 59.2697C29.4795 58.5411 29.2297 57.6093 28.5012 57.1887Z" fill="black"/>
<path d="M39.0024 60.0024C38.161 60.0024 37.479 60.6845 37.479 61.5259V63.0687C37.479 63.91 38.161 64.5921 39.0024 64.5921C39.8438 64.5921 40.5259 63.91 40.5259 63.0687V61.5259C40.5257 60.6845 39.8438 60.0024 39.0024 60.0024Z" fill="black"/>
<path d="M51.5847 57.7461C51.1642 57.0176 50.2329 56.7679 49.5037 57.1883C48.7751 57.609 48.5253 58.5407 48.9461 59.2693L49.7174 60.6056C49.9995 61.0943 50.5116 61.3676 51.0382 61.3676C51.2966 61.3676 51.5585 61.3018 51.7984 61.1633C52.5269 60.7427 52.7768 59.8108 52.356 59.0823L51.5847 57.7461Z" fill="black"/>
<path d="M60.6084 49.7147L59.2722 48.9432C58.5433 48.5223 57.6118 48.7722 57.1912 49.5008C56.7705 50.2295 57.0201 51.1612 57.7488 51.5818L59.085 52.3533C59.3249 52.4919 59.5868 52.5576 59.8452 52.5576C60.3717 52.5576 60.8839 52.2844 61.166 51.7957C61.5866 51.0671 61.3371 50.1353 60.6084 49.7147Z" fill="black"/>
<path d="M60.0049 38.9998C60.0049 39.8412 60.6871 40.5232 61.5283 40.5232H63.0713C63.9125 40.5232 64.5947 39.8412 64.5947 38.9998C64.5947 38.1584 63.9125 37.4763 63.0713 37.4763H61.5283C60.6869 37.4763 60.0049 38.1584 60.0049 38.9998Z" fill="black"/>
<path d="M57.7488 26.4171C57.0201 26.8378 56.7705 27.7694 57.1912 28.4981C57.4735 28.9869 57.9854 29.2601 58.512 29.2601C58.7704 29.2601 59.0324 29.1943 59.2722 29.0558L60.6084 28.2843C61.3371 27.8636 61.5868 26.932 61.166 26.2033C60.7452 25.4747 59.8138 25.2251 59.085 25.6457L57.7488 26.4171Z" fill="black"/>
<path d="M51.7984 16.8358C51.0696 16.4149 50.138 16.6647 49.7174 17.3934L48.9461 18.7296C48.5253 19.4583 48.775 20.39 49.5037 20.8106C49.7436 20.9493 50.0055 21.0149 50.2639 21.0149C50.7904 21.0149 51.3026 20.7418 51.5847 20.253L52.3562 18.9168C52.7768 18.1882 52.5273 17.2564 51.7984 16.8358Z" fill="black"/>
<path d="M65.6711 14.3105C66.5118 14.3105 67.1934 13.629 67.1934 12.7883C67.1934 11.9476 66.5118 11.2661 65.6711 11.2661C64.8304 11.2661 64.1489 11.9476 64.1489 12.7883C64.1489 13.629 64.8304 14.3105 65.6711 14.3105Z" fill="black"/>
</g>
<defs>
<clipPath id="clip0">
<rect width="78" height="78" fill="white"/>
</clipPath>
</defs>
</svg>
