<svg width="157" height="147" viewBox="0 0 157 147" fill="none" xmlns="http://www.w3.org/2000/svg">
<g clip-path="url(#clip0)">
<path opacity="0.18" d="M92.001 145.163C93.5947 145.818 95.3564 145.914 97.0762 145.995C111.59 146.693 126.114 147.027 140.648 146.997C142.101 146.997 143.586 146.983 144.947 146.48C146.309 145.978 147.542 144.875 147.781 143.447C138.681 142.743 129.516 142.812 120.448 142.477C115.694 142.302 110.757 142.895 106.028 143.346C103.631 143.576 101.239 143.845 98.8503 144.153C97.348 144.35 93.3377 145.712 92.001 145.163Z" fill="#1D2741"/>
<path d="M120.424 140.709L121.543 143.449L117.021 145.582L112.845 145.884C112.845 145.884 112.131 143.144 114.081 142.9C115.221 142.77 116.308 142.352 117.239 141.684L120.424 140.709Z" fill="#FFC700"/>
<path d="M124.014 141.948C123.447 142.181 122.954 142.563 122.588 143.052C122.221 143.542 121.995 144.122 121.933 144.73L121.812 145.885H126.946V141.945L124.014 141.948Z" fill="#FFC700"/>
<path d="M157 16.111V84.5313C157 86.2662 156.404 87.9489 155.31 89.2986C154.216 90.6482 152.691 91.5833 150.988 91.9477C150.464 92.0578 149.93 92.1131 149.395 92.1127H7.97605C6.97667 92.1134 5.98696 91.9177 5.0635 91.537C4.14005 91.1562 3.30094 90.5978 2.59416 89.8937C1.88738 89.1897 1.32678 88.3536 0.944411 87.4335C0.562041 86.5134 0.365398 85.5272 0.365723 84.5313V16.111C0.367686 14.1002 1.17012 12.1724 2.5969 10.7505C4.02369 9.3287 5.95826 8.52906 7.97605 8.5271H149.395C151.242 8.52743 153.027 9.19812 154.415 10.4139C155.802 11.6297 156.699 13.3073 156.936 15.1335C156.98 15.4575 157.001 15.7841 157 16.111Z" fill="#FFC700"/>
<path d="M157 16.6215V85.381C157 87.1245 156.402 88.8156 155.306 90.1719C154.209 91.5283 152.68 92.4679 150.974 92.8342C150.449 92.9448 149.914 93.0004 149.377 93H7.62809C6.62638 93.0006 5.63436 92.804 4.70875 92.4214C3.78313 92.0388 2.94207 91.4776 2.23364 90.77C1.52521 90.0624 0.963301 89.2223 0.580039 88.2976C0.196776 87.3729 -0.00032525 86.3818 4.02877e-07 85.381V16.6215C0.00196749 14.6008 0.806271 12.6633 2.23639 11.2345C3.66651 9.80557 5.6056 9.00197 7.62809 9H149.377C151.229 9.00033 153.018 9.67435 154.409 10.8961C155.8 12.1179 156.698 13.8039 156.936 15.6391C156.98 15.9647 157.001 16.293 157 16.6215Z" fill="url(#paint0_linear)"/>
<path d="M102.22 68.7012H49.2792C48.1984 68.7012 47.3223 69.5743 47.3223 70.6513V73.8597C47.3223 74.9367 48.1984 75.8099 49.2792 75.8099H102.22C103.301 75.8099 104.177 74.9367 104.177 73.8597V70.6513C104.177 69.5743 103.301 68.7012 102.22 68.7012Z" fill="#F3EDDF" stroke="#FFC700" stroke-width="0.88" stroke-miterlimit="10"/>
<path d="M51.9575 73.8988C52.8158 73.8988 53.5117 73.2054 53.5117 72.3501C53.5117 71.4947 52.8158 70.8013 51.9575 70.8013C51.0991 70.8013 50.4033 71.4947 50.4033 72.3501C50.4033 73.2054 51.0991 73.8988 51.9575 73.8988Z" fill="#FFC700"/>
<path d="M56.7934 73.8988C57.6518 73.8988 58.3476 73.2054 58.3476 72.3501C58.3476 71.4947 57.6518 70.8013 56.7934 70.8013C55.9351 70.8013 55.2393 71.4947 55.2393 72.3501C55.2393 73.2054 55.9351 73.8988 56.7934 73.8988Z" fill="#FFC700"/>
<path d="M61.6313 73.8988C62.4897 73.8988 63.1855 73.2054 63.1855 72.3501C63.1855 71.4947 62.4897 70.8013 61.6313 70.8013C60.773 70.8013 60.0771 71.4947 60.0771 72.3501C60.0771 73.2054 60.773 73.8988 61.6313 73.8988Z" fill="#FFC700"/>
<path d="M66.4668 73.8988C67.3251 73.8988 68.021 73.2054 68.021 72.3501C68.021 71.4947 67.3251 70.8013 66.4668 70.8013C65.6084 70.8013 64.9126 71.4947 64.9126 72.3501C64.9126 73.2054 65.6084 73.8988 66.4668 73.8988Z" fill="#FFC700"/>
<path d="M108.015 71.9265V71.109H108.662V70.582H108.015V70.1881H108.662V69.6611H107.365V71.9265C106.971 72.0067 106.621 72.2299 106.382 72.5528C106.144 72.8757 106.034 73.2753 106.075 73.6742C106.115 74.073 106.303 74.4427 106.601 74.7115C106.9 74.9804 107.288 75.1292 107.69 75.1292C108.092 75.1292 108.48 74.9804 108.778 74.7115C109.077 74.4427 109.265 74.073 109.305 73.6742C109.345 73.2753 109.236 72.8757 108.997 72.5528C108.759 72.2299 108.409 72.0067 108.015 71.9265ZM107.691 74.635C107.468 74.6355 107.249 74.5699 107.063 74.4466C106.877 74.3232 106.732 74.1476 106.646 73.9421C106.56 73.7365 106.537 73.5101 106.581 73.2917C106.624 73.0733 106.731 72.8725 106.889 72.7149C107.047 72.5573 107.248 72.4499 107.467 72.4063C107.686 72.3626 107.914 72.3848 108.12 72.4699C108.327 72.555 108.503 72.6992 108.627 72.8843C108.751 73.0694 108.818 73.2871 108.818 73.5097C108.818 73.808 108.699 74.0941 108.488 74.3054C108.277 74.5168 107.99 74.6362 107.691 74.6375V74.635Z" fill="#FFC700"/>
<path d="M85.4039 30.9832H69.1899C67.5851 30.9832 66.2842 32.2796 66.2842 33.8788V50.0365C66.2842 51.6358 67.5851 52.9322 69.1899 52.9322H85.4039C87.0087 52.9322 88.3096 51.6358 88.3096 50.0365V33.8788C88.3096 32.2796 87.0087 30.9832 85.4039 30.9832Z" fill="#766123"/>
<path d="M85.4923 30.9832H70.4471C68.8928 30.9832 67.6328 32.2388 67.6328 33.7877V50.1276C67.6328 51.6766 68.8928 52.9322 70.4471 52.9322H85.4923C87.0467 52.9322 88.3067 51.6766 88.3067 50.1276V33.7877C88.3067 32.2388 87.0467 30.9832 85.4923 30.9832Z" fill="#FFC700"/>
<path d="M89.1596 42.0294L88.023 43.1054L87.5288 43.5683C87.1393 43.105 86.645 42.7404 86.0866 42.5046C85.5282 42.2687 84.9216 42.1683 84.3166 42.2116C84.0521 42.2435 83.7839 42.1999 83.5432 42.086C82.7254 41.6231 84.0078 40.0447 84.0078 40.0447C84.2899 40.0386 84.5722 40.0509 84.8528 40.0817C84.8774 40.0793 84.9023 40.0793 84.9269 40.0817L85.1518 40.1088C86.2241 40.2614 87.9711 40.7711 89.1596 42.0294Z" fill="white"/>
<path opacity="0.39" d="M87.9787 43.0044L88.0232 43.1053L87.529 43.5682C87.1395 43.1049 86.6453 42.7404 86.0868 42.5045C85.5284 42.2686 84.9218 42.1682 84.3168 42.2115C84.0523 42.2434 83.7841 42.1999 83.5435 42.0859L84.008 40.0447C84.008 40.0447 84.4651 40.0447 84.853 40.0816C84.8777 40.0792 84.9025 40.0792 84.9272 40.0816C85.0026 40.0861 85.0777 40.0951 85.152 40.1087C85.152 40.1087 85.4213 41.2561 85.2212 41.7387C85.2212 41.7461 87.1164 42.0613 87.9787 43.0044Z" fill="#C4C4C4"/>
<path d="M77.6797 35.6099H76.9137C76.2982 35.6099 75.7993 36.1071 75.7993 36.7204V47.195C75.7993 47.8084 76.2982 48.3055 76.9137 48.3055H77.6797C78.2951 48.3055 78.794 47.8084 78.794 47.195V36.7204C78.794 36.1071 78.2951 35.6099 77.6797 35.6099Z" fill="url(#paint1_linear)"/>
<path d="M84.3116 41.7853C84.2992 43.1144 83.7611 44.385 82.814 45.3209C81.8669 46.2568 80.5875 46.7825 79.2537 46.7838H78.1641C77.9996 46.7836 77.8384 46.7373 77.699 46.6503C77.5597 46.5632 77.4477 46.4388 77.3759 46.2913C77.3093 46.1578 77.2781 46.0096 77.2852 45.8607C77.2923 45.7119 77.3375 45.5673 77.4165 45.4407C77.4954 45.3141 77.6056 45.2098 77.7364 45.1376C77.8673 45.0654 78.0145 45.0277 78.1641 45.0282H78.5693C79.0086 45.0283 79.4434 44.9409 79.8484 44.7713C80.2533 44.6016 80.6202 44.3531 80.9275 44.0403C81.2347 43.7274 81.4762 43.3566 81.6377 42.9495C81.7992 42.5424 81.8775 42.1072 81.8679 41.6696C81.8383 40.8019 81.47 39.9801 80.8415 39.379C80.2129 38.7779 79.3737 38.4451 78.5026 38.4513H78.0084C77.817 38.4513 77.6335 38.3756 77.4982 38.2407C77.3629 38.1059 77.2869 37.923 77.2869 37.7323V37.427C77.2869 37.2363 77.3629 37.0534 77.4982 36.9186C77.6335 36.7838 77.817 36.708 78.0084 36.708H79.1672C81.9667 36.7055 84.3314 38.9906 84.3116 41.7853Z" fill="white"/>
<path opacity="0.39" d="M82.9626 41.9872C82.9528 43.143 82.4855 44.2483 81.6624 45.0626C80.8392 45.8769 79.7267 46.3344 78.5669 46.3357H77.6181C77.5341 46.3357 77.4507 46.3224 77.371 46.2963C77.3044 46.1628 77.2732 46.0146 77.2803 45.8657C77.2874 45.7168 77.3326 45.5722 77.4116 45.4456C77.4906 45.3191 77.6007 45.2147 77.7316 45.1425C77.8624 45.0703 78.0096 45.0326 78.1592 45.0331H78.5644C79.0037 45.0332 79.4386 44.9459 79.8435 44.7762C80.2485 44.6066 80.6153 44.358 80.9226 44.0452C81.2299 43.7324 81.4713 43.3615 81.6328 42.9544C81.7943 42.5473 81.8726 42.1122 81.863 41.6745C81.8334 40.8069 81.4651 39.985 80.8366 39.3839C80.208 38.7828 79.3688 38.45 78.4977 38.4563H78.0035C77.8122 38.4563 77.6286 38.3805 77.4933 38.2457C77.358 38.1108 77.282 37.928 77.282 37.7373V37.6018C77.3458 37.5811 77.4125 37.5703 77.4797 37.5698H78.4853C79.6659 37.5672 80.7995 38.0303 81.6384 38.8581C82.4774 39.6858 82.9534 40.8108 82.9626 41.9872Z" fill="#C4C4C4"/>
<path d="M81.71 40.7437C81.71 40.7437 82.0411 41.6276 81.6284 42.977C81.6284 42.977 80.0643 44.5799 81.3986 47.1284L82.5006 48.3029L81.2182 49.5612C80.4211 48.9459 79.8026 48.1305 79.4262 47.1984C79.0497 46.2664 78.9288 45.2513 79.076 44.2574C79.3601 42.0856 81.71 40.7437 81.71 40.7437Z" fill="white"/>
<path d="M80.123 50.5759L90.2784 40.9729L98.798 48.3032L88.3066 58.3322L80.123 50.5759Z" fill="#FFC700"/>
<path d="M80.123 50.5759L80.7976 54.3827L88.3066 61.5628V58.3322L80.123 50.5759Z" fill="#68E1FD"/>
<path d="M98.798 48.3032V51.7972L88.3066 61.5628V58.3322L98.798 48.3032Z" fill="#68E1FD"/>
<path d="M80.123 50.5759L80.7976 54.3827L88.3066 61.5628V58.3322L80.123 50.5759Z" fill="#766122"/>
<path d="M98.798 48.3032V51.7972L88.3066 61.5628V58.3322L98.798 48.3032Z" fill="#766122"/>
<path d="M81.9961 52.3515L92.2478 42.6672L93.1941 43.4823L82.9622 53.2675L81.9961 52.3515Z" fill="url(#paint2_linear)"/>
<path d="M85.0229 55.1559L95.5193 45.4717L96.4656 46.2842L85.9891 56.0694L85.0229 55.1559Z" fill="url(#paint3_linear)"/>
<path opacity="0.21" d="M114.303 64.6901C114.2 66.2113 114.283 67.7393 114.55 69.2405C114.718 70.1688 114.943 71.1906 114.464 72.0081C114.217 72.4513 113.772 72.7616 113.374 73.0891C110.849 75.1574 109.389 78.2279 107.232 80.6755C107.089 80.8768 106.881 81.0236 106.644 81.0916C106.399 81.1075 106.156 81.0388 105.957 80.8971C104.643 80.1417 103.539 79.072 102.745 77.7847C102.357 77.1543 102.003 76.4354 101.336 76.1128C100.101 75.5071 98.6034 76.7949 98.4675 78.1664C98.3316 79.5379 99.0704 80.8281 99.7844 82.0076L103.088 87.469C104.094 89.1335 105.154 90.8547 106.794 91.9011C107.93 92.5909 109.205 93.0198 110.528 93.1569C112.401 93.4031 114.301 93.28 116.186 93.1348C119.634 92.8688 123.073 92.5274 126.502 92.1104C127.678 91.9676 129.015 91.7115 129.611 90.6946C130.011 90.0101 129.956 89.1655 129.887 88.3776C129.645 85.5229 129.398 82.6691 129.146 79.8161C129.01 78.1984 128.807 76.4403 127.663 75.2879C126.979 74.6034 126.02 74.2143 125.412 73.4584C124.978 72.8524 124.698 72.1501 124.597 71.4122C124.011 68.3343 124.572 65.0275 123.362 62.1293C123.115 61.5433 122.783 60.9622 122.237 60.6347C121.736 60.3757 121.172 60.2623 120.609 60.3072C117.903 60.3835 114.501 61.6689 114.303 64.6901Z" fill="url(#paint4_linear)"/>
<path opacity="0.18" d="M151.062 108.15C149.597 124.974 103.147 119.584 69.7432 112.764C36.3393 105.943 8.77909 119.584 2.42397 108.15C-0.390364 103.087 1.48998 96.7638 4.46245 91.2876C5.59539 91.9169 6.87176 92.245 8.16878 92.2405H148.327C150.257 96.7687 151.584 102.186 151.062 108.15Z" fill="#FFDF8E"/>
<path d="M114.572 101.159L111.531 123.236C111.403 124.166 111.5 125.112 111.815 125.996L117.251 141.947L120.428 140.962L118.031 125.093C117.98 124.764 118.002 124.428 118.096 124.108L122.22 109.915L124.013 141.925H126.946L129.469 110.336C130.324 105.057 128.758 101.159 128.758 101.159H114.572Z" fill="#3F3D56"/>
<path d="M130.162 95.3139L127.152 75.9946L126.732 73.6406C126.732 73.6406 132.351 76.8416 133.962 82.4409C136.069 89.791 130.162 95.3139 130.162 95.3139Z" fill="#68E1FD"/>
<path d="M130.162 95.3139L127.152 75.9946L126.732 73.6406C126.732 73.6406 132.351 76.8416 133.962 82.4409C136.069 89.791 130.162 95.3139 130.162 95.3139Z" fill="url(#paint5_linear)"/>
<path d="M133.25 90.8175C135.531 86.3238 131.026 78.5059 131.026 78.5059L127.147 75.9968L127.584 73.207C127.584 73.207 133.841 73.8448 134.451 82.6475C134.653 85.4816 134.441 88.9831 133.25 90.8175Z" fill="#FFC700"/>
<path d="M101.017 75.7333C100.807 75.0242 100.441 74.1796 99.6998 74.1156C99.9008 74.7622 99.8711 75.4582 99.6158 76.0855C97.9999 75.4896 97.6243 73.1307 96.0108 72.52C95.7637 72.781 95.9021 73.207 96.0553 73.532C96.337 74.1378 96.6203 74.7435 96.9053 75.3492C96.5264 74.755 96.1237 74.1804 95.697 73.6256C95.571 73.4557 95.3536 73.271 95.1757 73.3794C94.9978 73.4877 95.062 73.7167 95.1263 73.894C95.4079 74.6819 95.7291 75.4576 96.0825 76.216C95.6859 75.5524 95.232 74.9246 94.726 74.3397C94.3949 74.4209 94.4641 74.9085 94.6074 75.2163L95.6674 77.4668L94.8174 76.2356C94.5431 76.2627 94.5851 76.6813 94.7186 76.9226C95.8584 78.9507 97.6393 80.5462 99.7839 81.4607C100.219 81.6454 100.723 81.798 101.15 81.5986C102.989 80.7639 101.373 76.9497 101.017 75.7333Z" fill="url(#paint6_linear)"/>
<path d="M130.162 81.7093V96.8574C130.162 98.714 129.858 100.223 127.992 100.223H114.966C113.108 100.223 113.036 98.7288 113.024 96.8796L112.927 86.5847C112.927 86.5847 110.115 91.5758 107.872 91.0907C105.628 90.6056 98.9766 81.468 98.9766 81.468L102.288 78.6954L107.867 84.2701C107.867 84.2701 108.764 82.2387 110.068 77.6908C111.373 73.1429 115.613 73.1306 115.613 73.1306H126.94C131.029 73.1306 130.162 81.7093 130.162 81.7093Z" fill="#FFC700"/>
<path d="M130.161 83.4155C130.161 83.4155 132.118 86.1561 130.161 88.8966V83.4155Z" fill="#3F3D56"/>
<path d="M128.758 100.127H114.572V101.159H128.758V100.127Z" fill="url(#paint7_linear)"/>
<path d="M123.497 62.8281H119.403V73.2018H123.497V62.8281Z" fill="url(#paint8_linear)"/>
<path d="M123.5 61.6907V73.2044H121.34V72.5027C121.34 72.2984 121.3 72.0962 121.221 71.9075C121.143 71.7189 121.028 71.5475 120.883 71.4032C120.738 71.2588 120.566 71.1445 120.376 71.0665C120.187 70.9886 119.984 70.9486 119.779 70.949H119.655C118.626 70.949 117.64 70.5417 116.912 69.8167C116.185 69.0917 115.776 68.1084 115.776 67.0831V61.6907H123.5Z" fill="url(#paint9_linear)"/>
<path d="M115.776 62.8284C115.776 62.8284 112.193 60.8807 113.475 58.7484C114.758 56.616 116.848 57.958 116.848 57.958H123.754C123.754 57.958 124.548 57.8349 124.854 59.1744C125.16 60.5139 123.51 68.8291 123.51 68.8291H120.078L119.638 66.6672C119.638 66.6672 120.322 65.9285 120.261 65.143C120.266 64.996 120.221 64.8515 120.132 64.7338C120.044 64.6162 119.917 64.5325 119.774 64.497C119.631 64.4614 119.479 64.4761 119.346 64.5386C119.212 64.6011 119.104 64.7076 119.04 64.8401C118.731 65.3868 118.855 63.0722 117.755 62.8284C117.104 62.6811 116.427 62.6811 115.776 62.8284Z" fill="#3F3D56"/>
<path d="M122.583 73.1823C122.583 73.1823 120.994 75.2556 118.793 75.2556C116.591 75.2556 110.177 81.5271 109.747 83.4157C109.317 85.3043 107.872 84.2701 107.872 84.2701C107.872 84.2701 108.769 82.2387 110.073 77.6908C111.378 73.1429 115.613 73.1306 115.613 73.1306H121.37L122.583 73.1823Z" fill="url(#paint10_linear)"/>
<path opacity="0.18" d="M29.6831 8.91089C29.6831 8.91089 61.3994 -11.1397 102.016 8.91089H29.6831Z" fill="#FFDF8E"/>
</g>
<defs>
<linearGradient id="paint0_linear" x1="-22.753" y1="30.3526" x2="216.128" y2="79.1516" gradientUnits="userSpaceOnUse">
<stop stop-color="white" stop-opacity="0"/>
<stop offset="1" stop-color="white"/>
</linearGradient>
<linearGradient id="paint1_linear" x1="74.1117" y1="41.9454" x2="99.4556" y2="42.0272" gradientUnits="userSpaceOnUse">
<stop stop-opacity="0"/>
<stop offset="0.02" stop-color="#030304" stop-opacity="0.04"/>
<stop offset="0.18" stop-color="#181821" stop-opacity="0.39"/>
<stop offset="0.35" stop-color="#292839" stop-opacity="0.66"/>
<stop offset="0.53" stop-color="#363449" stop-opacity="0.85"/>
<stop offset="0.73" stop-color="#3D3B53" stop-opacity="0.96"/>
<stop offset="0.99" stop-color="#3F3D56"/>
</linearGradient>
<linearGradient id="paint2_linear" x1="4243.53" y1="1847.15" x2="2922.42" y2="3834.64" gradientUnits="userSpaceOnUse">
<stop stop-opacity="0"/>
<stop offset="0.02" stop-color="#030304" stop-opacity="0.04"/>
<stop offset="0.18" stop-color="#181821" stop-opacity="0.39"/>
<stop offset="0.35" stop-color="#292839" stop-opacity="0.66"/>
<stop offset="0.53" stop-color="#363449" stop-opacity="0.85"/>
<stop offset="0.73" stop-color="#3D3B53" stop-opacity="0.96"/>
<stop offset="0.99" stop-color="#3F3D56"/>
</linearGradient>
<linearGradient id="paint3_linear" x1="4496.41" y1="1952.86" x2="3187.01" y2="3966.36" gradientUnits="userSpaceOnUse">
<stop stop-opacity="0"/>
<stop offset="0.02" stop-color="#030304" stop-opacity="0.04"/>
<stop offset="0.18" stop-color="#181821" stop-opacity="0.39"/>
<stop offset="0.35" stop-color="#292839" stop-opacity="0.66"/>
<stop offset="0.53" stop-color="#363449" stop-opacity="0.85"/>
<stop offset="0.73" stop-color="#3D3B53" stop-opacity="0.96"/>
<stop offset="0.99" stop-color="#3F3D56"/>
</linearGradient>
<linearGradient id="paint4_linear" x1="16478.6" y1="9098.95" x2="24717.6" y2="16499.9" gradientUnits="userSpaceOnUse">
<stop stop-opacity="0"/>
<stop offset="0.02" stop-color="#030304" stop-opacity="0.04"/>
<stop offset="0.18" stop-color="#181821" stop-opacity="0.39"/>
<stop offset="0.35" stop-color="#292839" stop-opacity="0.66"/>
<stop offset="0.53" stop-color="#363449" stop-opacity="0.85"/>
<stop offset="0.73" stop-color="#3D3B53" stop-opacity="0.96"/>
<stop offset="0.99" stop-color="#3F3D56"/>
</linearGradient>
<linearGradient id="paint5_linear" x1="5070.48" y1="7327.26" x2="3304.28" y2="7512.17" gradientUnits="userSpaceOnUse">
<stop stop-opacity="0"/>
<stop offset="0.02" stop-color="#030304" stop-opacity="0.04"/>
<stop offset="0.18" stop-color="#181821" stop-opacity="0.39"/>
<stop offset="0.35" stop-color="#292839" stop-opacity="0.66"/>
<stop offset="0.53" stop-color="#363449" stop-opacity="0.85"/>
<stop offset="0.73" stop-color="#3D3B53" stop-opacity="0.96"/>
<stop offset="0.99" stop-color="#3F3D56"/>
</linearGradient>
<linearGradient id="paint6_linear" x1="94.4888" y1="77.1122" x2="102.015" y2="77.1122" gradientUnits="userSpaceOnUse">
<stop stop-color="#EAE1BB"/>
<stop offset="0.42" stop-color="#E7DEC1"/>
<stop offset="1" stop-color="#F2EAC9"/>
</linearGradient>
<linearGradient id="paint7_linear" x1="6692.18" y1="521.809" x2="7506.56" y2="521.809" gradientUnits="userSpaceOnUse">
<stop stop-color="#FFDB59"/>
<stop offset="1" stop-color="#FFC700"/>
</linearGradient>
<linearGradient id="paint8_linear" x1="2110.89" y1="2929.29" x2="2222.33" y2="2928.5" gradientUnits="userSpaceOnUse">
<stop stop-color="#E1D7AB"/>
<stop offset="0.42" stop-color="#EFD4D1"/>
<stop offset="1" stop-color="#F2EAC9"/>
</linearGradient>
<linearGradient id="paint9_linear" x1="4619.62" y1="3192.39" x2="4570.39" y2="3209.82" gradientUnits="userSpaceOnUse">
<stop stop-color="#ECC4D7"/>
<stop offset="0.42" stop-color="#EFD4D1"/>
<stop offset="1" stop-color="#F2EAC9"/>
</linearGradient>
<linearGradient id="paint10_linear" x1="123.705" y1="82.0565" x2="106.24" y2="75.1947" gradientUnits="userSpaceOnUse">
<stop stop-color="white" stop-opacity="0"/>
<stop offset="1" stop-color="white"/>
</linearGradient>
<clipPath id="clip0">
<rect width="157" height="147" fill="white"/>
</clipPath>
</defs>
</svg>
