<svg width="162" height="113" viewBox="0 0 162 113" fill="none" xmlns="http://www.w3.org/2000/svg">
<g clip-path="url(#clip0)">
<path opacity="0.18" d="M1.05806 95.3722C0.653059 95.7118 0.230365 96.0792 0.0750496 96.5857C-0.188397 97.4138 0.344394 98.2777 0.932234 98.9133C3.9776 102.208 8.78648 102.979 13.2238 103.463C33.2595 105.648 53.4604 105.818 73.5295 103.972C73.365 104.096 73.2118 104.235 73.0714 104.387C70.3897 107.239 72.285 111.981 76.1777 112.283C101.075 114.219 126.178 111.866 151.083 109.503C153.079 109.304 154.675 105.705 156.338 104.575C158.001 103.445 159.028 101.09 158.035 99.3343C156.712 96.9968 152.811 97.0206 151.848 94.5103C150.9 92.0417 153.607 89.8134 154.518 87.3328C155.715 84.0678 153.476 80.3401 150.434 78.7076C147.393 77.0751 143.791 77.0135 140.345 77.0036C101.48 76.888 62.6346 78.7539 23.9563 82.5942C19.4344 83.0411 16.3439 83.1006 12.7185 85.5573C8.59774 88.3536 4.87214 92.1668 1.05806 95.3722Z" fill="#FFDD8C"/>
<path opacity="0.18" d="M122.204 109.316C123.061 109.143 124.001 108.968 124.771 109.385C125.165 109.598 125.475 109.947 125.884 110.122C126.641 110.446 127.494 110.104 128.289 109.89C131.307 109.074 134.472 110.188 137.592 110.335C140.555 110.476 143.49 109.739 146.358 109.006C147.107 108.807 148.033 108.39 147.969 107.616C147.874 106.504 146.038 106.623 145.43 105.695L150.662 102.915C151.242 102.607 151.869 102.248 152.091 101.626C152.351 100.897 151.922 100.061 151.279 99.6401C150.636 99.219 149.842 99.1257 149.075 99.1058C145.483 99.0164 142.013 100.28 138.498 101.044C134.443 101.926 130.275 102.152 126.15 101.713C125.2 101.61 124.239 101.475 123.301 101.64C120.92 102.061 118.938 104.132 116.87 105.278C115.197 106.206 113.426 106.931 111.654 107.64C109.688 108.424 105.909 109.133 104.596 110.875C106.379 111.701 109.338 111.002 111.261 110.849C114.935 110.556 118.589 110.044 122.204 109.316Z" fill="#898989"/>
<path d="M131.849 0H51.2856V53.372H131.849V0Z" fill="#68E1FD"/>
<path d="M131.849 0H51.2856V53.372H131.849V0Z" fill="#FFDF8E"/>
<path d="M51.2853 10.498H111.646L119.451 49.5271L50.8193 18.7976L51.2853 10.498Z" fill="url(#paint0_linear)"/>
<path d="M113.003 36.7669V81.6071C113.003 82.5552 112.63 83.4644 111.966 84.1349C111.303 84.8053 110.402 85.1819 109.464 85.1819H14.1375C13.1989 85.1819 12.2988 84.8053 11.6351 84.1349C10.9715 83.4644 10.5986 82.5552 10.5986 81.6071V25.1349C10.5986 24.1868 10.9715 23.2775 11.6351 22.6071C12.2988 21.9367 13.1989 21.5601 14.1375 21.5601H39.159C40.1712 21.5605 41.146 21.9466 41.8888 22.6413C42.6315 23.336 43.0875 24.2882 43.1657 25.3077L43.4194 28.6839C43.513 29.9113 44.0616 31.0578 44.9557 31.8943C45.8497 32.7308 47.0234 33.1957 48.242 33.1961H109.47C110.302 33.1972 111.108 33.495 111.745 34.037C112.382 34.5789 112.809 35.3304 112.952 36.1592C112.986 36.36 113.003 36.5633 113.003 36.7669Z" fill="#68E1FD"/>
<path d="M113.003 36.7669V81.6071C113.003 82.5552 112.63 83.4644 111.966 84.1349C111.303 84.8053 110.402 85.1819 109.464 85.1819H14.1375C13.1989 85.1819 12.2988 84.8053 11.6351 84.1349C10.9715 83.4644 10.5986 82.5552 10.5986 81.6071V25.1349C10.5986 24.1868 10.9715 23.2775 11.6351 22.6071C12.2988 21.9367 13.1989 21.5601 14.1375 21.5601H39.159C40.1712 21.5605 41.146 21.9466 41.8888 22.6413C42.6315 23.336 43.0875 24.2882 43.1657 25.3077L43.4194 28.6839C43.513 29.9113 44.0616 31.0578 44.9557 31.8943C45.8497 32.7308 47.0234 33.1957 48.242 33.1961H109.47C110.302 33.1972 111.108 33.495 111.745 34.037C112.382 34.5789 112.809 35.3304 112.952 36.1592C112.986 36.36 113.003 36.5633 113.003 36.7669Z" fill="#766122"/>
<path d="M49.6342 33.196H48.2422C47.0236 33.1957 45.8499 32.7308 44.9559 31.8942C44.0618 31.0577 43.5131 29.9112 43.4196 28.6838L43.1659 25.3076C43.1463 25.0388 43.1002 24.7727 43.0283 24.5132H44.9943C46.0068 24.5127 46.9822 24.8985 47.7251 25.5934C48.468 26.2883 48.9238 27.241 49.0011 28.2608L49.2567 31.637C49.2958 32.1743 49.4234 32.7012 49.6342 33.196Z" fill="#222A72"/>
<path d="M113.003 36.7669V81.607C113.003 82.5551 112.63 83.4644 111.966 84.1348C111.303 84.8052 110.403 85.1818 109.464 85.1818H16.495C16.4609 84.9818 16.4438 84.7791 16.4438 84.5761V28.088C16.4438 27.1399 16.8167 26.2306 17.4803 25.5602C18.144 24.8898 19.0441 24.5132 19.9827 24.5132H43.0284C43.1003 24.7727 43.1464 25.0388 43.166 25.3076L43.4196 28.6838C43.5132 29.9112 44.0618 31.0577 44.9559 31.8942C45.85 32.7308 47.0236 33.1957 48.2423 33.196H49.6342C50.0075 34.0751 50.6277 34.8242 51.4181 35.3509C52.2085 35.8776 53.1345 36.1586 54.0813 36.1591H112.952C112.986 36.3599 113.003 36.5632 113.003 36.7669Z" fill="#FFC700"/>
<path d="M108.045 11.7493V33.1982H48.2423C47.0234 33.1978 45.8495 32.7326 44.9553 31.8957C44.0612 31.0587 43.5128 29.9117 43.4197 28.684L43.1661 25.3078C43.0887 24.288 42.633 23.3353 41.8901 22.6404C41.1471 21.9455 40.1718 21.5597 39.1593 21.5602H21.9429V11.7493H108.045Z" fill="#68E1FD"/>
<path d="M108.045 11.7493V33.1982H48.2423C47.0234 33.1978 45.8495 32.7326 44.9553 31.8957C44.0612 31.0587 43.5128 29.9117 43.4197 28.684L43.1661 25.3078C43.0887 24.288 42.633 23.3353 41.8901 22.6404C41.1471 21.9455 40.1718 21.5597 39.1593 21.5602H21.9429V11.7493H108.045Z" fill="url(#paint1_linear)"/>
<path d="M50.8689 19.5006V33.2041H49.6343V19.5006C49.634 19.4186 49.6498 19.3374 49.6807 19.2616C49.7117 19.1859 49.7571 19.117 49.8145 19.059C49.8719 19.0011 49.94 18.9552 50.0151 18.9239C50.0901 18.8927 50.1705 18.8767 50.2516 18.877C50.3329 18.8762 50.4135 18.8918 50.4888 18.9228C50.564 18.9539 50.6324 18.9998 50.6899 19.0579C50.7474 19.1159 50.7928 19.185 50.8236 19.261C50.8543 19.337 50.8697 19.4185 50.8689 19.5006Z" fill="white"/>
<path d="M56.8177 19.5008V33.2043H55.583V19.5008C55.583 19.3354 55.648 19.1768 55.7638 19.0598C55.8796 18.9429 56.0366 18.8772 56.2003 18.8772C56.3641 18.8772 56.5211 18.9429 56.6369 19.0598C56.7526 19.1768 56.8177 19.3354 56.8177 19.5008Z" fill="url(#paint2_linear)"/>
<path d="M62.7791 19.5008V33.2043H61.5366V19.5008C61.5366 19.4189 61.5526 19.3378 61.5836 19.2622C61.6146 19.1865 61.6601 19.1178 61.7174 19.0598C61.7748 19.0019 61.8428 18.956 61.9177 18.9247C61.9926 18.8933 62.0729 18.8772 62.154 18.8772C62.235 18.8772 62.3153 18.8933 62.3902 18.9247C62.4651 18.956 62.5331 19.0019 62.5905 19.0598C62.6478 19.1178 62.6933 19.1865 62.7243 19.2622C62.7553 19.3378 62.7713 19.4189 62.7713 19.5008H62.7791Z" fill="url(#paint3_linear)"/>
<path d="M68.7342 19.5008V33.2043H67.4995V19.5008C67.4993 19.419 67.515 19.338 67.5458 19.2623C67.5766 19.1867 67.6219 19.1179 67.6791 19.06C67.7362 19.002 67.8041 18.9561 67.8789 18.9247C67.9537 18.8933 68.0339 18.8772 68.1149 18.8772C68.2788 18.877 68.4363 18.9419 68.5533 19.0579C68.6109 19.1161 68.6565 19.1851 68.6875 19.2611C68.7186 19.3371 68.7344 19.4186 68.7342 19.5008Z" fill="url(#paint4_linear)"/>
<path d="M74.6892 19.5008V33.2043H73.4546V19.5008C73.4546 19.3354 73.5196 19.1768 73.6354 19.0598C73.7512 18.9429 73.9082 18.8772 74.0719 18.8772C74.2356 18.8772 74.3927 18.9429 74.5084 19.0598C74.6242 19.1768 74.6892 19.3354 74.6892 19.5008Z" fill="url(#paint5_linear)"/>
<path d="M80.6438 19.5008V33.2043H79.4092V19.5008C79.4089 19.419 79.4247 19.338 79.4555 19.2623C79.4863 19.1867 79.5316 19.1179 79.5887 19.06C79.6459 19.002 79.7138 18.9561 79.7886 18.9247C79.8634 18.8933 79.9436 18.8772 80.0246 18.8772C80.1885 18.877 80.3459 18.9419 80.463 19.0579C80.5205 19.1161 80.5662 19.1851 80.5972 19.2611C80.6282 19.3371 80.6441 19.4186 80.6438 19.5008Z" fill="url(#paint6_linear)"/>
<path d="M86.5989 19.5008V33.2043H85.3643V19.5008C85.3643 19.3354 85.4293 19.1768 85.5451 19.0598C85.6608 18.9429 85.8178 18.8772 85.9816 18.8772C86.1453 18.8772 86.3023 18.9429 86.4181 19.0598C86.5338 19.1768 86.5989 19.3354 86.5989 19.5008Z" fill="url(#paint7_linear)"/>
<path d="M92.554 19.5008V33.2043H91.3193V19.5008C91.3193 19.3354 91.3844 19.1768 91.5002 19.0598C91.6159 18.9429 91.7729 18.8772 91.9367 18.8772C92.1004 18.8772 92.2574 18.9429 92.3732 19.0598C92.4889 19.1768 92.554 19.3354 92.554 19.5008Z" fill="url(#paint8_linear)"/>
<path d="M120.527 46.6476C119.843 47.0289 119.135 47.4003 118.364 47.5194C116.398 47.8233 114.513 46.4232 112.513 46.4113C111.673 46.4204 110.852 46.6712 110.147 47.1344C109.443 47.5976 108.883 48.2541 108.534 49.0268C110.357 49.3625 112.226 49.3009 114.078 49.2393L124.333 48.8918C125.082 48.866 125.924 48.7984 126.407 48.2225C126.714 47.8591 126.8 47.3665 126.997 46.9316C127.327 46.1988 127.939 45.6387 128.373 44.9615C128.855 44.2088 129.356 42.8166 129.044 41.909C128.601 40.6578 127.408 42.1453 126.74 42.6398C124.756 44.1094 122.681 45.4481 120.527 46.6476Z" fill="#68E1FD"/>
<path d="M120.527 46.6476C119.843 47.0289 119.135 47.4003 118.364 47.5194C116.398 47.8233 114.513 46.4232 112.513 46.4113C111.673 46.4204 110.852 46.6712 110.147 47.1344C109.443 47.5976 108.883 48.2541 108.534 49.0268C110.357 49.3625 112.226 49.3009 114.078 49.2393L124.333 48.8918C125.082 48.866 125.924 48.7984 126.407 48.2225C126.714 47.8591 126.8 47.3665 126.997 46.9316C127.327 46.1988 127.939 45.6387 128.373 44.9615C128.855 44.2088 129.356 42.8166 129.044 41.909C128.601 40.6578 127.408 42.1453 126.74 42.6398C124.756 44.1094 122.681 45.4481 120.527 46.6476Z" fill="#FFC700"/>
<path d="M129.97 23.4568C129.97 24.0248 130.363 24.5173 130.471 25.0734C130.622 25.8062 130.292 26.6284 130.648 27.2838C131.041 28.0147 132.024 28.0921 132.789 28.4198C133.374 28.6867 133.861 29.132 134.182 29.6931C134.502 30.2542 134.641 30.9029 134.578 31.5478C134.538 31.7004 134.553 31.8624 134.621 32.0045C134.678 32.0649 134.747 32.1124 134.823 32.1443C134.899 32.1761 134.981 32.1914 135.064 32.1892L136.979 32.3878C137.201 32.434 137.431 32.4125 137.641 32.3263C137.833 32.1975 137.975 32.0071 138.046 31.7861C138.599 30.4475 138.498 28.9322 138.833 27.5201C139.261 25.6493 140.423 23.995 140.722 22.0983C140.908 20.8974 140.737 19.6679 140.23 18.5652C139.916 17.882 139.444 17.2346 138.766 16.9228C138.283 16.734 137.769 16.639 137.252 16.6428C135.307 16.5474 132.634 16.7778 132.097 19.1153C131.918 19.9097 132.042 20.5294 131.529 21.2285C131.016 21.9275 129.976 22.4618 129.97 23.4568Z" fill="url(#paint9_linear)"/>
<path d="M131.202 15.5346C131.039 16.756 132.024 17.8086 132.995 18.5514C133.967 19.2941 137.183 20.8333 137.389 21.7866C137.596 22.7399 137.531 23.7289 137.464 24.702C137.606 25.2978 138.907 23.709 139.088 23.6455C139.211 23.6206 139.339 23.6453 139.445 23.7143C139.55 23.7833 139.625 23.8911 139.652 24.0149C139.697 24.2676 139.66 24.5281 139.546 24.7576C139.257 25.4746 138.066 27.2024 138.418 28.5092C139.481 28.7078 139.804 26.0068 140.777 25.5501C142.153 24.9086 143.333 24.275 143.716 22.7994C144.178 21.0498 144.573 19.0975 143.732 17.4968C143.606 17.2381 143.426 17.0099 143.205 16.8275C143.008 16.6786 142.782 16.5852 142.578 16.4541C142.021 16.1026 141.671 15.5088 141.259 14.9944C140.271 13.7661 138.886 12.9291 137.348 12.6311C136.051 12.3848 134.458 12.5 133.29 13.1772C132.459 13.6658 131.33 14.5118 131.202 15.5346Z" fill="#3F3D56"/>
<path d="M141.099 53.5743C141.57 52.6125 141.99 51.626 142.358 50.6192C143.746 46.6034 143.404 42.2144 142.981 37.9822C142.939 37.3402 142.831 36.7044 142.656 36.0855C142.395 35.3612 142.038 34.6758 141.595 34.0479C140.981 33.1052 140.339 32.1784 139.668 31.2675C139.497 31.0371 139.302 30.7928 139.025 30.7253C138.827 30.6959 138.625 30.7143 138.435 30.7789L136.819 31.194C135.376 31.5654 133.811 32.0182 132.954 33.2495C130.322 37.0229 128.008 41.3445 126.567 45.7296C125.256 49.7268 123.945 53.7246 122.635 57.7231C122.119 59.2881 121.634 61.1093 122.519 62.4895C123.562 64.1181 125.861 64.1896 127.772 64.0783L131.173 63.8797C132.604 63.7983 134.185 63.6513 135.176 62.6047C135.478 62.2571 135.738 61.8744 135.95 61.4648C137.7 58.3904 139.588 56.7976 141.099 53.5743Z" fill="#68E1FD"/>
<path d="M141.099 53.5743C141.57 52.6125 141.99 51.626 142.358 50.6192C143.746 46.6034 143.404 42.2144 142.981 37.9822C142.939 37.3402 142.831 36.7044 142.656 36.0855C142.395 35.3612 142.038 34.6758 141.595 34.0479C140.981 33.1052 140.339 32.1784 139.668 31.2675C139.497 31.0371 139.302 30.7928 139.025 30.7253C138.827 30.6959 138.625 30.7143 138.435 30.7789L136.819 31.194C135.376 31.5654 133.811 32.0182 132.954 33.2495C130.322 37.0229 128.008 41.3445 126.567 45.7296C125.256 49.7268 123.945 53.7246 122.635 57.7231C122.119 59.2881 121.634 61.1093 122.519 62.4895C123.562 64.1181 125.861 64.1896 127.772 64.0783L131.173 63.8797C132.604 63.7983 134.185 63.6513 135.176 62.6047C135.478 62.2571 135.738 61.8744 135.95 61.4648C137.7 58.3904 139.588 56.7976 141.099 53.5743Z" fill="#FFC700"/>
<path d="M162 48.6177H96.2935V89.8115H162V48.6177Z" fill="#68E1FD"/>
<path d="M162 48.6177H96.2935V89.8115H162V48.6177Z" fill="url(#paint10_linear)"/>
<path d="M109.126 83.8693C108.963 83.8687 108.806 83.8029 108.69 83.686C108.575 83.5692 108.509 83.4109 108.509 83.2457V55.8526C108.509 55.6872 108.574 55.5286 108.69 55.4117C108.805 55.2947 108.962 55.229 109.126 55.229C109.207 55.2287 109.288 55.2447 109.363 55.2759C109.438 55.3072 109.506 55.3531 109.563 55.4111C109.621 55.469 109.666 55.5379 109.697 55.6137C109.728 55.6894 109.744 55.7706 109.743 55.8526V83.2457C109.743 83.411 109.678 83.5697 109.563 83.6866C109.447 83.8036 109.29 83.8693 109.126 83.8693Z" fill="url(#paint11_linear)"/>
<path d="M115.081 83.8693C114.918 83.8687 114.761 83.8029 114.645 83.686C114.53 83.5692 114.464 83.4109 114.464 83.2457V55.8526C114.464 55.6872 114.529 55.5286 114.645 55.4117C114.76 55.2947 114.917 55.229 115.081 55.229C115.162 55.2287 115.243 55.2447 115.318 55.2759C115.393 55.3072 115.461 55.3531 115.518 55.4111C115.576 55.469 115.621 55.5379 115.652 55.6137C115.683 55.6894 115.699 55.7706 115.698 55.8526V83.2457C115.698 83.411 115.633 83.5697 115.518 83.6866C115.402 83.8036 115.245 83.8693 115.081 83.8693Z" fill="url(#paint12_linear)"/>
<path d="M121.036 83.8693C120.872 83.8687 120.716 83.8029 120.6 83.686C120.484 83.5692 120.419 83.4109 120.418 83.2457V55.8526C120.418 55.6872 120.483 55.5286 120.599 55.4117C120.715 55.2947 120.872 55.229 121.036 55.229C121.117 55.2287 121.197 55.2447 121.272 55.2759C121.347 55.3072 121.416 55.3531 121.473 55.4111C121.53 55.469 121.576 55.5379 121.607 55.6137C121.638 55.6894 121.653 55.7706 121.653 55.8526V83.2457C121.653 83.411 121.588 83.5697 121.472 83.6866C121.357 83.8036 121.2 83.8693 121.036 83.8693Z" fill="url(#paint13_linear)"/>
<path d="M126.991 83.8693C126.828 83.8687 126.671 83.8029 126.555 83.686C126.44 83.5692 126.375 83.4109 126.374 83.2457V55.8526C126.374 55.6872 126.439 55.5286 126.555 55.4117C126.671 55.2947 126.828 55.229 126.991 55.229C127.072 55.2287 127.153 55.2447 127.228 55.2759C127.303 55.3072 127.371 55.3531 127.428 55.4111C127.486 55.469 127.531 55.5379 127.562 55.6137C127.593 55.6894 127.609 55.7706 127.609 55.8526V83.2457C127.609 83.411 127.544 83.5697 127.428 83.6866C127.312 83.8036 127.155 83.8693 126.991 83.8693Z" fill="url(#paint14_linear)"/>
<path d="M132.946 83.8693C132.783 83.8693 132.626 83.8036 132.51 83.6866C132.394 83.5697 132.329 83.411 132.329 83.2457V55.8526C132.329 55.7706 132.345 55.6894 132.376 55.6137C132.406 55.5379 132.452 55.469 132.509 55.4111C132.567 55.3531 132.635 55.3072 132.71 55.2759C132.785 55.2447 132.865 55.2287 132.946 55.229C133.11 55.229 133.267 55.2947 133.383 55.4117C133.499 55.5286 133.564 55.6872 133.564 55.8526V83.2457C133.563 83.4109 133.498 83.5692 133.382 83.686C133.267 83.8029 133.11 83.8687 132.946 83.8693Z" fill="url(#paint15_linear)"/>
<path d="M138.901 83.8693C138.737 83.8693 138.58 83.8036 138.465 83.6866C138.349 83.5697 138.284 83.411 138.284 83.2457V55.8526C138.283 55.7706 138.299 55.6894 138.33 55.6137C138.361 55.5379 138.407 55.469 138.464 55.4111C138.521 55.3531 138.589 55.3072 138.664 55.2759C138.739 55.2447 138.82 55.2287 138.901 55.229C139.065 55.229 139.222 55.2947 139.338 55.4117C139.453 55.5286 139.518 55.6872 139.518 55.8526V83.2457C139.518 83.4109 139.453 83.5692 139.337 83.686C139.221 83.8029 139.065 83.8687 138.901 83.8693Z" fill="url(#paint16_linear)"/>
<path d="M144.856 83.8693C144.692 83.8693 144.535 83.8036 144.42 83.6866C144.304 83.5697 144.239 83.411 144.239 83.2457V55.8526C144.239 55.7706 144.254 55.6894 144.285 55.6137C144.316 55.5379 144.362 55.469 144.419 55.4111C144.476 55.3531 144.545 55.3072 144.62 55.2759C144.695 55.2447 144.775 55.2287 144.856 55.229C145.02 55.229 145.177 55.2947 145.293 55.4117C145.408 55.5286 145.473 55.6872 145.473 55.8526V83.2457C145.473 83.4109 145.408 83.5692 145.292 83.686C145.176 83.8029 145.02 83.8687 144.856 83.8693Z" fill="url(#paint17_linear)"/>
<path d="M151.428 55.8526C151.428 55.5082 151.152 55.229 150.811 55.229C150.47 55.229 150.194 55.5082 150.194 55.8526V83.2456C150.194 83.5901 150.47 83.8693 150.811 83.8693C151.152 83.8693 151.428 83.5901 151.428 83.2456V55.8526Z" fill="url(#paint18_linear)"/>
<path d="M134.869 45.5771C134.655 51.0056 134.244 56.4188 133.636 61.8167C133.516 62.8932 133.39 64.0014 133.679 65.044C133.968 66.0867 134.788 67.0578 135.854 67.173C136.792 67.2743 137.698 66.6884 138.245 65.9119C138.791 65.1354 139.031 64.19 139.257 63.2645C140.975 55.966 141.45 48.4253 140.663 40.9656C140.539 39.7859 140.374 38.5824 139.841 37.5259C139.308 36.4693 138.333 35.5676 137.165 35.4346C135.358 35.236 134.273 36.7751 134.413 38.3739C134.643 40.8226 134.967 43.0907 134.869 45.5771Z" fill="#FFC700"/>
<path d="M109.433 48.0872C109.237 48.1821 109.07 48.3273 108.947 48.5083C108.861 48.6835 108.81 48.8748 108.8 49.0703C108.711 49.817 108.629 50.6134 108.957 51.2887C108.975 51.3363 109.007 51.3772 109.049 51.4058C109.091 51.4207 109.137 51.4207 109.179 51.4058C109.257 51.3834 109.328 51.344 109.389 51.2905C109.45 51.2369 109.498 51.1706 109.531 51.096C109.595 50.9463 109.635 50.7875 109.651 50.6253C109.753 49.972 109.848 49.3166 109.956 48.6612C109.829 49.1046 109.786 49.568 109.828 50.0276C109.871 50.4899 110.066 50.9245 110.38 51.2629C110.432 51.3242 110.5 51.369 110.577 51.3919C110.774 51.4297 110.915 51.2251 110.994 51.0444C111.301 50.3436 111.44 49.5794 111.399 48.8141C111.307 49.5658 111.444 50.3279 111.792 50.9987C111.822 51.0652 111.866 51.1247 111.92 51.1735C112.025 51.2418 112.151 51.2725 112.276 51.2609C112.395 51.2774 112.516 51.2506 112.618 51.1854C112.685 51.1209 112.733 51.0382 112.755 50.9471C112.97 50.2931 113.052 49.6021 112.997 48.9154C113.055 49.6594 113.204 50.3932 113.441 51.1C113.473 51.237 113.545 51.3606 113.65 51.4535C113.753 51.5107 113.874 51.527 113.989 51.4991C114.104 51.4712 114.205 51.4011 114.271 51.3026C114.399 51.1002 114.467 50.8653 114.468 50.6253C114.497 50.3116 114.367 49.9858 114.456 49.684C115.405 46.421 110.056 47.7258 109.433 48.0872Z" fill="url(#paint19_linear)"/>
<path d="M132.4 69.8778C132.075 70.0268 131.69 70.2969 131.78 70.6444C131.851 70.9145 132.185 71.0237 132.459 70.982C132.732 70.9403 132.982 70.7993 133.245 70.7517C133.297 70.7364 133.352 70.7334 133.405 70.7431C133.458 70.7527 133.508 70.7747 133.552 70.8073C133.597 70.8599 133.627 70.9247 133.636 70.9939C133.727 71.4765 133.471 71.9532 133.176 72.3444C132.881 72.7357 132.535 73.1051 132.39 73.5738C132.74 73.7525 133.163 73.536 133.444 73.26C133.725 72.9839 133.953 72.6364 134.305 72.4656L133.4 74.0941C133.318 74.2411 133.239 74.4377 133.347 74.5668C133.493 74.7396 133.766 74.5827 133.923 74.4218C134.39 73.9431 134.81 73.4204 135.178 72.8608C134.903 73.4208 134.73 74.0263 134.669 74.6482C134.942 74.678 135.136 74.4019 135.27 74.1597L136.057 72.7158C136.048 73.1621 135.94 73.6006 135.74 73.9988C136.151 73.9094 136.348 73.4487 136.481 73.0475C136.851 71.9433 137.224 70.8073 137.175 69.6415C137.165 69.3873 137.116 69.0993 136.904 68.9603C136.766 68.8867 136.611 68.8537 136.456 68.8649C134.918 68.8431 133.798 69.2343 132.4 69.8778Z" fill="url(#paint20_linear)"/>
<path d="M134.244 67.3436C134.271 67.1693 134.348 67.0066 134.464 66.8749C134.634 66.746 134.841 66.6763 135.054 66.6763L136.56 66.5015C136.935 66.4578 137.397 66.4538 137.602 66.7776C137.694 66.9614 137.725 67.1701 137.692 67.3734C137.657 67.8884 137.562 68.3976 137.411 68.8907C137.37 69.0198 134.873 69.276 134.647 69.2184C133.788 68.986 134.037 68.1916 134.244 67.3436Z" fill="url(#paint21_linear)"/>
<path d="M118.84 89.8113L114.251 105.413H118.4L127.038 89.8113H118.84Z" fill="#68E1FD"/>
<path d="M139.007 89.8113L143.598 105.413H139.45L130.809 89.8113H139.007Z" fill="#68E1FD"/>
<path d="M118.173 108.704C117.78 108.805 117.363 108.903 116.976 108.786C116.589 108.668 116.266 108.231 116.414 107.848C115.478 108.096 114.611 108.571 113.675 108.819C112.141 109.228 110.529 109.018 108.957 108.795C109.093 108.251 109.339 107.74 109.68 107.296C110.02 106.851 110.448 106.483 110.936 106.214C111.919 105.681 113.062 105.586 114.17 105.503L116.3 105.342C116.726 105.31 117.648 105.048 118.02 105.354C118.391 105.66 118.421 108.641 118.173 108.704Z" fill="#68E1FD"/>
<path d="M143.716 108.704C143.323 108.806 142.904 108.903 142.517 108.786C142.13 108.669 141.807 108.232 141.957 107.848C141.019 108.097 140.152 108.571 139.216 108.82C137.683 109.229 136.07 109.018 134.498 108.796C134.634 108.251 134.88 107.74 135.221 107.295C135.562 106.851 135.991 106.483 136.479 106.214C137.462 105.682 138.603 105.586 139.711 105.503L141.829 105.344C142.257 105.312 143.18 105.05 143.549 105.356C143.919 105.662 143.954 108.641 143.716 108.704Z" fill="#68E1FD"/>
<path d="M118.84 89.8113L114.251 105.413H118.4L127.038 89.8113H118.84Z" fill="url(#paint22_linear)"/>
<path d="M139.007 89.8113L143.598 105.413H139.45L130.809 89.8113H139.007Z" fill="url(#paint23_linear)"/>
<path d="M118.173 108.704C117.78 108.805 117.363 108.903 116.976 108.786C116.589 108.668 116.266 108.231 116.414 107.848C115.478 108.096 114.611 108.571 113.675 108.819C112.141 109.228 110.529 109.018 108.957 108.795C109.093 108.251 109.339 107.74 109.68 107.296C110.02 106.851 110.448 106.483 110.936 106.214C111.919 105.681 113.062 105.586 114.17 105.503L116.3 105.342C116.726 105.31 117.648 105.048 118.02 105.354C118.391 105.66 118.421 108.641 118.173 108.704Z" fill="url(#paint24_linear)"/>
<path d="M143.716 108.704C143.323 108.806 142.904 108.903 142.517 108.786C142.13 108.669 141.807 108.232 141.957 107.848C141.019 108.097 140.152 108.571 139.216 108.82C137.683 109.229 136.07 109.018 134.498 108.796C134.634 108.251 134.88 107.74 135.221 107.295C135.562 106.851 135.991 106.483 136.479 106.214C137.462 105.682 138.603 105.586 139.711 105.503L141.829 105.344C142.257 105.312 143.18 105.05 143.549 105.356C143.919 105.662 143.954 108.641 143.716 108.704Z" fill="url(#paint25_linear)"/>
</g>
<defs>
<linearGradient id="paint0_linear" x1="135.234" y1="-45.007" x2="59.2644" y2="66.9976" gradientUnits="userSpaceOnUse">
<stop offset="0.01"/>
<stop offset="0.1" stop-opacity="0.77"/>
<stop offset="0.97" stop-opacity="0"/>
</linearGradient>
<linearGradient id="paint1_linear" x1="28728.3" y1="407.911" x2="28690.9" y2="5960.76" gradientUnits="userSpaceOnUse">
<stop offset="0.03" stop-color="#FFDF8E"/>
<stop offset="0.09" stop-color="white" stop-opacity="0.84"/>
<stop offset="0.18" stop-color="white" stop-opacity="0.64"/>
<stop offset="0.28" stop-color="white" stop-opacity="0.47"/>
<stop offset="0.37" stop-color="white" stop-opacity="0.33"/>
<stop offset="0.47" stop-color="white" stop-opacity="0.21"/>
<stop offset="0.58" stop-color="white" stop-opacity="0.12"/>
<stop offset="0.69" stop-color="white" stop-opacity="0.05"/>
<stop offset="0.82" stop-color="white" stop-opacity="0.01"/>
<stop offset="0.98" stop-color="white" stop-opacity="0"/>
</linearGradient>
<linearGradient id="paint2_linear" x1="461.428" y1="1990.43" x2="378.418" y2="1990.96" gradientUnits="userSpaceOnUse">
<stop stop-color="#68E1FD"/>
<stop offset="1" stop-color="white"/>
</linearGradient>
<linearGradient id="paint3_linear" x1="507.602" y1="1990.43" x2="424.063" y2="1990.96" gradientUnits="userSpaceOnUse">
<stop stop-color="#68E1FD"/>
<stop offset="1" stop-color="white"/>
</linearGradient>
<linearGradient id="paint4_linear" x1="548.139" y1="1990.43" x2="465.129" y2="1990.96" gradientUnits="userSpaceOnUse">
<stop stop-color="#68E1FD"/>
<stop offset="1" stop-color="white"/>
</linearGradient>
<linearGradient id="paint5_linear" x1="591.489" y1="1990.43" x2="508.479" y2="1990.96" gradientUnits="userSpaceOnUse">
<stop stop-color="#68E1FD"/>
<stop offset="1" stop-color="white"/>
</linearGradient>
<linearGradient id="paint6_linear" x1="634.851" y1="1990.43" x2="551.84" y2="1990.96" gradientUnits="userSpaceOnUse">
<stop stop-color="#68E1FD"/>
<stop offset="1" stop-color="white"/>
</linearGradient>
<linearGradient id="paint7_linear" x1="678.179" y1="1990.43" x2="595.171" y2="1990.96" gradientUnits="userSpaceOnUse">
<stop stop-color="#68E1FD"/>
<stop offset="1" stop-color="white"/>
</linearGradient>
<linearGradient id="paint8_linear" x1="721.546" y1="1990.43" x2="638.536" y2="1990.96" gradientUnits="userSpaceOnUse">
<stop stop-color="#68E1FD"/>
<stop offset="1" stop-color="white"/>
</linearGradient>
<linearGradient id="paint9_linear" x1="129.97" y1="24.5272" x2="140.785" y2="24.5272" gradientUnits="userSpaceOnUse">
<stop stop-color="#ECC4D7"/>
<stop offset="0.42" stop-color="#EFD4D1"/>
<stop offset="1" stop-color="#F2EAC9"/>
</linearGradient>
<linearGradient id="paint10_linear" x1="45162.3" y1="6855.07" x2="43339.9" y2="25240.1" gradientUnits="userSpaceOnUse">
<stop offset="0.03" stop-color="#FFDF8E"/>
<stop offset="0.09" stop-color="white" stop-opacity="0.84"/>
<stop offset="0.18" stop-color="white" stop-opacity="0.64"/>
<stop offset="0.28" stop-color="white" stop-opacity="0.47"/>
<stop offset="0.37" stop-color="white" stop-opacity="0.33"/>
<stop offset="0.47" stop-color="white" stop-opacity="0.21"/>
<stop offset="0.58" stop-color="white" stop-opacity="0.12"/>
<stop offset="0.69" stop-color="white" stop-opacity="0.05"/>
<stop offset="0.82" stop-color="white" stop-opacity="0.01"/>
<stop offset="0.98" stop-color="white" stop-opacity="0"/>
</linearGradient>
<linearGradient id="paint11_linear" x1="870.633" y1="10227.1" x2="750.317" y2="10227.5" gradientUnits="userSpaceOnUse">
<stop stop-color="#68E1FD"/>
<stop offset="1" stop-color="white"/>
</linearGradient>
<linearGradient id="paint12_linear" x1="913.966" y1="10227.1" x2="793.653" y2="10227.5" gradientUnits="userSpaceOnUse">
<stop stop-color="#68E1FD"/>
<stop offset="1" stop-color="white"/>
</linearGradient>
<linearGradient id="paint13_linear" x1="957.359" y1="10227.1" x2="837.04" y2="10227.5" gradientUnits="userSpaceOnUse">
<stop stop-color="#68E1FD"/>
<stop offset="1" stop-color="white"/>
</linearGradient>
<linearGradient id="paint14_linear" x1="1000.68" y1="10227.1" x2="880.366" y2="10227.5" gradientUnits="userSpaceOnUse">
<stop stop-color="#68E1FD"/>
<stop offset="1" stop-color="white"/>
</linearGradient>
<linearGradient id="paint15_linear" x1="1044.06" y1="10227.1" x2="923.738" y2="10227.5" gradientUnits="userSpaceOnUse">
<stop stop-color="#68E1FD"/>
<stop offset="1" stop-color="white"/>
</linearGradient>
<linearGradient id="paint16_linear" x1="1087.41" y1="10227.1" x2="967.088" y2="10227.5" gradientUnits="userSpaceOnUse">
<stop stop-color="#68E1FD"/>
<stop offset="1" stop-color="white"/>
</linearGradient>
<linearGradient id="paint17_linear" x1="1130.76" y1="10227.1" x2="1010.44" y2="10227.5" gradientUnits="userSpaceOnUse">
<stop stop-color="#68E1FD"/>
<stop offset="1" stop-color="white"/>
</linearGradient>
<linearGradient id="paint18_linear" x1="1174.09" y1="9953.01" x2="1053.77" y2="9953.4" gradientUnits="userSpaceOnUse">
<stop stop-color="#68E1FD"/>
<stop offset="1" stop-color="white"/>
</linearGradient>
<linearGradient id="paint19_linear" x1="3342.54" y1="1080.28" x2="3516.51" y2="1080.28" gradientUnits="userSpaceOnUse">
<stop stop-color="#FBE9BD"/>
<stop offset="0.42" stop-color="#EFD4D1"/>
<stop offset="1" stop-color="#F2EAC9"/>
</linearGradient>
<linearGradient id="paint20_linear" x1="3759.34" y1="2215.38" x2="3909.05" y2="2215.38" gradientUnits="userSpaceOnUse">
<stop stop-color="#FAE9BD"/>
<stop offset="0.42" stop-color="#EFD4D1"/>
<stop offset="1" stop-color="#F2EAC9"/>
</linearGradient>
<linearGradient id="paint21_linear" x1="134.043" y1="67.8441" x2="137.702" y2="67.8441" gradientUnits="userSpaceOnUse">
<stop stop-color="#FFDB59"/>
<stop offset="1" stop-color="#FFC700"/>
</linearGradient>
<linearGradient id="paint22_linear" x1="8264.41" y1="6559.69" x2="6786.57" y2="10329.3" gradientUnits="userSpaceOnUse">
<stop offset="0.01"/>
<stop offset="0.1" stop-opacity="0.77"/>
<stop offset="0.97" stop-opacity="0"/>
</linearGradient>
<linearGradient id="paint23_linear" x1="8795.72" y1="6328" x2="9911.06" y2="10447.7" gradientUnits="userSpaceOnUse">
<stop offset="0.01"/>
<stop offset="0.1" stop-opacity="0.77"/>
<stop offset="0.97" stop-opacity="0"/>
</linearGradient>
<linearGradient id="paint24_linear" x1="5515.37" y1="1992.53" x2="5522.54" y2="2739.71" gradientUnits="userSpaceOnUse">
<stop offset="0.01"/>
<stop offset="0.1" stop-opacity="0.77"/>
<stop offset="0.97" stop-opacity="0"/>
</linearGradient>
<linearGradient id="paint25_linear" x1="6752.41" y1="1979.89" x2="6759.59" y2="2726.69" gradientUnits="userSpaceOnUse">
<stop offset="0.01"/>
<stop offset="0.1" stop-opacity="0.77"/>
<stop offset="0.97" stop-opacity="0"/>
</linearGradient>
<clipPath id="clip0">
<rect width="162" height="113" fill="white"/>
</clipPath>
</defs>
</svg>
