<svg width="152" height="124" viewBox="0 0 152 124" fill="none" xmlns="http://www.w3.org/2000/svg">
<g clip-path="url(#clip0)">
<path opacity="0.18" d="M33.0093 26.4916C24.0274 31.2813 14.7729 36.2974 8.51237 44.319C4.75274 49.1419 2.2477 54.8829 0.928602 60.8565C-1.33093 71.0527 0.341873 82.8732 8.11498 89.8853C10.8198 92.3363 14.1279 94.0664 17.5401 95.3958C24.6131 98.1461 32.2156 99.2714 39.7837 98.6879C45.9985 98.2039 52.2028 96.5693 58.3863 97.3482C65.9285 98.2953 72.5136 102.699 79.5397 105.598C88.2704 109.187 97.7769 110.481 107.151 109.358C109.515 109.071 111.908 108.612 113.986 107.453C116.454 106.076 118.283 103.827 120.228 101.77C124.614 97.1165 129.788 93.2712 135.512 90.4108C138.514 88.9112 141.695 87.667 144.302 85.5568C151.168 80.011 152.344 70.0869 151.944 61.2864C151.545 52.4859 149.558 42.7716 142.503 37.4273C140.928 36.2351 139.155 35.3108 137.628 34.0542C132.535 29.8627 131.012 22.8464 127.749 17.1117C120.434 4.28795 104.112 -1.32632 89.4163 0.260546C68.3586 2.53492 51.1126 16.8396 33.0093 26.4916Z" fill="#FFDB80"/>
<path d="M143.336 61.3769C143.145 63.1424 140.962 66.1063 137.943 69.4379C132.996 74.8881 125.807 81.3166 121.484 85.0615C119.253 86.9953 117.787 88.2145 117.787 88.2145V54.6618C117.787 54.6618 123.021 47.9695 126.825 47.5396C130.628 47.1096 138.303 51.5504 138.303 51.5504C138.303 51.5504 143.977 55.2371 143.336 61.3769Z" fill="#FFC700"/>
<path d="M137.943 69.4379C132.996 74.8881 125.807 81.3166 121.484 85.0615C121.161 84.5485 121.097 83.8506 121.068 83.2192C120.953 80.0641 120.98 76.9049 121.009 73.7478C121.036 70.6821 121.063 67.6184 121.257 64.5589C121.44 61.7092 121.789 58.7951 123.096 56.2507C123.391 56.5138 123.634 56.8294 123.814 57.1812C125.46 60.004 126.5 63.1175 127.54 66.2081C128.055 67.7313 128.569 69.2607 129.084 70.7963C130.238 70.1638 131.269 69.3302 132.128 68.335C132.919 67.4606 133.624 66.5155 134.35 65.5892C134.858 64.9411 135.848 63.0967 136.639 63.7904C137.92 64.9058 138.024 67.4585 137.943 69.4379Z" fill="url(#paint0_linear)"/>
<path d="M121.63 10.4849H36.4106V109.014H121.63V10.4849Z" fill="#FFC700"/>
<path d="M121.63 21.8257H36.4106V120.355H121.63V21.8257Z" fill="#FFC700"/>
<path d="M123.571 10.4849H121.632V120.355H123.571V10.4849Z" fill="#766122"/>
<path d="M143.197 41.8941C142.87 43.2276 143.307 45.0761 142.687 46.2995C141.647 48.3558 138.605 49.7204 138.156 51.9782C138.129 52.109 134.743 53.7374 132.998 53.1808C132.084 52.8921 131.62 52.0031 132.324 49.9925C132.544 49.3694 133.78 49.1368 134.113 48.5573L134.044 48.5053C132.355 47.2321 132.172 44.534 132.521 42.7332C132.871 40.9324 133.672 39.2022 134.531 37.5572C135.193 36.2902 136.687 35.6027 138.118 35.6256C139.918 35.6567 141.817 36.3754 142.754 37.9103C143.469 39.0797 143.521 40.5606 143.197 41.8941Z" fill="url(#paint1_linear)"/>
<path d="M134.883 32.1944C133.961 32.6804 132.981 33.2537 131.949 33.0979C131.923 33.3453 131.964 33.5952 132.067 33.8216C132.17 34.0481 132.332 34.2428 132.536 34.3856L131.895 34.529C131.869 34.5306 131.843 34.5381 131.82 34.5511C131.797 34.564 131.777 34.582 131.762 34.6037C131.754 34.6269 131.751 34.6516 131.754 34.6759C131.756 34.7003 131.764 34.7239 131.777 34.745C131.934 35.1121 132.193 35.4269 132.523 35.6526C132.409 35.8977 131.995 35.8437 131.854 36.0681C131.822 36.1347 131.806 36.2074 131.806 36.281C131.806 36.3546 131.822 36.4272 131.854 36.4939C131.996 36.8814 132.241 37.2235 132.561 37.4846C132.178 37.9 132.417 38.6685 132.946 38.8575C133.474 39.0466 134.109 38.6872 134.29 38.1534C134.314 38.3937 134.258 38.635 134.132 38.8409C135.877 39.1151 137.744 39.3726 139.35 38.6332C139.275 38.7993 139.234 38.9787 139.229 39.1608C139.617 39.282 140.028 39.3077 140.428 39.2356C140.511 40.0911 140.434 40.9546 140.201 41.782C140.057 42.2971 139.851 42.7956 139.76 43.3211C139.644 43.8503 139.739 44.4036 140.024 44.8644C140.301 44.8394 140.496 44.5798 140.602 44.3243C140.679 44.058 140.794 43.8046 140.946 43.5724C141.362 43.0864 142.227 43.265 142.562 43.803C142.897 44.341 142.77 45.0638 142.45 45.6059C142.252 45.9256 141.99 46.2012 141.681 46.4156C141.372 46.63 141.022 46.7786 140.652 46.8521C140.713 47.4316 140.775 48.0111 140.835 48.5885C141.932 47.55 143.159 46.6589 144.146 45.5228C145.132 44.3866 145.879 42.9327 145.752 41.4331C145.675 40.5088 145.271 39.6302 145.24 38.7018C145.226 38.2864 145.288 37.8606 145.271 37.441C145.232 36.7725 144.998 36.1302 144.596 35.5937C144.195 35.0572 143.645 34.6501 143.014 34.423C142.483 34.2423 141.899 34.1904 141.428 33.8851C140.844 33.5071 140.54 32.8029 139.96 32.4166C139.335 32.0012 138.366 31.8309 137.64 31.6252C136.695 31.3635 135.713 31.7603 134.883 32.1944Z" fill="#3F3D56"/>
<path d="M121.794 51.8473C121.72 51.8927 121.656 51.9531 121.606 52.0247C121.557 52.0962 121.523 52.1773 121.507 52.2627C121.515 52.3522 121.552 52.4366 121.613 52.5033C121.673 52.5699 121.753 52.6152 121.842 52.6324C122.02 52.6635 122.202 52.655 122.377 52.6075L123.433 52.3998C122.862 52.7176 122.389 53.1842 122.062 53.7499C122.024 53.815 122.005 53.8899 122.008 53.9655C122.012 54.0411 122.037 54.1141 122.081 54.1756C122.223 54.3543 122.462 54.2837 122.653 54.2089L123.571 53.8433L122.947 54.4477C122.752 54.6203 122.583 54.8188 122.443 55.0376C122.383 55.1406 122.338 55.2519 122.31 55.3679C122.299 55.417 122.301 55.4682 122.316 55.5163C122.33 55.5645 122.357 55.6079 122.394 55.6423C122.431 55.6768 122.476 55.701 122.525 55.7126C122.574 55.7242 122.626 55.7228 122.674 55.7085C123.056 55.6014 123.41 55.4145 123.714 55.1602C123.489 55.4759 123.238 55.7725 122.963 56.0471C122.689 56.3236 122.533 56.6963 122.53 57.0856C122.532 57.1275 122.545 57.168 122.57 57.2019C122.601 57.2324 122.641 57.2514 122.684 57.2559C123.024 57.312 123.332 57.0648 123.587 56.8405L124.53 55.9868C124.682 55.8627 124.816 55.718 124.927 55.5569C124.99 55.4641 125.026 55.3553 125.029 55.2433C125.023 55.1721 124.999 55.1037 124.958 55.0448C124.918 54.9859 124.863 54.9383 124.798 54.9068C124.734 54.8753 124.663 54.8608 124.591 54.8648C124.52 54.8688 124.451 54.8911 124.391 54.9296C124.418 54.7489 124.488 54.5807 124.532 54.4041C124.586 54.2301 124.574 54.0424 124.499 53.8766C124.458 53.7955 124.389 53.7328 124.304 53.7008C124.219 53.6688 124.125 53.67 124.041 53.7042C124.152 53.488 124.222 53.2537 124.249 53.0125C124.26 52.8906 124.238 52.768 124.184 52.6581C124.13 52.5482 124.047 52.4552 123.943 52.3894C123.886 52.3671 123.834 52.3339 123.789 52.2918C123.706 52.19 123.773 52.0446 123.808 51.9179C123.843 51.8222 123.853 51.7194 123.837 51.6188C123.821 51.5183 123.78 51.4233 123.718 51.3427C123.656 51.2621 123.574 51.1986 123.481 51.1579C123.388 51.1172 123.285 51.1007 123.184 51.1099C122.639 51.1743 122.191 51.5108 121.794 51.8473Z" fill="url(#paint2_linear)"/>
<path d="M138.865 59.6507C141.258 57.5404 144.221 59.1397 143.18 62.1535C140.931 68.6734 136.223 83.6115 131.752 83.6115C125.926 83.6115 123.571 73.299 123.571 73.299L126.261 67.8633C126.261 67.8633 130.066 76.1985 131.983 73.9429C133.899 71.6872 135.031 63.1422 138.755 59.7483L138.865 59.6507Z" fill="#FFC700"/>
<path d="M125.379 67.5041C125.343 67.0203 125.335 66.5349 125.354 66.0501C125.341 63.9345 124.715 61.8677 123.552 60.0994C123.429 60.2748 123.377 60.4896 123.404 60.7017L123.435 66.2184C123.454 66.6759 123.423 67.1341 123.344 67.5851C123.273 67.9132 123.152 68.2269 123.059 68.5509C122.861 69.2245 122.791 69.9287 122.851 70.6279C122.868 71.0035 122.97 71.3704 123.148 71.7018C123.24 71.8663 123.369 72.007 123.525 72.1124C123.681 72.2178 123.86 72.2849 124.047 72.3083C124.17 72.3083 124.671 71.2698 124.744 71.1285C124.966 70.7131 125.174 70.2942 125.368 69.8719C125.512 69.552 125.818 69.0805 125.764 68.7212C125.703 68.3183 125.429 67.9465 125.379 67.5041Z" fill="url(#paint3_linear)"/>
<path d="M136.497 49.9658C135.994 50.5307 135.495 51.0978 134.991 51.6648C134.606 52.1479 134.149 52.5683 133.634 52.911C133.435 53.029 133.221 53.1211 132.998 53.1852C132.084 52.8965 131.62 52.0075 132.324 49.9969C132.544 49.3738 133.78 49.1412 134.113 48.5617L134.044 48.5098C134.283 48.6227 134.536 48.705 134.795 48.7549C135.336 48.8359 136.668 48.4163 136.832 49.216C136.891 49.4922 136.695 49.7518 136.497 49.9658Z" fill="url(#paint4_linear)"/>
<path d="M27.2017 101.759H27.8466L28.1691 116.311L27.8466 113.914H27.2017V101.759Z" fill="#FFE071"/>
<path d="M28.4917 101.759H27.8467V113.914H28.4917V101.759Z" fill="#FFE071"/>
<path d="M22.6013 103.468C22.2372 104.592 23.3878 106.817 24.503 107.967C25.6182 109.118 26.3755 108.854 27.5115 108.526C27.8756 107.402 28.1856 106.636 27.0684 105.485C25.9511 104.334 23.7373 103.14 22.6013 103.468Z" fill="#68E1FD"/>
<path d="M33.1938 103.524C32.0682 103.159 29.8399 104.31 28.6873 105.423C27.5346 106.536 27.7988 107.292 28.1276 108.426C29.2532 108.79 30.0209 109.099 31.1736 107.984C32.3262 106.868 33.5246 104.659 33.1938 103.524Z" fill="#68E1FD"/>
<path d="M27.8468 98.824H24.9673C24.9673 100.866 26.2552 102.521 27.8447 102.521L28.523 100.708L27.8468 98.824Z" fill="#FFE071"/>
<path d="M27.8467 98.824H30.7241C30.7241 100.866 29.4363 102.521 27.8467 102.521V98.824Z" fill="#68E1FD"/>
<path d="M22.3958 94.6597C22.0317 95.7834 23.1822 98.01 24.2995 99.1586C25.4168 100.307 26.172 100.048 27.306 99.7173C27.6701 98.5936 27.9801 97.8272 26.8628 96.6765C25.7455 95.5258 23.5318 94.3315 22.3958 94.6597Z" fill="#68E1FD"/>
<path d="M32.9898 94.7135C31.8621 94.35 29.6337 95.4986 28.4832 96.614C27.3326 97.7294 27.5927 98.4834 27.9214 99.6154C29.047 99.9789 29.8168 100.288 30.9674 99.173C32.118 98.0576 33.3185 95.8497 32.9898 94.7135Z" fill="#68E1FD"/>
<path d="M27.7944 91.1265C26.7292 91.6416 25.9219 94.0094 25.8553 95.6108C25.7887 97.2122 26.6168 99.0961 27.6405 99.6881C28.7057 99.173 29.3653 97.3452 29.4256 95.7417C29.486 94.1382 28.8181 91.7184 27.7944 91.1265Z" fill="#FFE071"/>
<path d="M22.1562 112.059L23.1716 120.251H27.8675L29.7858 115.59L27.8675 111.831L22.1562 112.059Z" fill="#68E1FD"/>
<path d="M33.581 112.059L32.5657 120.251H27.8677V111.831L33.581 112.059Z" fill="#68E1FD"/>
<path d="M29.9608 111.887L29.9087 111.912L28.315 112.701L27.8802 112.921H21.5364C21.3449 112.921 21.1613 112.845 21.0259 112.71C20.8905 112.575 20.8145 112.392 20.8145 112.2V110.368C20.8145 110.177 20.8905 109.994 21.0259 109.859C21.1613 109.724 21.3449 109.648 21.5364 109.648H27.8802L29.9608 111.887Z" fill="#FFE071"/>
<path d="M22.6013 103.468C22.2372 104.592 23.3878 106.817 24.503 107.967C25.6182 109.118 26.3755 108.854 27.5115 108.526C27.8756 107.402 28.1856 106.636 27.0684 105.485C25.9511 104.334 23.7373 103.14 22.6013 103.468Z" fill="#FFC700"/>
<path d="M33.1938 103.524C32.0682 103.159 29.8399 104.31 28.6873 105.423C27.5346 106.536 27.7988 107.292 28.1276 108.426C29.2532 108.79 30.0209 109.099 31.1736 107.984C32.3262 106.868 33.5246 104.659 33.1938 103.524Z" fill="#FFE071"/>
<path d="M30.6846 99.4265C30.462 101.182 29.276 102.521 27.8467 102.521V99.3579C27.8696 99.4431 27.8966 99.5282 27.9216 99.6175C28.9515 99.9499 29.6838 100.239 30.6846 99.4265Z" fill="#FFE071"/>
<path d="M22.3958 94.6597C22.0317 95.7834 23.1822 98.01 24.2995 99.1586C25.4168 100.307 26.172 100.048 27.306 99.7173C27.6701 98.5936 27.9801 97.8272 26.8628 96.6765C25.7455 95.5258 23.5318 94.3315 22.3958 94.6597Z" fill="#FFC700"/>
<path d="M27.8694 112.921V120.251H23.1714L22.2622 112.921H27.8694Z" fill="#FFC700"/>
<path d="M33.4748 112.921L32.5655 120.251H27.8696V112.921H33.4748Z" fill="#FFC700"/>
<path d="M34.9227 110.451V112.283C34.9227 112.475 34.8466 112.658 34.7112 112.793C34.5758 112.928 34.3922 113.004 34.2007 113.004H27.8799V109.731H34.2111C34.4008 109.733 34.5818 109.811 34.7149 109.945C34.8481 110.08 34.9227 110.262 34.9227 110.451Z" fill="#FFC700"/>
<path opacity="0.18" d="M23.7189 120.261L11.7846 122.546C11.5915 122.566 11.4143 122.662 11.292 122.813C11.1696 122.963 11.1122 123.156 11.1324 123.349C11.1525 123.542 11.2485 123.719 11.3994 123.841C11.5502 123.963 11.7434 124.02 11.9365 124H146.73C146.92 124.008 147.105 123.941 147.247 123.815C147.389 123.688 147.475 123.512 147.489 123.322C147.502 123.133 147.441 122.946 147.318 122.801C147.195 122.656 147.021 122.565 146.832 122.546L129.436 120.361H129.336L23.8708 120.257C23.8202 120.253 23.7693 120.255 23.7189 120.261Z" fill="#1D2741"/>
<path d="M30.9676 99.1751C30.8699 99.2686 30.7762 99.3538 30.6847 99.4265C29.6839 100.239 28.9515 99.9499 27.9217 99.6176C27.8967 99.5282 27.8696 99.4431 27.8468 99.3579C27.5596 98.363 27.4202 97.6423 28.4834 96.6162C29.634 95.5008 31.8623 94.3522 32.99 94.7157C33.3187 95.8498 32.1203 98.0618 30.9676 99.1751Z" fill="#FFC700"/>
<path d="M57.0553 25H112.82V27.1778H57.0553V25Z" fill="white"/>
<path d="M45.0147 25H54.1855V27.1778H45.0147V25Z" fill="white"/>
<path d="M94.1379 49.4888H112.82V51.6665H94.1379V49.4888Z" fill="white"/>
<path d="M45 49.4888H91.9487V51.6665H45V49.4888Z" fill="white"/>
<path d="M94.1379 37.252H112.82V39.4297H94.1379V37.252Z" fill="white"/>
<path d="M69.9534 37.252H89.9961V39.4297H69.9534V37.252Z" fill="white"/>
<path d="M45.015 37.252H67.9717V39.4297H45.015V37.252Z" fill="white"/>
<path d="M100.777 76.1533H45.0122V73.9755H100.777V76.1533Z" fill="white"/>
<path d="M112.803 76.1533H103.632V73.9755H112.803V76.1533Z" fill="white"/>
<path d="M100.777 88.3896H45.0122V86.2119H100.777V88.3896Z" fill="white"/>
<path d="M112.803 88.3896H103.632V86.2119H112.803V88.3896Z" fill="white"/>
<path d="M63.6912 63.9019H45.0093V61.7241H63.6912V63.9019Z" fill="white"/>
<path d="M87.8703 63.9019H67.8276V61.7241H87.8703V63.9019Z" fill="white"/>
<path d="M112.804 63.9019H89.8472V61.7241H112.804V63.9019Z" fill="white"/>
<path d="M88.8722 111.519L88.1387 109.948C88.1664 109.933 90.0902 108.911 92.277 107.519C91.9864 107.133 91.7372 106.704 91.5158 106.245C89.6611 102.378 91.1698 100.452 91.9033 99.8149C93.7026 98.2297 97.0797 98.4223 99.2665 100.259C99.8478 100.748 100.125 101.43 100.055 102.156C99.9585 103.119 99.3219 104.733 95.0174 107.756C96.1524 108.467 97.4257 108.689 98.5053 108.733C101.855 108.852 104.913 107.282 105.398 106.422L106.851 103.815L106.92 106.852C106.934 107.489 107.169 108.348 107.432 108.437C107.474 108.452 108.318 108.704 110.713 105.445L112 106.526C109.855 109.444 108.235 110.585 106.907 110.111C106.201 109.859 105.799 109.207 105.564 108.57C103.945 109.696 101.163 110.6 98.4361 110.511C96.4707 110.437 94.796 109.844 93.495 108.793C91.1144 110.319 88.9691 111.459 88.8722 111.519ZM95.0313 100.482C94.2147 100.482 93.4535 100.704 92.9414 101.163C91.7095 102.245 92.4431 104.304 92.9829 105.43C93.1905 105.859 93.4258 106.245 93.6888 106.57C97.9378 103.667 98.3807 102.319 98.4222 101.963C98.4361 101.889 98.4361 101.785 98.2562 101.622C97.3565 100.882 96.1385 100.482 95.0313 100.482Z" fill="white"/>
</g>
<defs>
<linearGradient id="paint0_linear" x1="132.631" y1="58.874" x2="97.1519" y2="125.749" gradientUnits="userSpaceOnUse">
<stop offset="0.02" stop-opacity="0"/>
<stop offset="0.32" stop-color="#17161F" stop-opacity="0.36"/>
<stop offset="0.76" stop-color="#343247" stop-opacity="0.82"/>
<stop offset="0.99" stop-color="#3F3D56"/>
</linearGradient>
<linearGradient id="paint1_linear" x1="146.299" y1="48.3558" x2="126.994" y2="40.8145" gradientUnits="userSpaceOnUse">
<stop stop-color="#ECC4D7"/>
<stop offset="0.16" stop-color="#EDCBD5"/>
<stop offset="0.42" stop-color="#EFD4D1"/>
<stop offset="0.7" stop-color="#F2EAC9"/>
</linearGradient>
<linearGradient id="paint2_linear" x1="121.507" y1="54.1985" x2="125.029" y2="54.1985" gradientUnits="userSpaceOnUse">
<stop stop-color="#ECC4D7"/>
<stop offset="0.42" stop-color="#EFD4D1"/>
<stop offset="1" stop-color="#F2EAC9"/>
</linearGradient>
<linearGradient id="paint3_linear" x1="1858.39" y1="3952.06" x2="1899.93" y2="3952.06" gradientUnits="userSpaceOnUse">
<stop stop-color="#ECC4D7"/>
<stop offset="0.42" stop-color="#EFD4D1"/>
<stop offset="1" stop-color="#F2EAC9"/>
</linearGradient>
<linearGradient id="paint4_linear" x1="3237.14" y1="1211.62" x2="3058.24" y2="1430.02" gradientUnits="userSpaceOnUse">
<stop stop-color="#ECC4D7"/>
<stop offset="0.42" stop-color="#EFD4D1"/>
<stop offset="1" stop-color="#F2EAC9"/>
</linearGradient>
<clipPath id="clip0">
<rect width="152" height="124" fill="white"/>
</clipPath>
</defs>
</svg>
