<svg width="16" height="16" viewBox="0 0 16 16" fill="none" xmlns="http://www.w3.org/2000/svg">
<path d="M2.66683 6.6665V11.9998H13.3335V6.6665L8.00016 8.6665L2.66683 6.6665ZM2.66683 3.99984V5.33317L8.00016 7.33317L13.3335 5.33317V3.99984H2.66683ZM2.66683 2.6665H13.3335C13.6871 2.6665 14.0263 2.80698 14.2763 3.05703C14.5264 3.30708 14.6668 3.64622 14.6668 3.99984V11.9998C14.6668 12.3535 14.5264 12.6926 14.2763 12.9426C14.0263 13.1927 13.6871 13.3332 13.3335 13.3332H2.66683C2.31321 13.3332 1.97407 13.1927 1.72402 12.9426C1.47397 12.6926 1.3335 12.3535 1.3335 11.9998V3.99984C1.3335 3.64622 1.47397 3.30708 1.72402 3.05703C1.97407 2.80698 2.31321 2.6665 2.66683 2.6665Z" fill="#5B5B5B"/>
</svg>
