<svg width="24" height="24" viewBox="0 0 24 24" fill="none" xmlns="http://www.w3.org/2000/svg">
<path d="M2.9662 9.46875C2.83972 9.4699 2.7152 9.43755 2.60526 9.375C2.52463 9.32968 2.45385 9.26873 2.39705 9.19572C2.34026 9.12271 2.2986 9.03911 2.2745 8.9498C2.25041 8.8605 2.24437 8.76728 2.25673 8.67562C2.2691 8.58395 2.29962 8.49567 2.34651 8.41594C3.25026 6.9075 5.99995 3.38672 12 3.38672C14.6001 3.38672 16.8806 4.06969 18.7748 5.41594C20.3339 6.52078 21.2076 7.77141 21.6239 8.37375C21.6766 8.44967 21.7137 8.53539 21.7329 8.62586C21.752 8.71633 21.7529 8.80971 21.7355 8.90052C21.718 8.99133 21.6825 9.07773 21.6312 9.15463C21.5798 9.23152 21.5136 9.29737 21.4364 9.34828C21.2786 9.45257 21.0864 9.49133 20.9005 9.45633C20.7147 9.42132 20.5498 9.31532 20.4407 9.16078C19.6875 8.0775 17.3906 4.78125 12 4.78125C6.73823 4.78125 4.35933 7.81453 3.58448 9.11531C3.52222 9.22394 3.43209 9.31397 3.3234 9.3761C3.2147 9.43823 3.09139 9.47022 2.9662 9.46875Z" fill="#939393"/>
<path d="M15.023 23.2502C14.9632 23.2509 14.9035 23.2442 14.8454 23.2301C10.493 22.1519 8.86786 17.801 8.80176 17.6201L8.79145 17.5802C8.75582 17.4546 7.88254 14.471 9.22317 12.7235C9.8377 11.9266 10.7724 11.5179 12.0066 11.5179C13.1541 11.5179 13.9819 11.8746 14.551 12.6129C15.0197 13.2157 15.2072 13.9591 15.3886 14.6754C15.7697 16.1669 16.0449 16.9502 17.6288 17.0308C18.3244 17.066 18.7815 16.6591 19.0407 16.3127C19.7414 15.3682 19.8633 13.8283 19.335 12.469C18.6563 10.7144 16.2474 7.40646 12 7.40646C10.1869 7.40646 8.52098 7.98912 7.18504 9.08412C6.07926 9.99115 5.20317 11.2718 4.78129 12.588C3.99895 15.0387 5.02504 18.8908 5.03489 18.926C5.05884 19.0157 5.06461 19.1092 5.05184 19.2011C5.03907 19.293 5.00803 19.3815 4.96054 19.4612C4.91305 19.5409 4.85008 19.6103 4.77534 19.6653C4.7006 19.7203 4.6156 19.7598 4.52536 19.7815C4.34304 19.8299 4.14899 19.8051 3.98479 19.7122C3.82058 19.6193 3.6993 19.4658 3.64692 19.2846C3.60004 19.1088 2.50411 15.0002 3.40786 12.168C4.39223 9.09912 7.4302 6.00537 12.0014 6.00537C14.1141 6.00537 16.11 6.7235 17.776 8.07959C19.066 9.13428 20.1197 10.5508 20.671 11.9669C21.3718 13.7749 21.1838 15.8041 20.1933 17.1297C19.5333 18.0138 18.5935 18.476 17.5524 18.4258C14.8402 18.2899 14.3527 16.3966 13.9974 15.0157C13.6318 13.5991 13.3979 12.9162 12.0014 12.9162C11.2346 12.9162 10.696 13.1271 10.3608 13.564C9.90379 14.1616 9.86817 15.0958 9.91879 15.7737C9.95203 16.2459 10.0321 16.7137 10.1579 17.1701C10.2694 17.4513 11.7221 21.0138 15.2011 21.8758C15.2911 21.8971 15.3759 21.9361 15.4506 21.9905C15.5253 22.0448 15.5885 22.1135 15.6365 22.1925C15.6845 22.2714 15.7163 22.3592 15.73 22.4505C15.7438 22.5419 15.7393 22.6351 15.7168 22.7247C15.6743 22.876 15.5835 23.0093 15.4583 23.1042C15.333 23.199 15.1801 23.2503 15.023 23.2502Z" fill="#939393"/>
<path d="M9.43654 22.9285C9.33898 22.9287 9.24239 22.9093 9.15251 22.8713C9.06264 22.8334 8.98132 22.7778 8.91341 22.7077C7.17154 20.8796 6.18622 18.8354 5.81544 16.2793V16.2657C5.60732 14.5735 5.912 12.1777 7.40497 10.5305C8.507 9.31508 10.0562 8.69727 12.0015 8.69727C14.3022 8.69727 16.1101 9.76695 17.2375 11.7859C18.0554 13.2526 18.2176 14.7141 18.2219 14.7741C18.2304 14.8667 18.2207 14.9599 18.1931 15.0487C18.1656 15.1374 18.1208 15.2198 18.0614 15.2913C18.002 15.3627 17.929 15.4216 17.8468 15.4648C17.7645 15.508 17.6745 15.5345 17.582 15.5429C17.3953 15.5632 17.2081 15.5092 17.0609 15.3926C16.9136 15.2761 16.8181 15.1063 16.795 14.9199C16.6715 14.043 16.3877 13.1962 15.9578 12.422C15.084 10.8802 13.7547 10.0965 11.9964 10.0965C10.4776 10.0965 9.28935 10.5535 8.47185 11.4559C7.29341 12.7566 7.0656 14.7605 7.22732 16.0862C7.55216 18.3465 8.42075 20.1446 9.9545 21.7515C10.0185 21.8181 10.0685 21.8969 10.1014 21.9832C10.1344 22.0694 10.1497 22.1615 10.1464 22.2538C10.143 22.3461 10.1212 22.4368 10.0821 22.5205C10.043 22.6042 9.98752 22.6792 9.91888 22.741C9.7867 22.8608 9.61493 22.9276 9.43654 22.9285Z" fill="#939393"/>
<path d="M17.4609 20.9148C15.9375 20.9148 14.6423 20.4929 13.6059 19.6543C11.5237 17.9767 11.2903 15.2443 11.28 15.129C11.2653 14.9398 11.3264 14.7524 11.4499 14.6082C11.5734 14.464 11.7491 14.3747 11.9383 14.3601C12.1276 14.3454 12.315 14.4065 12.4592 14.53C12.6034 14.6534 12.6926 14.8291 12.7073 15.0184C12.7125 15.0587 12.9206 17.2937 14.5256 18.5809C15.4753 19.3393 16.7447 19.6403 18.3089 19.4645C18.4958 19.4418 18.6842 19.4941 18.8327 19.6099C18.9812 19.7256 19.0779 19.8955 19.1015 20.0823C19.1118 20.1746 19.1035 20.268 19.0773 20.3571C19.051 20.4462 19.0073 20.5291 18.9487 20.6011C18.89 20.6731 18.8176 20.7327 18.7357 20.7764C18.6538 20.8201 18.564 20.8471 18.4715 20.8558C18.1361 20.8949 17.7986 20.9146 17.4609 20.9148Z" fill="#939393"/>
<path d="M18.6648 2.28703C18.0704 1.90031 15.9629 0.75 12.0001 0.75C7.84045 0.75 5.72779 2.02078 5.26045 2.34375C5.22958 2.3627 5.20069 2.38468 5.1742 2.40937C5.1714 2.41208 5.16776 2.41373 5.16389 2.41406C5.08926 2.47922 5.02938 2.55954 4.98823 2.64966C4.94709 2.73979 4.92564 2.83765 4.92529 2.93672C4.92658 3.02959 4.94617 3.12129 4.98296 3.20657C5.01974 3.29185 5.07299 3.36904 5.13966 3.4337C5.20633 3.49837 5.2851 3.54924 5.37146 3.58341C5.45783 3.61757 5.55009 3.63436 5.64295 3.63281C5.79179 3.63271 5.93704 3.58708 6.0592 3.50203C6.07936 3.48703 7.89764 2.15109 12.0015 2.15109C16.1054 2.15109 17.9336 3.48234 17.9533 3.49219C18.0781 3.58473 18.2296 3.6341 18.385 3.63281C18.4779 3.63424 18.5702 3.61729 18.6566 3.58295C18.743 3.54861 18.8217 3.49755 18.8883 3.4327C18.9549 3.36785 19.008 3.29049 19.0447 3.20505C19.0813 3.11962 19.1007 3.02779 19.1017 2.93484C19.1017 2.79562 19.0602 2.65956 18.9823 2.54413C18.9045 2.4287 18.7939 2.33917 18.6648 2.28703Z" fill="#939393"/>
</svg>
